<svg id="Layer_1" data-name="Layer 1" xmlns="http://www.w3.org/2000/svg" xmlns:xlink="http://www.w3.org/1999/xlink" viewBox="0 0 1400 200.27"><defs><style>.cls-1{fill:#f3fdff;}.cls-2{fill:#ececec;}.cls-3{fill:#e1e1e1;}.cls-4{fill:#1a2e35;}.cls-5{fill:#ff4f5b;}.cls-6{fill:url(#linear-gradient);}.cls-7{fill:url(#linear-gradient-2);}.cls-8{fill:#ffbf9d;}.cls-9{fill:#ff9a6c;}.cls-10{fill:url(#linear-gradient-3);}.cls-11{opacity:0.6;}.cls-12{fill:#fff;}.cls-13{fill:#375a64;}.cls-14{fill:url(#linear-gradient-4);}.cls-15{opacity:0.2;}.cls-16{fill:url(#linear-gradient-5);}.cls-17{fill:url(#linear-gradient-6);}.cls-18{fill:url(#linear-gradient-7);}.cls-19{fill:url(#linear-gradient-8);}.cls-20{fill:#ffccb0;}.cls-21{fill:url(#linear-gradient-9);}.cls-22{fill:#fafafa;}.cls-23{opacity:0.3;}.cls-24{fill:#bf654e;}.cls-25{fill:#723c31;}.cls-26{fill:url(#linear-gradient-10);}.cls-27{fill:url(#linear-gradient-11);}.cls-28{fill:url(#linear-gradient-12);}</style><linearGradient id="linear-gradient" x1="19.76" y1="177.62" x2="40.52" y2="177.62" gradientUnits="userSpaceOnUse"><stop offset="0" stop-color="#207c3d"/><stop offset="1" stop-color="#489840"/></linearGradient><linearGradient id="linear-gradient-2" x1="24.21" y1="161.05" x2="45.9" y2="161.05" xlink:href="#linear-gradient"/><linearGradient id="linear-gradient-3" x1="1311.84" y1="196.59" x2="1330.64" y2="196.59" xlink:href="#linear-gradient"/><linearGradient id="linear-gradient-4" x1="1313.64" y1="95.37" x2="1349.24" y2="95.37" xlink:href="#linear-gradient"/><linearGradient id="linear-gradient-5" x1="1323.92" y1="82.99" x2="1339.74" y2="82.99" xlink:href="#linear-gradient"/><linearGradient id="linear-gradient-6" x1="1330.98" y1="194.55" x2="1349.31" y2="194.55" xlink:href="#linear-gradient"/><linearGradient id="linear-gradient-7" x1="1268.68" y1="193.2" x2="1284.69" y2="193.2" xlink:href="#linear-gradient"/><linearGradient id="linear-gradient-8" x1="1286.73" y1="188.97" x2="1300.92" y2="188.97" xlink:href="#linear-gradient"/><linearGradient id="linear-gradient-9" x1="1272.19" y1="105.43" x2="1300.1" y2="105.43" xlink:href="#linear-gradient"/><linearGradient id="linear-gradient-10" x1="103.79" y1="189.52" x2="122.17" y2="189.52" xlink:href="#linear-gradient"/><linearGradient id="linear-gradient-11" x1="100.64" y1="191.95" x2="119.58" y2="191.95" xlink:href="#linear-gradient"/><linearGradient id="linear-gradient-12" x1="91.91" y1="84.79" x2="139.49" y2="84.79" xlink:href="#linear-gradient"/></defs><rect class="cls-1" width="1400" height="198"/><rect class="cls-2" x="13.98" y="119.56" width="21.08" height="5.58"/><path class="cls-3" d="M26.14,131v-.39l0-1.1c0-1,0-2.34,0-4.09l.06.07-21.07,0c0-.05-.11.11.1-.11h0V131l-.1-.11,15,0,4.43,0h.05l-4.41,0-15.09.05H5v-5.66H5l.11-.11,21.07.05h.07v.06c0,1.76,0,3.16,0,4.13,0,.46,0,.83,0,1.08v.28C26.15,131,26.15,131,26.14,131Z"/><rect class="cls-2" x="1380.89" y="69.92" width="16.11" height="4.26"/><path class="cls-3" d="M1390.19,78.67a.17.17,0,0,1,0-.07V77.54c0-.74,0-1.8,0-3.13l0,0-16.11,0,.08-.08h0v4.23l-.08-.08,11.48,0,3.39,0h1.24s0,0-.08,0H1389l-3.37,0-11.53,0H1374v-.08c0-.68,0-1.38,0-2.09V74.44h0l.09-.08,16.11,0h0v0c0,1.35,0,2.42,0,3.16v1.1Z"/><rect class="cls-2" x="1251.51" y="116.43" width="16.11" height="4.26"/><path class="cls-3" d="M1260.81,125.18V124c0-.73,0-1.79,0-3.12l0,0-16.11,0,.08-.08h0v4.25l-.08-.08,11.48,0,3.39,0h0l-3.37,0-11.54,0h-.08v-4.33h0c.16-.17.05,0,.08-.08l16.11,0h0v0c0,1.34,0,2.41,0,3.15,0,.36,0,.63,0,.83v.21A.17.17,0,0,1,1260.81,125.18Z"/><path class="cls-3" d="M45.74,41.41s0-.06,0-.17v-.48c0-.43,0-1,0-1.82,0-1.6,0-3.9-.06-6.8l.1.11-35,.07c.08-.08-.18.18.17-.18h0v9.24l-.18-.18,25,.08,7.37,0,2,0h0l-1.95,0-7.33,0-25.1.08h-.17V32.17h0c.35-.36.1-.1.18-.18l35,.07h.11v.11c0,2.93,0,5.25-.06,6.87,0,.76,0,1.36,0,1.8,0,.18,0,.33,0,.45S45.75,41.41,45.74,41.41Z"/><path class="cls-3" d="M1373.54,31.35a.28.28,0,0,1,0-.08v-.21l0-.84c0-.74,0-1.8,0-3.13l0,.05-16.11,0s-.09.08.08-.08h0v4.23l-.08-.08,11.48,0,3.39,0h0l-3.37,0-11.53,0h-.08v-.08c0-.68,0-1.38,0-2.09V27.12h0l.09-.08,16.11,0h0v.05c0,1.35,0,2.41,0,3.16v1.1Z"/><path class="cls-3" d="M1262.62,82.1a.17.17,0,0,1,0-.07v-.22c0-.2,0-.48,0-.84,0-.74,0-1.79,0-3.13l0,0-16.11,0,.08-.08h0V82.1l-.08-.08,11.48,0,3.39,0h1.24s0,0-.08,0h-.23l-.9,0-3.37,0-11.53,0h-.08V82.1c0-.68,0-1.38,0-2.09V77.86h0l.09-.08,16.11,0h.05v0c0,1.35,0,2.42,0,3.16,0,.35,0,.63,0,.83v.27Z"/><path class="cls-3" d="M1380.61,132.32v-1.14c0-.73,0-1.79,0-3.12l0,.05-16.11,0,.08-.08h0v4.25l-.08-.08,11.48,0,3.39,0h0l-3.37,0-11.54,0h-.08v-4.33h0c.16-.17,0-.05.08-.09l16.11,0h.05v.05c0,1.34,0,2.41,0,3.15v1A.17.17,0,0,1,1380.61,132.32Z"/><path class="cls-3" d="M97,55.73V54.61c0-.72,0-1.77,0-3.08l0,0-15.85,0s-.08.08.08-.08h0v4.17l-.08-.08,11.3,0,3.33,0h0l-3.32,0-11.35,0h-.08V51.56h0l.08-.08,15.85,0h0v.05c0,1.33,0,2.38,0,3.11,0,.35,0,.62,0,.81v.21A.24.24,0,0,1,97,55.73Z"/><path class="cls-3" d="M99.13,51.53v-.3l0-.84c0-.74,0-1.77,0-3l.06.06-9.52,0,.08-.08h0V49.5c0,.7,0,1.38,0,2l-.07-.07,6.81,0,2,0h0l-2,0-6.86,0h-.08V47.35h0l.08-.08,9.52,0h.06v.06c0,1.29,0,2.34,0,3.08l0,.83A1.1,1.1,0,0,1,99.13,51.53Z"/><rect class="cls-3" x="12.13" y="56.94" width="21.08" height="5.58"/><rect class="cls-2" x="27.29" y="45.5" width="21.08" height="5.58"/><path class="cls-3" d="M39.45,56.94v-.38c0-.27,0-.63,0-1.1,0-1,0-2.35,0-4.09l.06.06-21.07,0s-.11.1.1-.11h0v5.55l-.1-.1,15,0,4.43,0h1.62s0,0-.1,0H37.88l-4.41,0-15.09,0h-.11V51.39h0l.11-.11,21.07,0h.07v.07c0,1.76,0,3.16,0,4.13,0,.46,0,.82,0,1.08v.28C39.46,56.92,39.45,57,39.45,56.94Z"/><rect class="cls-3" x="1256.71" y="40.05" width="16.11" height="4.26"/><rect class="cls-2" x="1268.29" y="31.3" width="16.11" height="4.26"/><path class="cls-3" d="M1277.59,40.05V38.91c0-.73,0-1.79,0-3.12l0,.05-16.11,0,.08-.08h0v4.25l-.08-.08L1273,40l3.39,0h0l-3.37,0-11.54,0h-.08V35.8h0c.16-.17,0,0,.08-.08l16.11,0h.05v0c0,1.34,0,2.41,0,3.15l0,.83V40A.17.17,0,0,1,1277.59,40.05Z"/><path class="cls-3" d="M1198.91,132.19s0,0,0-.08v-1.06c0-.73,0-1.79,0-3.12l.05,0-16.11,0s-.09.08.08-.08h0v2.15c0,.71,0,1.41,0,2.1l-.08-.08,11.49,0,3.38,0h0l-3.37,0-11.54,0h-.08v-4.33h0l.09-.09,16.11,0h0v.05c0,1.34,0,2.41,0,3.15v1.11Z"/><path class="cls-3" d="M1201.09,127.93a.37.37,0,0,0,0-.08v-.23l0-.86c0-.74,0-1.8,0-3.1l.06.06-9.68,0c-.07.07.1-.1.08-.09h0v4.25l-.08-.08,6.92,0,2,0h.55a.58.58,0,0,1,.19,0h-.7l-2,0-7,0h-.08v-4.32h0l.08-.08,9.68,0h.06v0c0,1.32,0,2.38,0,3.14,0,.35,0,.64,0,.84S1201.09,127.93,1201.09,127.93Z"/><path class="cls-3" d="M1318.52,91a.45.45,0,0,0,0-.08v-.22c0-.2,0-.48,0-.83,0-.74,0-1.8,0-3.13l0,0-16.11,0,.08-.08h0V91l-.08-.08,11.48,0,3.39,0h0l-3.38,0-11.53,0h-.08V86.77h0c.16-.17,0-.05.08-.08l16.11,0h0v.05c0,1.35,0,2.41,0,3.16V91Z"/><path class="cls-3" d="M1320.7,86.76V85.6c0-.75,0-1.81,0-3.1l.06.06-9.68,0c-.07.07.1-.1.09-.08h0v4.25l-.08-.08,6.93,0,2,0h0l-2,0-7,0H1311V82.51h0s.16-.16.08-.09l9.68,0h.06v.06c0,1.31,0,2.38,0,3.13,0,.36,0,.64,0,.84A1.64,1.64,0,0,1,1320.7,86.76Z"/><polygon class="cls-3" points="1333.4 165.59 1325.58 199.57 1328.89 199.56 1336.73 165.91 1333.4 165.59"/><polygon class="cls-3" points="1347.68 165.59 1355.53 199.57 1358.68 199.57 1351.08 165.59 1347.68 165.59"/><polygon class="cls-3" points="1328.12 140.07 1332.58 163.47 1337.64 163.47 1332.88 140.07 1328.12 140.07"/><polygon class="cls-3" points="1250.51 165.59 1244.13 199.57 1247.38 199.57 1254.05 165.59 1250.51 165.59"/><polygon class="cls-3" points="1263.93 165.59 1271.23 199.39 1274.44 199.39 1267.39 165.59 1263.93 165.59"/><polygon class="cls-3" points="1245.23 140.07 1249.68 163.47 1254.75 163.47 1249.99 140.07 1245.23 140.07"/><polygon class="cls-2" points="1235.2 137.94 1236.11 142.2 1337.79 142.2 1336.61 137.94 1235.2 137.94"/><polygon class="cls-2" points="1237.14 146.21 1238.22 150.46 1339.21 150.46 1338.29 146.21 1237.14 146.21"/><polygon class="cls-2" points="1239.15 154.76 1240.15 159.01 1340.83 159.01 1339.88 154.76 1239.15 154.76"/><rect class="cls-2" x="1246.85" y="163.47" width="108.57" height="4.25"/><path class="cls-2" d="M1386,148s-2.8-.66-3.56,5.74a75.31,75.31,0,0,0-.66,9.89s-.31,1.4-1.36.95-2.88-2.16-4-1.3-1.12,2.59,0,4.74,3.29,6.93,3.49,7.37.18,1.16-.58,1-5.7-2.8-6.8-.38,2.91,7.9,3.33,8.5.4.95.15,1.23-1.84-.75-3.27-1.43-3.22-1.23-3.74.22.88,6.15,8,12l3.48,2.49,3.95-1.7c8.22-4.17,10.61-8.46,10.42-10s-2-1.38-3.6-1-3.31,1-3.5.69-.15-.67.4-1.17,5.65-5,5.11-7.58-5.94-1.12-6.73-1.1-.64-.7-.35-1.07,3.48-4.58,5-6.44,2-3.48,1-4.62-3.12.17-4.24.38-1.12-1.22-1.12-1.22a76.05,76.05,0,0,0,1.5-9.79c.65-6.42-2.3-6.36-2.3-6.36"/><path class="cls-3" d="M1380,199.91c.5-4.7,1.51-13,2.35-20.23s1.59-13.67,2.1-18.37c.26-2.35.47-4.25.61-5.57.07-.66.13-1.17.17-1.52l0-.39c0-.09,0-.14,0-.14v.14l0,.39c0,.36-.08.87-.14,1.52-.12,1.32-.32,3.23-.56,5.58-.5,4.71-1.23,11.2-2.07,18.38s-1.87,15.52-2.38,20.22"/><path class="cls-3" d="M1378.84,165.73s.08.08.2.23.3.39.51.68c.42.57,1,1.38,1.58,2.29l1.52,2.32.47.7a1.29,1.29,0,0,1,.16.26s-.08-.07-.2-.23-.3-.39-.51-.68c-.41-.58-1-1.39-1.55-2.3l-1.55-2.31c-.18-.27-.34-.51-.47-.69A2,2,0,0,1,1378.84,165.73Z"/><path class="cls-3" d="M1383.68,172.15s1.59-1.25,3.61-2.73,3.67-2.66,3.69-2.63-1.59,1.25-3.61,2.73S1383.7,172.18,1383.68,172.15Z"/><path class="cls-3" d="M1381.89,183.11a1.85,1.85,0,0,1,.3-.12l.8-.3c.69-.25,1.62-.6,2.65-1s1.93-.83,2.59-1.13l.78-.36a1,1,0,0,1,.3-.12l-.27.16c-.18.1-.44.24-.77.4-.65.33-1.56.75-2.58,1.17s-2,.76-2.67,1c-.34.11-.62.2-.82.25A1.2,1.2,0,0,1,1381.89,183.11Z"/><path class="cls-3" d="M1376.25,178.26l.24.17.62.49c.52.42,1.24,1,2,1.67l2,1.69.6.53c.14.13.21.2.2.21l-.24-.17-.62-.49c-.52-.42-1.24-1-2-1.67l-2-1.69-.6-.53C1376.31,178.34,1376.24,178.27,1376.25,178.26Z"/><path class="cls-3" d="M1373.45,187.74a2.43,2.43,0,0,1,.3.21l.8.63,2.61,2.12c1,.83,1.93,1.59,2.59,2.14l.77.66c.18.16.28.25.27.26a2.08,2.08,0,0,1-.3-.22l-.8-.63c-.67-.53-1.6-1.28-2.61-2.11s-1.93-1.59-2.59-2.14l-.77-.67A1.8,1.8,0,0,1,1373.45,187.74Z"/><path class="cls-3" d="M1380.66,193.57l.36-.17,1-.41c.86-.34,2-.83,3.31-1.4s2.44-1.11,3.27-1.51l1-.48a1.87,1.87,0,0,1,.37-.16l-.35.21-1,.51c-.82.42-2,1-3.25,1.55s-2.47,1-3.33,1.37l-1,.37A3,3,0,0,1,1380.66,193.57Z"/><path class="cls-4" d="M1395,199.75c0,.06-58.41.11-130.45.11s-130.47-.05-130.47-.11,58.4-.1,130.47-.1S1395,199.69,1395,199.75Z"/><path class="cls-5" d="M37.08,188.43c.42-1.66-.66-3.32-1.88-4.52s-2.67-2.28-3.3-3.87c-1-2.57.35-5.91-1.4-8-1-1.27-2.88-1.69-3.79-3a6.62,6.62,0,0,1-.82-2.41,24.57,24.57,0,0,0-6.1-11.4,21.39,21.39,0,0,0,2.39,11A14,14,0,0,1,24,170.3c.38,2.45-1,5-.38,7.37.68,2.75,3.77,4.59,3.91,7.41.13,2.39-2,4.49-1.8,6.88a6.6,6.6,0,0,0,1.06,2.84c1.85,3.07,4.57,5.19,8.68,5.12l5.05.17Z"/><path class="cls-6" d="M37.08,188.43c.42-1.66-.66-3.32-1.88-4.52s-2.67-2.28-3.3-3.87c-1-2.57.35-5.91-1.4-8-1-1.27-2.88-1.69-3.79-3a6.62,6.62,0,0,1-.82-2.41,24.57,24.57,0,0,0-6.1-11.4,21.39,21.39,0,0,0,2.39,11A14,14,0,0,1,24,170.3c.38,2.45-1,5-.38,7.37.68,2.75,3.77,4.59,3.91,7.41.13,2.39-2,4.49-1.8,6.88a6.6,6.6,0,0,0,1.06,2.84c1.85,3.07,4.57,5.19,8.68,5.12l5.05.17Z"/><path class="cls-4" d="M41.54,200.23a4,4,0,0,0,1.38,0,8.42,8.42,0,0,0,1.64-.42,7,7,0,0,0,2-1.1,3,3,0,0,0,.83-1.11,5.68,5.68,0,0,0,.24-1.51,13,13,0,0,1,.11-1.63,4.6,4.6,0,0,1,.62-1.62c.59-1.05,1.58-2,1.9-3.45a11.42,11.42,0,0,0-.14-4.42,9.42,9.42,0,0,1,.12-4.74c.54-1.57,1.65-3,2.2-4.78s.29-3.72.41-5.63a7.35,7.35,0,0,1,.66-2.79c.4-.9,1-1.74,1.41-2.68a19.57,19.57,0,0,0,1.3-6.16c.12-1.06.24-2.14.36-3.22a16.06,16.06,0,0,1,.56-3.23,28.62,28.62,0,0,1,1.21-3.12A9.42,9.42,0,0,0,59,147c.1-.6.13-1.16.17-1.74a21.5,21.5,0,0,0-.14-3.49c-.14-1.16-.35-2.32-.47-3.48l0-.2,0-.23-.21.1a7.71,7.71,0,0,0-2.71,2.29,12.56,12.56,0,0,0-1.67,3.07,38.76,38.76,0,0,0-1.57,6.6,17.84,17.84,0,0,1-2.07,6.1c-.55.9-1.22,1.72-1.8,2.59a7.15,7.15,0,0,0-1.26,2.88c-.29,2.13.88,4,.64,5.89A6.57,6.57,0,0,1,46.9,170c-.46.8-1,1.55-1.51,2.3A14,14,0,0,0,44,174.6a7.12,7.12,0,0,0-.62,2.53c-.13,1.7.12,3.31,0,4.83a11.12,11.12,0,0,1-1.24,4.14c-.61,1.24-1.29,2.37-1.86,3.45a16.56,16.56,0,0,0-.76,1.61,8.29,8.29,0,0,0-.45,1.59,10,10,0,0,0,0,2.88,7.24,7.24,0,0,0,1.44,3.67,3,3,0,0,0,.41.44,1.53,1.53,0,0,0,.33.28l.29.21a6.47,6.47,0,0,1-1-1,7.37,7.37,0,0,1-1.37-3.64,9.79,9.79,0,0,1,.07-2.84,7.78,7.78,0,0,1,.44-1.56c.22-.52.48-1,.77-1.58.57-1.08,1.26-2.2,1.88-3.44A11.32,11.32,0,0,0,43.64,182c.13-1.56-.1-3.17,0-4.83a7,7,0,0,1,.6-2.45,15.25,15.25,0,0,1,1.34-2.28c.51-.74,1.06-1.49,1.53-2.31a6.9,6.9,0,0,0,1-2.73c.24-2-.92-3.9-.62-5.88a6.75,6.75,0,0,1,1.21-2.75c.57-.86,1.25-1.68,1.81-2.6a17.88,17.88,0,0,0,2.12-6.2,38.61,38.61,0,0,1,1.56-6.54,11.73,11.73,0,0,1,1.63-3,7.38,7.38,0,0,1,2.6-2.2l-.24-.13,0,.2c.12,1.18.33,2.34.47,3.49a19.84,19.84,0,0,1,.13,3.44,15.2,15.2,0,0,1-.15,1.68,9.56,9.56,0,0,1-.57,1.57,28,28,0,0,0-1.21,3.15,16.34,16.34,0,0,0-.57,3.28c-.12,1.09-.24,2.16-.36,3.23a19.47,19.47,0,0,1-1.26,6.07c-.42.91-1,1.75-1.41,2.67a7.82,7.82,0,0,0-.67,2.91c-.11,1.94.14,3.84-.39,5.57s-1.62,3.14-2.18,4.77a9.64,9.64,0,0,0-.1,4.85,11.46,11.46,0,0,1,.16,4.34c-.29,1.35-1.25,2.33-1.86,3.41a4.7,4.7,0,0,0-.62,1.68,13.84,13.84,0,0,0-.11,1.65,4.93,4.93,0,0,1-.21,1.47,2.71,2.71,0,0,1-.79,1.06,6.7,6.7,0,0,1-2,1.11,7.82,7.82,0,0,1-1.62.44,7,7,0,0,1-1,.1Z"/><path class="cls-4" d="M57.47,140.83s0,0,0,.16-.07.27-.11.45c-.1.4-.22,1-.41,1.75s-.66,1.59-1,2.63-.82,2.23-1.2,3.57-.72,2.84-1.08,4.44A18.63,18.63,0,0,1,52,158.75c-.42.82-.88,1.65-1.25,2.56A12.25,12.25,0,0,0,50,164.2a57.11,57.11,0,0,1-1.08,6.1c-1,4.13-2,8.07-2.85,11.65l-2.39,9.5c-.67,2.69-1.21,4.87-1.59,6.41-.17.74-.31,1.33-.41,1.75,0,.19-.07.34-.1.46s0,.16,0,.16,0,0,.05-.15l.13-.45c.12-.42.28-1,.48-1.73.4-1.54,1-3.71,1.68-6.39s1.53-5.92,2.46-9.48,1.85-7.52,2.87-11.66a58,58,0,0,0,1.09-6.12,11.21,11.21,0,0,1,.7-2.82c.35-.89.81-1.71,1.22-2.54a18.63,18.63,0,0,0,1.61-5c.35-1.6.68-3.09,1-4.43s.76-2.54,1.15-3.58.81-1.89,1-2.66.27-1.36.35-1.77c0-.18.06-.33.08-.46A.91.91,0,0,0,57.47,140.83Z"/><path class="cls-7" d="M42.43,200.24c3.29-2,4.23-7.9,2.86-11.47s-3.78-6.85-4.15-10.66c-.28-2.93.68-5.94,0-8.8-.92-3.87-4.69-6.86-4.65-10.84,0-2.23,1.3-4.33,1.19-6.55-.12-2.73-2.22-4.9-3.52-7.31-2-3.68-2.12-8-2.79-12.17s-2.26-8.56-5.92-10.59c-.54,3.51-1.46,5.91-1.17,10.66.1,1.71,2.08,5,2.35,8.72.16,2.23.27,4.47.41,6.71a21.49,21.49,0,0,0,1.06,6.43c.59,1.56,1.55,3,2,4.59.83,3-.26,6.31.41,9.38.57,2.6,2.37,4.84,2.74,7.48.52,3.71-1.88,7.56-.65,11.09.61,1.76,2,3.17,2.46,5,.32,1.4,0,2.89.26,4.3.46,2.28,4.8,4,7.12,3.9"/><path class="cls-4" d="M26.35,125.34s0,.06,0,.19l.08.58c.07.51.16,1.25.33,2.21s.68,2.06,1.08,3.37.84,2.82,1.21,4.51.69,3.56,1,5.57a23.52,23.52,0,0,0,1.68,6.3c.47,1.06,1,2.11,1.37,3.23a14.32,14.32,0,0,1,.7,3.56,73,73,0,0,0,1,7.67c1,5.2,2,10.15,2.85,14.65l2.45,11.94c.7,3.37,1.28,6.12,1.68,8l.47,2.19c.06.23.1.42.13.56s.05.2.06.19l0-.19c0-.15,0-.34-.1-.58-.09-.52-.23-1.25-.41-2.19-.38-1.92-.91-4.67-1.58-8.06s-1.48-7.45-2.38-11.95-1.82-9.45-2.82-14.64a75.49,75.49,0,0,1-1-7.65,14.69,14.69,0,0,0-.71-3.63C33,150.05,32.5,149,32,148a23.14,23.14,0,0,1-1.7-6.22c-.34-2-.67-3.89-1.06-5.58s-.82-3.21-1.26-4.52-.93-2.39-1.13-3.33-.29-1.7-.39-2.2c0-.24-.08-.43-.11-.57A1,1,0,0,0,26.35,125.34Z"/><path class="cls-8" d="M1326.08,76.05l-10.7-7,.1-18.08-4.74,1.62-3.19,20c3.15,4.39,8.17,8.52,13.69,12.58Z"/><path class="cls-8" d="M1315.53,38.34s-1.09-.29-1.27,1.46-.59,5.17-.59,5.17l-1.22-.44s-.09-1.47-1-1.12-1,1.6-1,1.6L1309,46.24l-.16,2.84s.55.08.75-.21l.63,1.15a6.6,6.6,0,0,0,.57,2.59c.48.57,4.73.4,4.73.4l.82-5.4a1.48,1.48,0,0,0-.15-1.07l-.23-.4Z"/><path class="cls-9" d="M1310.35,51.47a2.15,2.15,0,0,1-.23-.94,3.68,3.68,0,0,1,0-.49,1.52,1.52,0,0,1,0-.29l.09-.28c.07-.19.18-.38.26-.56a2.38,2.38,0,0,0,.16-.61,5,5,0,0,0-.08-1.24,9,9,0,0,1-.13-1,1.74,1.74,0,0,1,.15-1,5.85,5.85,0,0,0,0,.94c0,.29.1.64.17,1a4.87,4.87,0,0,1,.1,1.3,2.38,2.38,0,0,1-.18.66c-.1.2-.2.37-.27.55a1.18,1.18,0,0,0-.12.5c0,.17,0,.33,0,.48s0,.53.06.69S1310.37,51.46,1310.35,51.47Z"/><path class="cls-9" d="M1313.48,49.75A1.85,1.85,0,0,1,1313,49a8.31,8.31,0,0,1-.46-2c-.11-.77-.18-1.48-.2-2a2.46,2.46,0,0,1,0-.83,5,5,0,0,1,.11.82c0,.51.14,1.21.26,2a9.27,9.27,0,0,0,.39,1.94C1313.33,49.46,1313.51,49.73,1313.48,49.75Z"/><path class="cls-9" d="M1314.57,47.9c0,.05-.38-.28-.91-.45a8.89,8.89,0,0,0-1-.17,1.25,1.25,0,0,1,1.07,0C1314.32,47.44,1314.62,47.88,1314.57,47.9Z"/><path class="cls-9" d="M1313,46.56a1,1,0,0,1,0-.94c.22-.51.64-.73.66-.68s-.28.31-.47.76S1313.08,46.56,1313,46.56Z"/><path class="cls-9" d="M1308.79,49.08a1.55,1.55,0,0,0,.47-.1,1.15,1.15,0,0,0,.42-.27,1.75,1.75,0,0,0,.32-.54,1.19,1.19,0,0,0,.1-1.08c-.13-.26-.34-.29-.33-.32s.25-.05.46.24a.93.93,0,0,1,.15.57,2.11,2.11,0,0,1-.19.67,1.74,1.74,0,0,1-.37.6,1.13,1.13,0,0,1-.52.27C1309,49.21,1308.77,49.11,1308.79,49.08Z"/><path class="cls-9" d="M1310.63,47s.06.17-.12.29-.32,0-.3-.06.13-.08.2-.13S1310.57,47,1310.63,47Z"/><path class="cls-8" d="M1330.52,46.34h-.41a7.75,7.75,0,0,0-7.41,7.43c-.14,3.74-.26,7.89-.15,9.89.22,4.15,4.4,4.62,4.4,4.62s-.06,4.41-.08,5.42l9.74,1.14.39-20.4C1337.2,50.13,1334.84,46.41,1330.52,46.34Z"/><path class="cls-4" d="M1336.75,61a29.88,29.88,0,0,0,1.37-5,10.57,10.57,0,0,0-.35-5.12c-.09-.24-.85-1.9-1.11-1.87s.28,1.55.18,1.71a8.88,8.88,0,0,0-1.06,5.17,23.23,23.23,0,0,0,1,5.09"/><path class="cls-9" d="M1327,68.29a10,10,0,0,0,5.33-1.82s-1.19,3.08-5.34,2.87Z"/><path class="cls-8" d="M1336.23,57.29c.07,0,2.82-1,2.84,1.88a2.13,2.13,0,0,1-2.83,2.2C1336.23,61.29,1336.23,57.29,1336.23,57.29Z"/><path class="cls-9" d="M1337.1,60.29s.05,0,.13.07a.51.51,0,0,0,.37,0,1.22,1.22,0,0,0,.56-1.1,1.76,1.76,0,0,0-.15-.71c-.09-.21-.22-.35-.38-.37a.24.24,0,0,0-.29.13c0,.08,0,.14,0,.14s-.06,0,0-.16a.3.3,0,0,1,.11-.18.41.41,0,0,1,.27-.07.68.68,0,0,1,.52.43,1.59,1.59,0,0,1,.18.79,1.3,1.3,0,0,1-.71,1.24.52.52,0,0,1-.45-.08C1337.1,60.35,1337.09,60.29,1337.1,60.29Z"/><path class="cls-4" d="M1324.54,49.07c-.46-.25.92-1.74,2-2.25a10,10,0,0,1,5.88-.81,6.89,6.89,0,0,1,4.43,3.2,11.17,11.17,0,0,1,1.25,5.71,3.23,3.23,0,0,1-.4,1.73c-.39.63-1.15,1-1.12,1.89a1.23,1.23,0,0,1-.29.87c-.52.55-1.16,0-1.45-.49a8.07,8.07,0,0,1-.75-3.71,8.14,8.14,0,0,1,.18-2.7c.13-.48.36-.92.47-1.41a1.69,1.69,0,0,0-.2-1.41,1.64,1.64,0,0,0-.23-.24,3,3,0,0,0-2.94-.55,11.23,11.23,0,0,1-4.88.54c-1.26-.27-1.44-1-1.44-1Z"/><path class="cls-4" d="M1328,67.06a1.78,1.78,0,0,1-.42-.81,1.81,1.81,0,0,1-.15-.9,2.41,2.41,0,0,1,.34.84A2.48,2.48,0,0,1,1328,67.06Z"/><path class="cls-4" d="M1329,67a1.85,1.85,0,0,1-.65-.93,2,2,0,0,1-.21-1.12,9.49,9.49,0,0,1,.4,1A8.8,8.8,0,0,1,1329,67Z"/><path class="cls-4" d="M1329.73,66.32s-.36-.23-.6-.68-.3-.85-.24-.86.2.35.43.77A3.9,3.9,0,0,1,1329.73,66.32Z"/><path class="cls-10" d="M1321.59,193.43l0,.55s-9.57,3.53-9.73,5.33l18.8.44v-6.26A11,11,0,0,1,1321.59,193.43Z"/><g class="cls-11"><path class="cls-12" d="M1328.59,195.44a.78.78,0,0,1,.51.89.75.75,0,0,1-.88.52.83.83,0,0,1-.54-.95.78.78,0,0,1,1-.43"/></g><g class="cls-11"><path class="cls-12" d="M1330.64,199.75l0-1.5-18,.12s-.85.34-.77.94Z"/></g><path class="cls-4" d="M1321.51,194c0,.1.45.15.9.45s.68.7.76.67,0-.57-.58-.93S1321.49,194,1321.51,194Z"/><path class="cls-4" d="M1319.51,194.8c0,.09.38.26.68.65s.38.81.47.81.16-.52-.22-1S1319.52,194.72,1319.51,194.8Z"/><path class="cls-4" d="M1318.34,197.14c.08,0,.22-.44,0-.95s-.65-.71-.69-.64.22.35.39.77S1318.25,197.13,1318.34,197.14Z"/><path class="cls-8" d="M1345.33,153.53s1.37,10.37,1.47,12.39,1,24.82,1,24.82-8.48,1.79-8.48,1.79l-5.22-30.64v-7.06Z"/><polygon class="cls-4" points="1347.33 153.77 1325.82 155.35 1326.44 135.28 1345.61 130.68 1347.33 153.77"/><polygon class="cls-8" points="1336.85 147.01 1332.31 157.83 1330.57 195.41 1321.86 195.65 1318.13 156.73 1321.06 145.47 1336.85 147.01"/><path class="cls-4" d="M1347.33,121.94h0c0,2.13,1.68,4.94-2.21,12.55-.79,1.55-2.11,4.47-3.16,6.73-2.15,4.66-6.82,14.2-6.82,14.2l-18.81-2.55.21-30.2,17.54-6.79Z"/><path class="cls-13" d="M1335.26,155.64l-19.13-2.6.21-30.5.12-.05,17.62-6.83.08,0,13.37,6.12v.13a10.78,10.78,0,0,0,.14,1.37c.31,2,.76,5.13-2.37,11.27-.64,1.26-1.66,3.46-2.55,5.4l-.61,1.32c-2.13,4.61-6.77,14.11-6.82,14.21Zm-18.73-2.94,18.5,2.5c.56-1.16,4.76-9.75,6.75-14.07l.61-1.31c.89-1.95,1.91-4.15,2.56-5.42,3.07-6,2.62-9,2.33-11-.07-.48-.13-.9-.15-1.3l-13.06-6-17.33,6.72Z"/><path class="cls-9" d="M1330.64,193.49v-.39c0-.27,0-.65,0-1.12,0-1,.1-2.39.16-4.11.16-3.48.37-8.27.6-13.56.33-7.05.64-13.22.82-16.48h0c.34-.78.6-1.4.79-1.83l.22-.47c0-.11.07-.16.08-.16l-.06.17-.19.48-.75,1.85v0c-.12,3.27-.39,9.43-.72,16.49-.26,5.29-.49,10.07-.66,13.56-.09,1.72-.17,3.12-.23,4.11l-.07,1.11,0,.29C1330.65,193.46,1330.65,193.49,1330.64,193.49Z"/><path class="cls-14" d="M1349.1,81.4c-.88-5.5-8.31-12-9-12.18l-.8-2a5.09,5.09,0,0,0-3.1-.71c-1.78.17-11.37,5.33-11.37,5.33l.45,2.41-5.06-2.48-2.24,3L1313.64,83l5.18,5.5c-1.43,3.07-2.76,6-3.6,8.05-2.67,6.39.33,27.07.33,27.07l32.89.64-2.31-21.67S1350,86.91,1349.1,81.4Z"/><g class="cls-15"><path d="M1347,107.77a7,7,0,0,0-1.52-3.72,20.85,20.85,0,0,0-4.43-4l-5.94-4.4a.91.91,0,0,0-.61-.24c-.36,0-.51.48-.59.83-1.74,7.7-5.47,13.23-7.81,20.76l-1.54,2.63c2.58-1.72,4.15-4.57,5.55-7.34q3.11-6.18,5.66-12.63c.69,1.73,3.33,1.72,4.41,3.24a6.31,6.31,0,0,1,.71,1.69,10,10,0,0,0,3,4.46c.66.55,1.6,1,2.34.6A1.94,1.94,0,0,0,1347,107.77Z"/></g><path class="cls-4" d="M1324.81,71.85s0,.06.06.19l.12.56c.11.52.25,1.22.43,2.07v0c-.36.78-.78,1.71-1.26,2.74s-1,2.14-1.6,3.31c-1.16,2.38-2.21,4.53-3,6.08l-.92,1.83-.26.5c-.07.11-.1.17-.11.16l.07-.18.22-.51c.22-.47.52-1.1.87-1.86.74-1.57,1.78-3.73,2.93-6.11.57-1.17,1.12-2.29,1.61-3.31l1.31-2.71v0c-.15-.85-.27-1.56-.36-2.08,0-.23-.06-.42-.08-.57S1324.8,71.85,1324.81,71.85Z"/><path class="cls-4" d="M1340.08,69.22a8.64,8.64,0,0,0-2.47.2,11.32,11.32,0,0,0-2.51,1l-3,1.43c-2,1-3.82,1.81-5.18,2.43l-.06,0,0,0-1.3-1.59a4.21,4.21,0,0,1-.45-.6,5.08,5.08,0,0,1,.52.55l1.35,1.54-.09,0c1.35-.65,3.16-1.53,5.16-2.48l3-1.42a11.07,11.07,0,0,1,2.56-.94,6.73,6.73,0,0,1,1.83-.14,4.14,4.14,0,0,1,.5.05Z"/><g class="cls-15"><path d="M1339.1,83q-1.2,4.9-2.41,9.81a3.26,3.26,0,0,0-2-.13c.07.34.24.31.32.66l1.09,1.31c.42.32,1.14,0,1.5-.38a4.17,4.17,0,0,0,.53-1.72A34.62,34.62,0,0,0,1339.1,83Z"/></g><path class="cls-12" d="M1331.86,71.46a5.06,5.06,0,0,1-1.12-.9,4.89,4.89,0,0,1-1-1,5.33,5.33,0,0,1,1.12.9A5.24,5.24,0,0,1,1331.86,71.46Z"/><path class="cls-12" d="M1337.74,69.42a5.77,5.77,0,0,1-.87-1.3,5.66,5.66,0,0,1-.7-1.4,11.42,11.42,0,0,1,1.57,2.7Z"/><path class="cls-12" d="M1347.44,85.54a9.38,9.38,0,0,1-1.24-.35c-.75-.24-1.79-.56-3-.87s-2.23-.56-3-.73a8.88,8.88,0,0,1-1.25-.31,7.84,7.84,0,0,1,1.28.17c.78.13,1.85.35,3,.67s2.22.65,3,.93A7.45,7.45,0,0,1,1347.44,85.54Z"/><path class="cls-12" d="M1343.71,72.35c0,.06-1.13.17-2.49.49s-2.43.72-2.45.66a8.29,8.29,0,0,1,2.4-.86A7.87,7.87,0,0,1,1343.71,72.35Z"/><path class="cls-12" d="M1325.17,82.41a6,6,0,0,1-1.58-.42,6.55,6.55,0,0,1-1.51-.61,6.06,6.06,0,0,1,1.58.42A6.55,6.55,0,0,1,1325.17,82.41Z"/><path class="cls-12" d="M1322.44,100.67a7.06,7.06,0,0,1-1.15-.54,25.2,25.2,0,0,1-2.61-1.59,26.37,26.37,0,0,1-2.43-1.88,5.87,5.87,0,0,1-.91-.88,10.1,10.1,0,0,1,1,.77c.61.48,1.46,1.14,2.44,1.82s1.9,1.24,2.58,1.64A7.43,7.43,0,0,1,1322.44,100.67Z"/><path class="cls-12" d="M1341.94,106.11a1.2,1.2,0,0,1-.41,0c-.27,0-.65,0-1.13,0a25.56,25.56,0,0,1-3.7-.38,26.2,26.2,0,0,1-3.61-.88c-.45-.15-.82-.28-1.06-.38a1.34,1.34,0,0,1-.38-.17s.57.15,1.48.41a36.21,36.21,0,0,0,3.61.82c1.42.24,2.73.37,3.67.44S1341.94,106.08,1341.94,106.11Z"/><path class="cls-12" d="M1319.14,118.18a2.86,2.86,0,0,1-.77-.3,16,16,0,0,1-1.74-.94,16.4,16.4,0,0,1-1.63-1.12,3,3,0,0,1-.62-.55s1,.7,2.36,1.5S1319.16,118.12,1319.14,118.18Z"/><path class="cls-12" d="M1348,119.64l-.23.06-.64.13c-.56.11-1.38.25-2.39.4a60.33,60.33,0,0,1-8,.59,59.16,59.16,0,0,1-8-.49c-1-.13-1.84-.26-2.4-.36l-.65-.13a.78.78,0,0,1-.22-.06l.23,0,.65.09c.57.08,1.39.19,2.4.3a68.51,68.51,0,0,0,8,.42,67.36,67.36,0,0,0,8-.53c1-.12,1.83-.24,2.4-.33l.65-.09A.8.8,0,0,1,1348,119.64Z"/><path class="cls-12" d="M1322.55,72.92a2.91,2.91,0,0,1-.26.49l-.76,1.28c-.64,1.09-1.51,2.6-2.41,4.31s-1.65,3.27-2.19,4.41l-.63,1.36a3.77,3.77,0,0,1-.25.49,2.84,2.84,0,0,1,.18-.52c.12-.33.32-.81.57-1.39.5-1.16,1.24-2.74,2.14-4.45s1.79-3.21,2.46-4.28c.34-.54.62-1,.82-1.25A3.33,3.33,0,0,1,1322.55,72.92Z"/><path class="cls-13" d="M1330.57,72.69s1.86-1.18,5.72-.31,12.81,9,12.81,9l-.63,1.59S1337.73,72,1330.57,72.69Z"/><path class="cls-13" d="M1349.24,80.59c3.25,1.32,7.51,4.1,8.79,7.37.93,2.34.42,5,.21,7.49s-.1,5.37-.66,8-2,5.23-4.37,6.4a8.26,8.26,0,0,1-6.33,0,8.16,8.16,0,0,1-4.85-4.18c-1.27-2.94-.09-6.3,1.09-9.27q3-7.51,6-15Z"/><path class="cls-13" d="M1330.57,91c.13.43,6.07,9.74,10.91,10.93l1.77-1.27s-8.39-5.63-9.51-9.66Z"/><path class="cls-4" d="M1358.27,93s0,.06,0,.17a.75.75,0,0,1,0,.22,1.1,1.1,0,0,1,0,.31,2.83,2.83,0,0,1-.85,1.7,3.34,3.34,0,0,1-1.1.75,3.82,3.82,0,0,1-1.5.3,6.64,6.64,0,0,1-3.32-1,11.09,11.09,0,0,1-4.36-4.47,10.4,10.4,0,0,1-.73-1.76c-.07-.21-.1-.39-.13-.5s0-.18,0-.18a4.28,4.28,0,0,1,.25.65,12.45,12.45,0,0,0,.78,1.72,11.34,11.34,0,0,0,4.33,4.36,6.57,6.57,0,0,0,3.22,1,3.44,3.44,0,0,0,2.5-1,2.79,2.79,0,0,0,.87-1.6A4,4,0,0,0,1358.27,93Z"/><path class="cls-4" d="M1347.47,109.65l-.19,0a2.94,2.94,0,0,1-.54-.23,4,4,0,0,1-1.5-1.5,6.4,6.4,0,0,1-.77-3.06,24,24,0,0,1,.28-3.86,39,39,0,0,1,1.66-6.81c.3-.85.58-1.52.77-2l.25-.52a.76.76,0,0,1,.1-.18l-.06.19-.21.54c-.18.47-.43,1.15-.71,2A41.88,41.88,0,0,0,1345,101a25.06,25.06,0,0,0-.3,3.82,6.44,6.44,0,0,0,.7,3,4,4,0,0,0,1.42,1.51A6,6,0,0,0,1347.47,109.65Z"/><path class="cls-4" d="M1341.48,103.57c0-2.64,1.08-5.75,2.07-8.2s4.63-11.39,5.55-14l1.69-.1c.31-.49.6-1.06,1.17-1.18a1.34,1.34,0,0,1,1.48.66,2.15,2.15,0,0,1,.12,1,10,10,0,0,1-.22,1.17l1.14.64a3.58,3.58,0,0,0-.09-3.57,2.91,2.91,0,0,0-5.27,1.26"/><polygon class="cls-8" points="1335.01 93.21 1334.28 97.8 1323.82 123.48 1318.38 124.04 1325.04 90.96 1335.01 93.21"/><path class="cls-8" d="M1324.23,121.73v4.4l-.48,1.12.66.94,1.43.28a.8.8,0,0,1-.13,1,1.9,1.9,0,0,1-1.3.31s0,.83-.41,1a2.07,2.07,0,0,1-1,.08s.18.76-.14.89a15,15,0,0,1-2.35.06s-1.64-.08-1.75-.11a10.65,10.65,0,0,1-.62-1.48s-1.32,0-1.3-.78.39-.36.65-1.25.83-4.77.83-4.77l1.11-3.57Z"/><path class="cls-9" d="M1321.88,127s0,.24.14.61a2.83,2.83,0,0,0,2,2c.37.1.61.11.61.14a1.23,1.23,0,0,1-.64,0,2.68,2.68,0,0,1-1.38-.72,2.64,2.64,0,0,1-.72-1.38A1.11,1.11,0,0,1,1321.88,127Z"/><path class="cls-9" d="M1320.26,127.9s.06.24.19.61a3.81,3.81,0,0,0,.77,1.28,3.6,3.6,0,0,0,1.23.85c.35.16.6.21.59.24a1.41,1.41,0,0,1-.64-.1,3.15,3.15,0,0,1-1.33-.85,3.25,3.25,0,0,1-.76-1.38A1.15,1.15,0,0,1,1320.26,127.9Z"/><path class="cls-9" d="M1319,127.92a2.42,2.42,0,0,1,.06.65,7.58,7.58,0,0,0,.22,1.53,3.17,3.17,0,0,0,.76,1.32c.28.27.51.38.49.41a1.07,1.07,0,0,1-.59-.31,2.74,2.74,0,0,1-.86-1.36,5,5,0,0,1-.16-1.59A1.63,1.63,0,0,1,1319,127.92Z"/><path class="cls-9" d="M1318.18,130.24a15.08,15.08,0,0,1-.19-2.6,11.37,11.37,0,0,1,.14-2.61c.06,0,0,1.17.07,2.61A18.55,18.55,0,0,1,1318.18,130.24Z"/><path class="cls-16" d="M1339.6,80.67l-2.71,12.94-13-2.74,2.44-13.13a6.58,6.58,0,0,1,3.29-4.63,6,6,0,0,1,4.32-.57,11,11,0,0,1,1.86.61A6.72,6.72,0,0,1,1339.6,80.67Z"/><path class="cls-4" d="M1334.53,72.69l.12,0,.35.07a6.91,6.91,0,0,1,1.27.48,6.09,6.09,0,0,1,1.74,1.3,6.56,6.56,0,0,1,1.45,2.48,7.15,7.15,0,0,1,.17,3.5c-.25,1.23-.51,2.55-.79,3.95-.56,2.79-1.19,5.88-1.85,9.14l0,.1-.1,0-2.29-.48L1323.83,91l-.08,0v-.08c.26-2.22.55-4.26.89-6.06s.72-3.36,1.08-4.64.69-2.28.93-3l.28-.77.07-.2,0-.07s0,0,0,.07l-.06.21-.26.77c-.21.69-.53,1.69-.87,3s-.71,2.84-1,4.64-.6,3.84-.86,6l-.07-.1L1334.62,93l2.29.47-.12.09c.67-3.26,1.3-6.35,1.87-9.14.28-1.39.55-2.71.81-4a7,7,0,0,0-.15-3.42,6.59,6.59,0,0,0-1.39-2.45,6.14,6.14,0,0,0-1.69-1.3,7.45,7.45,0,0,0-1.25-.51l-.34-.1Z"/><path class="cls-12" d="M1338.12,86.2a2,2,0,0,1-.53,0c-.34,0-.83,0-1.44-.07-1.21-.07-2.88-.23-4.71-.51s-3.48-.62-4.66-.9c-.59-.14-1.07-.27-1.39-.36a1.65,1.65,0,0,1-.5-.17,3.37,3.37,0,0,1,.52.09l1.4.3c1.19.24,2.83.56,4.66.84s3.49.45,4.69.57l1.43.13A3,3,0,0,1,1338.12,86.2Z"/><path class="cls-12" d="M1338.44,75.66s-.63-.18-1.64-.4a16.42,16.42,0,0,0-8,.26c-1,.29-1.59.54-1.61.51a1.64,1.64,0,0,1,.41-.21,10.54,10.54,0,0,1,1.16-.44,15,15,0,0,1,8.11-.26,10.66,10.66,0,0,1,1.19.36A1.68,1.68,0,0,1,1338.44,75.66Z"/><path class="cls-17" d="M1339,191.59l.12.54s-8.4,5.79-8.11,7.57l18.33-4.23-1.55-6.06A11,11,0,0,1,1339,191.59Z"/><g class="cls-11"><path class="cls-12" d="M1346.25,191.81a.78.78,0,0,1,.71.74.73.73,0,0,1-.72.71.81.81,0,0,1-.75-.78.76.76,0,0,1,.83-.66"/></g><g class="cls-11"><path class="cls-12" d="M1349.31,195.47l-.4-1.45-17.42,4.58s-.73.54-.51,1.1Z"/></g><path class="cls-4" d="M1339,192.2c0,.09.48,0,1,.21s.82.51.9.45-.18-.54-.8-.75S1339,192.12,1339,192.2Z"/><path class="cls-4" d="M1337.3,193.44c0,.09.42.15.81.46s.57.69.66.66,0-.54-.46-.91S1337.28,193.35,1337.3,193.44Z"/><path class="cls-4" d="M1336.74,196c.08,0,.11-.48-.24-.91s-.8-.54-.82-.46.29.29.57.65S1336.65,196,1336.74,196Z"/><path class="cls-18" d="M1284.55,186.64l.14,12.86-16,.4c.06-1.53,8.93-4.77,8.93-4.77l-.3-8.63Z"/><g class="cls-11"><path class="cls-12" d="M1281.87,194.27a.65.65,0,0,1,.47.74.63.63,0,0,1-.72.47.69.69,0,0,1-.49-.78.65.65,0,0,1,.8-.41"/></g><g class="cls-11"><path class="cls-12" d="M1284.69,199.5l-.08-1.3-15.31.87s-.71.33-.62.83Z"/></g><path class="cls-4" d="M1277.37,195.28c0,.08.4.1.79.34s.6.57.67.54,0-.49-.53-.77S1277.35,195.21,1277.37,195.28Z"/><path class="cls-4" d="M1275.29,196.06c0,.07.33.2.6.52s.36.67.44.67.11-.45-.23-.85S1275.29,196,1275.29,196.06Z"/><path class="cls-4" d="M1274.42,198c.07,0,.17-.37,0-.8s-.58-.58-.61-.51.2.28.37.63S1274.34,198,1274.42,198Z"/><path class="cls-4" d="M1277.44,193.13c0,.07.39,0,.83,0s.79.15.83.09-.29-.34-.82-.36S1277.4,193.07,1277.44,193.13Z"/><path class="cls-4" d="M1277.11,191.22a1.54,1.54,0,0,0,.8,0,3.25,3.25,0,0,0,.83-.28,3.47,3.47,0,0,0,.46-.25,1,1,0,0,0,.24-.2.34.34,0,0,0,0-.41.43.43,0,0,0-.35-.17.94.94,0,0,0-.3.05,2.6,2.6,0,0,0-.49.18,3.09,3.09,0,0,0-.73.5c-.36.36-.48.65-.45.67s.21-.23.58-.52a2.88,2.88,0,0,1,.7-.42,3.57,3.57,0,0,1,.46-.16c.17-.05.31-.05.36,0s0,0,0,.09a.65.65,0,0,1-.17.15,4.64,4.64,0,0,1-.42.25,4,4,0,0,1-.77.32A4.71,4.71,0,0,0,1277.11,191.22Z"/><path class="cls-4" d="M1277.21,191.33a1.29,1.29,0,0,0,.2-.78,3,3,0,0,0-.13-.88,3.41,3.41,0,0,0-.22-.48.69.69,0,0,0-.52-.39.37.37,0,0,0-.33.23,1.22,1.22,0,0,0-.08.3,1.94,1.94,0,0,0,0,.54,1.83,1.83,0,0,0,.36.82c.32.4.65.49.66.46s-.25-.18-.5-.57a1.67,1.67,0,0,1-.27-.75,1.48,1.48,0,0,1,0-.47c0-.17.08-.3.14-.29s.22.12.29.26a1.9,1.9,0,0,1,.21.43,2.5,2.5,0,0,1,.17.79C1277.25,191,1277.17,191.32,1277.21,191.33Z"/><path class="cls-19" d="M1295.36,179.67l5.56,11.45-14.15,7.15c-.6-1.4,6-8.06,6-8.06l-3.93-7.6Z"/><g class="cls-11"><path class="cls-12" d="M1296.19,187.64a.65.65,0,0,1,.73.46.61.61,0,0,1-.44.73.7.7,0,0,1-.78-.49.65.65,0,0,1,.55-.71"/></g><g class="cls-11"><path class="cls-12" d="M1300.92,191.12l-.61-1.12L1287,197.27s-.49.59-.2,1Z"/></g><path class="cls-4" d="M1292.59,190.45c0,.07.4-.08.85,0s.78.25.83.19-.26-.4-.81-.45S1292.54,190.39,1292.59,190.45Z"/><path class="cls-4" d="M1291.06,192c0,.07.37,0,.76.21s.6.45.67.41-.09-.45-.57-.65S1291,192,1291.06,192Z"/><path class="cls-4" d="M1291.11,194.15c.07,0,0-.41-.38-.7s-.77-.28-.77-.21.3.18.6.42S1291,194.18,1291.11,194.15Z"/><path class="cls-4" d="M1291.74,188.5c.06,0,.33-.21.73-.38s.78-.2.78-.28-.41-.18-.88,0S1291.68,188.46,1291.74,188.5Z"/><path class="cls-4" d="M1290.63,186.92s.31-.06.71-.36a3.85,3.85,0,0,0,.63-.6,4.43,4.43,0,0,0,.29-.42.73.73,0,0,0,.13-.28.31.31,0,0,0-.15-.38.42.42,0,0,0-.38,0,1.35,1.35,0,0,0-.25.17,2.55,2.55,0,0,0-.36.38,2.75,2.75,0,0,0-.44.76,1.28,1.28,0,0,0-.13.78s.1-.29.3-.71a3.5,3.5,0,0,1,.46-.67,2.13,2.13,0,0,1,.34-.33c.13-.12.26-.18.33-.14s0,0,0,.09a.69.69,0,0,1-.09.2c-.09.15-.18.28-.27.41a4.12,4.12,0,0,1-.55.6A7.16,7.16,0,0,0,1290.63,186.92Z"/><path class="cls-4" d="M1290.77,187a1.2,1.2,0,0,0-.16-.78,2.48,2.48,0,0,0-.48-.73,2.66,2.66,0,0,0-.4-.34.66.66,0,0,0-.63-.13.36.36,0,0,0-.2.35.83.83,0,0,0,.06.29,1.8,1.8,0,0,0,.24.48,1.71,1.71,0,0,0,.67.58c.46.23.79.17.79.14a7.53,7.53,0,0,1-.7-.3,1.86,1.86,0,0,1-.56-.56,1.72,1.72,0,0,1-.19-.41c0-.17-.06-.32,0-.33a.48.48,0,0,1,.36.11,2.8,2.8,0,0,1,.37.29,2.88,2.88,0,0,1,.49.64C1290.67,186.69,1290.73,187,1290.77,187Z"/><path class="cls-4" d="M1273.86,131.46l-3.65,23.6,5.36,36.35,10.1-1.44-3.36-32.92,12.1-20.55a14.69,14.69,0,0,0,3.1-3.28,8,8,0,0,0,1.54-4.52l-20.89-2.38Z"/><polygon class="cls-4" points="1291.73 157.93 1297.85 128.56 1283.14 132.05 1279.82 156.39 1289.2 188.24 1299.05 185.2 1291.73 157.93"/><path class="cls-13" d="M1296.85,134s0,0-.06.11l-.19.32-.75,1.23c-.67,1.07-1.62,2.61-2.8,4.49l-4.17,6.65-2.47,3.92a43.33,43.33,0,0,0-2.51,4.28,12,12,0,0,0-.84,2.35,11.65,11.65,0,0,0-.28,2.41,35.41,35.41,0,0,0,.37,4.6c.35,2.93.67,5.57.94,7.8s.46,4,.6,5.25c.07.61.12,1.09.16,1.43l0,.37c0,.09,0,.13,0,.13l0-.12,0-.37-.2-1.43c-.16-1.25-.39-3-.67-5.25s-.61-4.86-1-7.78a35.7,35.7,0,0,1-.38-4.63,11.53,11.53,0,0,1,.28-2.46,12,12,0,0,1,.86-2.39,41.51,41.51,0,0,1,2.52-4.3l2.48-3.91,4.21-6.63,2.85-4.45.79-1.21.21-.31A.51.51,0,0,1,1296.85,134Z"/><path class="cls-3" d="M1276.13,76.28a4.83,4.83,0,0,1-2.28-2.88c-.42-1.19-.61-2.45-1.08-3.62-.35-.87,0-2.26-.75-2.78-1-.65-1-2.37-.59-3.23s1.53-1.63,1.6-1.92c.2-.78-.47-1.62-.22-2.39a1.92,1.92,0,0,1,2-1.55,5.87,5.87,0,0,1,3-2.25c1.59-.41,3.92-.71,5.33.12s2.44,1.38,2.9,2.95"/><path class="cls-20" d="M1288.31,61a1.6,1.6,0,0,1,1.43,1.63h0l-1,21.71c0,2.56-3.78,4-6.53,3.94h0c-2.77-.06-2.86-1.42-2.89-3.86-.06-4.08-.06-5.61-.06-5.58s-3.5-.59-4.21-5.16a48.37,48.37,0,0,1,0-9c.18-2.74,2-6.1,4.73-5.8Z"/><path class="cls-9" d="M1279.3,78.79a11.69,11.69,0,0,0,6.13-1.62s-1.56,3.22-6.13,2.78Z"/><path class="cls-3" d="M1281.77,64.82c.06.17.69.09,1.43.19s1.34.29,1.44.14-.06-.24-.3-.41a2.48,2.48,0,0,0-1.07-.37,2.38,2.38,0,0,0-1.12.13C1281.88,64.61,1281.75,64.74,1281.77,64.82Z"/><path class="cls-3" d="M1276.09,65.37c.11.15.55,0,1.07,0s1,.1,1.06,0,0-.22-.21-.35a1.45,1.45,0,0,0-.87-.24,1.43,1.43,0,0,0-.85.29C1276.1,65.16,1276,65.3,1276.09,65.37Z"/><path class="cls-3" d="M1285.8,58.43a3.13,3.13,0,0,1-3.69,3.09c-.7-.13-1.46-.48-2.07-.11s-.66,1.35-1.22,1.84c-.81.7-2.09,0-3.11.35-.79.23-1.28,1-1.81,1.62a2.17,2.17,0,0,1-2.1,1,9.35,9.35,0,0,1,.31-2.11,3.21,3.21,0,0,1,1.2-1.72,11,11,0,0,0,1-.58c.66-.53.81-1.46,1.21-2.19a3.43,3.43,0,0,1,2.61-1.74,18.82,18.82,0,0,0,2.71,0c.64-.16,1.21-.58,1.87-.71,1.27-.24,2.46.68,3.39,1.59"/><path class="cls-3" d="M1288.21,68.34a.51.51,0,0,1-.2,1c-1.53.35-1.74-2.65-1.39-3.51a8.45,8.45,0,0,1-1.54-1.62,6.34,6.34,0,0,1-.71-3.1,7.35,7.35,0,0,1-2.66-.82c.57-.16,1.75-.53,2-1a3.52,3.52,0,0,1,3-1.75,2.89,2.89,0,0,1,2.6,2.29,4.15,4.15,0,0,1,3.57,2.29,4.82,4.82,0,0,1-.13,4.49,2.28,2.28,0,0,0-.46,1.1A2.61,2.61,0,0,0,1293,69a4.31,4.31,0,0,1,.11,4c-.56,1.25-1,1.69-1.75,1.94-1.56.49.25,3.7-2.34,3.7"/><path class="cls-20" d="M1288.14,69.59a1.33,1.33,0,0,1,1.95-1.13,1.82,1.82,0,0,1,.78,1.84,2.08,2.08,0,0,1-2.86,2C1288,72.24,1288.09,70.73,1288.14,69.59Z"/><path class="cls-9" d="M1288.9,71.28s0,0,.12.08a.52.52,0,0,0,.36,0,1.18,1.18,0,0,0,.59-1,1.59,1.59,0,0,0-.1-.7.56.56,0,0,0-.35-.38.25.25,0,0,0-.29.12c0,.08,0,.13,0,.14a.2.2,0,0,1,0-.17.34.34,0,0,1,.12-.16.31.31,0,0,1,.27-.06.66.66,0,0,1,.48.44,1.67,1.67,0,0,1,.13.78,1.25,1.25,0,0,1-.74,1.16.52.52,0,0,1-.44-.09C1288.9,71.35,1288.89,71.28,1288.9,71.28Z"/><path class="cls-9" d="M1276.61,68.18s-.26.14-.58.06-.53-.26-.5-.31.26,0,.54.11S1276.6,68.12,1276.61,68.18Z"/><path class="cls-9" d="M1284.75,67.5s0,.27-.3.44-.51.19-.52.13.19-.14.4-.3S1284.7,67.46,1284.75,67.5Z"/><path class="cls-9" d="M1282.28,71.89s-.17-.12-.36-.21-.37-.1-.39-.16.22-.16.48,0S1282.34,71.88,1282.28,71.89Z"/><path class="cls-9" d="M1276,66c0,.06-.1.13-.24.16s-.28,0-.29,0,.1-.13.25-.16S1276,65.9,1276,66Z"/><path class="cls-9" d="M1282.82,71.68c-.06,0-.13-.2-.32-.35s-.39-.18-.39-.24.27-.13.52.08S1282.88,71.68,1282.82,71.68Z"/><path class="cls-12" d="M1292.23,67.45s.09-.15.22-.44a3.1,3.1,0,0,0,.25-1.28A2.72,2.72,0,0,0,1292,64a3,3,0,0,0-.92-.67,3.23,3.23,0,0,0-1.18-.26c-.85,0-1.68.09-2.45,0a3.75,3.75,0,0,1-1.87-.75,3.58,3.58,0,0,1-.91-1,1.4,1.4,0,0,1-.21-.45,4.81,4.81,0,0,0,1.21,1.33,3.66,3.66,0,0,0,1.8.68c.74.08,1.55-.06,2.44,0a3.57,3.57,0,0,1,1.26.29,3.07,3.07,0,0,1,1,.72,2.86,2.86,0,0,1,.72,1.88,2.94,2.94,0,0,1-.33,1.32A1.12,1.12,0,0,1,1292.23,67.45Z"/><path class="cls-12" d="M1292.23,61.35a2.25,2.25,0,0,0-1.13-.33,3.85,3.85,0,0,0-1.26.21c-.47.15-1,.38-1.52.56a3.45,3.45,0,0,1-1.64.14,3.4,3.4,0,0,1-1.25-.48,3.31,3.31,0,0,1-.68-.6c-.13-.17-.19-.27-.18-.28a5.67,5.67,0,0,0,.94.75,3.29,3.29,0,0,0,2.75.27c.54-.17,1-.39,1.52-.54a3.65,3.65,0,0,1,1.33-.18,2,2,0,0,1,.87.26C1292.16,61.25,1292.24,61.34,1292.23,61.35Z"/><path class="cls-12" d="M1273.74,59.2a2,2,0,0,0,.32.44,1.8,1.8,0,0,0,1.34.45,3.2,3.2,0,0,0,1.89-1,9.46,9.46,0,0,1,2.14-1.73,2.51,2.51,0,0,1,1.44-.22,3.25,3.25,0,0,1,1.26.48,4.63,4.63,0,0,1,1.5,1.67,10,10,0,0,1,.62,1.38,1.89,1.89,0,0,1,.17.53,4.74,4.74,0,0,1-.24-.5,12.14,12.14,0,0,0-.68-1.33,4.47,4.47,0,0,0-1.47-1.59,3,3,0,0,0-1.19-.44,2.35,2.35,0,0,0-1.32.21,9.51,9.51,0,0,0-2.1,1.68,3.34,3.34,0,0,1-2,1,1.81,1.81,0,0,1-1.4-.55.89.89,0,0,1-.22-.35C1273.75,59.25,1273.73,59.2,1273.74,59.2Z"/><path class="cls-12" d="M1283.25,56.45a1.58,1.58,0,0,1,.55.5,3.92,3.92,0,0,1,.77,1.64,3.82,3.82,0,0,1,0,1.8,1.73,1.73,0,0,1-.29.69,6.59,6.59,0,0,1,.15-.72,4.61,4.61,0,0,0,0-1.73,4.55,4.55,0,0,0-.68-1.59C1283.43,56.67,1283.23,56.47,1283.25,56.45Z"/><path class="cls-21" d="M1279.3,82.27c-.44.59-6.61,14.4-7,15.42s1.91,20.41,1.91,20.41-1.62,10-.3,13.36a12.33,12.33,0,0,1,7.93-1.61c3.87.48,14.13-.53,17.62-.9.74-.08.69-1.55.69-1.55l-5.68-16.49s2.11-14.73,1.67-18.55-7.09-13-7.09-13Z"/><path class="cls-22" d="M1278.5,106.11a3.35,3.35,0,0,1-.59-.62,6.61,6.61,0,0,1-.57-.75,2.93,2.93,0,0,1-.45-1.08,4.15,4.15,0,0,1,.22-2.08,2.14,2.14,0,0,1,.39-.77s-.11.31-.25.81a4.63,4.63,0,0,0-.16,2,3.31,3.31,0,0,0,.41,1c.18.29.37.55.52.76A2.94,2.94,0,0,1,1278.5,106.11Z"/><path class="cls-22" d="M1275.75,100.11c.06,0,.31,1,.74,2.25s.89,2.19.83,2.22a8.4,8.4,0,0,1-1-2.15A8.27,8.27,0,0,1,1275.75,100.11Z"/><path class="cls-22" d="M1276.83,102.59a.63.63,0,0,1-.1-.26,2.21,2.21,0,0,1-.06-.78,2.61,2.61,0,0,1,.37-1.1,2.43,2.43,0,0,1,.44-.54,2.15,2.15,0,0,1,.28-.23l.16-.1.1-.06a.18.18,0,0,1,.18,0,.34.34,0,0,1,.1.22,1.16,1.16,0,0,1,0,.18c0,.13,0,.25,0,.37a3.11,3.11,0,0,1-.07.69,2.59,2.59,0,0,1-.5,1,2.39,2.39,0,0,1-.56.53c-.16.1-.25.14-.26.13a5.28,5.28,0,0,0,.71-.75,2.58,2.58,0,0,0,.42-1,2.72,2.72,0,0,0,.05-.64,1.87,1.87,0,0,0,0-.34.85.85,0,0,0,0-.17c0-.06,0-.11,0-.13h0v0h0l-.06,0-.14.1a2.78,2.78,0,0,0-.27.21,2.67,2.67,0,0,0-.41.49,2.57,2.57,0,0,0-.38,1A5,5,0,0,0,1276.83,102.59Z"/><path class="cls-22" d="M1275.8,101.43s-.09,0-.22-.15a2.28,2.28,0,0,1-.46-.57,2.45,2.45,0,0,1-.32-1,2.58,2.58,0,0,1,.24-1.31l0-.07.07-.14.1.12a6,6,0,0,1,.78,1,2.23,2.23,0,0,1,.3,1,1.17,1.17,0,0,1-.29.91,2.16,2.16,0,0,0,.14-.9,2.07,2.07,0,0,0-.32-.93,7.09,7.09,0,0,0-.76-1l.17,0,0,.07a2.54,2.54,0,0,0-.24,1.21,2.46,2.46,0,0,0,.26,1A6.23,6.23,0,0,0,1275.8,101.43Z"/><path class="cls-22" d="M1276.22,103.55a1.09,1.09,0,0,1-.79,0,1.59,1.59,0,0,1-1-1.58.33.33,0,0,1,.27-.26.46.46,0,0,1,.31.12,4.3,4.3,0,0,1,.37.37,4.49,4.49,0,0,1,.51.69,2,2,0,0,1,.33.72,6.36,6.36,0,0,1-.45-.64,8.07,8.07,0,0,0-.53-.64c-.11-.11-.23-.24-.35-.34s-.23-.1-.26,0a1.15,1.15,0,0,0,.07.47,1.38,1.38,0,0,0,.21.42,1.41,1.41,0,0,0,.61.5A3.52,3.52,0,0,0,1276.22,103.55Z"/><path class="cls-22" d="M1291.2,111.82a3.9,3.9,0,0,1-.39.77,8.77,8.77,0,0,1-.52.79,3,3,0,0,1-.86.79,4.22,4.22,0,0,1-2,.49,2.26,2.26,0,0,1-.86-.11,8.14,8.14,0,0,1,.86,0,4.55,4.55,0,0,0,1.93-.52,3.06,3.06,0,0,0,.82-.73c.22-.27.4-.53.54-.74A3.94,3.94,0,0,1,1291.2,111.82Z"/><path class="cls-22" d="M1286.46,116.43c0-.05.86-.63,1.87-1.45s1.77-1.57,1.81-1.53a7.82,7.82,0,0,1-1.68,1.69A8.55,8.55,0,0,1,1286.46,116.43Z"/><path class="cls-22" d="M1288.44,114.58s-.07.08-.22.19a2.55,2.55,0,0,1-.71.31,2.6,2.6,0,0,1-1.81-.21l-.32-.19-.15-.11a.59.59,0,0,1-.08-.08.2.2,0,0,1,0-.19c.06-.12.13-.13.17-.17l.17-.09a1.68,1.68,0,0,1,.33-.16,2.75,2.75,0,0,1,.67-.17,2.6,2.6,0,0,1,1.15.12,2.69,2.69,0,0,1,.69.36c.15.11.21.19.2.2a4.93,4.93,0,0,0-.93-.42,2.72,2.72,0,0,0-1.09-.07,3,3,0,0,0-.62.17l-.3.15a1.19,1.19,0,0,0-.15.09c-.06,0-.09.08-.11.06h0l.06,0,.13.1a2.29,2.29,0,0,0,.29.18,2.43,2.43,0,0,0,.6.22,2.52,2.52,0,0,0,1.09,0A4.31,4.31,0,0,0,1288.44,114.58Z"/><path class="cls-22" d="M1287.69,115.94a.72.72,0,0,1-.07.26,2.39,2.39,0,0,1-.38.62,2.52,2.52,0,0,1-2.18.86h-.23l.08-.14a6,6,0,0,1,.7-1.07,2.14,2.14,0,0,1,.86-.63,1.16,1.16,0,0,1,1,0,2.08,2.08,0,0,0-.9.17,2.17,2.17,0,0,0-.76.61,5.92,5.92,0,0,0-.67,1.05l-.08-.15h.07a2.56,2.56,0,0,0,1.22-.19,2.53,2.53,0,0,0,.83-.57A6.41,6.41,0,0,0,1287.69,115.94Z"/><path class="cls-22" d="M1289.54,114.83a1,1,0,0,1,.23.77,1.58,1.58,0,0,1-1.14,1.5.3.3,0,0,1-.33-.17.41.41,0,0,1,0-.33,4.12,4.12,0,0,1,.22-.47,5.27,5.27,0,0,1,.48-.72c.31-.38.55-.56.57-.54a7.58,7.58,0,0,1-.45.63,5.7,5.7,0,0,0-.43.72,3.49,3.49,0,0,0-.2.44c0,.16,0,.25.11.23a1,1,0,0,0,.42-.21,1.76,1.76,0,0,0,.33-.34,1.47,1.47,0,0,0,.26-.75A2.77,2.77,0,0,0,1289.54,114.83Z"/><path class="cls-22" d="M1277.83,87a3.19,3.19,0,0,1,.27.82,7,7,0,0,1,.19.92,3.13,3.13,0,0,1,0,1.17,4.18,4.18,0,0,1-1.09,1.78,2.32,2.32,0,0,1-.69.53s.23-.23.58-.63a4.67,4.67,0,0,0,1-1.74,3.12,3.12,0,0,0,.06-1.09c0-.34-.09-.65-.14-.91A3.88,3.88,0,0,1,1277.83,87Z"/><path class="cls-22" d="M1277.74,93.6c-.06,0,.16-1,.3-2.35s.14-2.36.2-2.36a8.29,8.29,0,0,1,0,2.38A7.76,7.76,0,0,1,1277.74,93.6Z"/><path class="cls-22" d="M1277.83,90.9a.55.55,0,0,1,0,.28,2.6,2.6,0,0,1-.28.72,2.56,2.56,0,0,1-.81.84,2.74,2.74,0,0,1-.62.3,2.37,2.37,0,0,1-.36.09l-.18,0h-.12a.19.19,0,0,1-.15-.11.51.51,0,0,1,0-.25c0-.06,0-.12,0-.18a2,2,0,0,1,.12-.34,3,3,0,0,1,.36-.6,2.78,2.78,0,0,1,.89-.73,2.46,2.46,0,0,1,.75-.23.61.61,0,0,1,.28,0,5.57,5.57,0,0,0-1,.37,2.68,2.68,0,0,0-.81.72,3,3,0,0,0-.32.56,1.73,1.73,0,0,0-.11.32.85.85,0,0,0,0,.17c0,.06,0,.12,0,.12h0s0,0,0,0h.08l.17,0a2,2,0,0,0,.33-.08,2.18,2.18,0,0,0,.58-.26,2.56,2.56,0,0,0,.78-.75A5.09,5.09,0,0,0,1277.83,90.9Z"/><path class="cls-22" d="M1278.26,92.39s.07.07.14.23a2.37,2.37,0,0,1,0,1.78,2.61,2.61,0,0,1-.77,1.08l-.06,0-.12.09,0-.15a6.64,6.64,0,0,1-.26-1.25,2.15,2.15,0,0,1,.17-1c.25-.57.65-.72.65-.7a2.2,2.2,0,0,0-.52.75,2.33,2.33,0,0,0-.11,1,7.73,7.73,0,0,0,.27,1.22l-.16-.06.06,0a2.63,2.63,0,0,0,.73-1,2.76,2.76,0,0,0,.18-1A5,5,0,0,0,1278.26,92.39Z"/><path class="cls-22" d="M1278.79,90.29a1.08,1.08,0,0,1,.7.38,1.57,1.57,0,0,1,.26,1.87.32.32,0,0,1-.36.12.52.52,0,0,1-.23-.24c-.07-.18-.12-.33-.17-.49a5.53,5.53,0,0,1-.17-.85,1.8,1.8,0,0,1,0-.79s0,.3.13.77a6.77,6.77,0,0,0,.2.81c0,.15.11.31.17.45s.17.2.25.09a1.08,1.08,0,0,0,.14-.45,1.23,1.23,0,0,0,0-.47,1.51,1.51,0,0,0-.34-.72C1279.08,90.42,1278.77,90.33,1278.79,90.29Z"/><path class="cls-22" d="M1289.43,89.36a3.7,3.7,0,0,1-.46-.73c-.12-.24-.26-.52-.39-.85a3,3,0,0,1-.23-1.15,4.2,4.2,0,0,1,.65-2,2.27,2.27,0,0,1,.54-.68,7.94,7.94,0,0,1-.42.75,4.75,4.75,0,0,0-.56,1.92,3.1,3.1,0,0,0,.2,1.08,8.19,8.19,0,0,0,.35.85A3.4,3.4,0,0,1,1289.43,89.36Z"/><path class="cls-22" d="M1288,82.92c.07,0,.09,1.06.27,2.35s.41,2.33.35,2.34a11.21,11.21,0,0,1-.62-4.69Z"/><path class="cls-22" d="M1288.52,85.57a.68.68,0,0,1,0-.28,2.23,2.23,0,0,1,.11-.77,2.48,2.48,0,0,1,.58-1,3.34,3.34,0,0,1,.54-.44,2.55,2.55,0,0,1,.33-.17l.17-.07.11,0a.19.19,0,0,1,.18.07.42.42,0,0,1,0,.24v.19c0,.12,0,.25,0,.36a2.68,2.68,0,0,1-.21.66,2.54,2.54,0,0,1-.7.92,2.33,2.33,0,0,1-.66.41.87.87,0,0,1-.28.07,7,7,0,0,0,.84-.58,2.94,2.94,0,0,0,.63-.89,3,3,0,0,0,.18-.62,1.87,1.87,0,0,0,0-.34v-.17c0-.06,0-.12,0-.13s0,0,0,0v0h0l-.07,0-.16.06a2.11,2.11,0,0,0-.3.16,2.45,2.45,0,0,0-1.09,1.31A4.56,4.56,0,0,0,1288.52,85.57Z"/><path class="cls-22" d="M1287.75,84.22s-.08,0-.18-.19a1.94,1.94,0,0,1-.33-.65,2.45,2.45,0,0,1-.11-1.08,2.56,2.56,0,0,1,.5-1.23l0-.06.1-.12.07.13a6.39,6.39,0,0,1,.55,1.16,2.35,2.35,0,0,1,.09,1.06,1.15,1.15,0,0,1-.48.83,2,2,0,0,0,.33-.85,2.2,2.2,0,0,0-.12-1,7.65,7.65,0,0,0-.55-1.12l.17,0,0,.06a2.49,2.49,0,0,0-.48,1.13,2.36,2.36,0,0,0,.06,1A5.12,5.12,0,0,0,1287.75,84.22Z"/><path class="cls-22" d="M1287.73,86.38a1.07,1.07,0,0,1-.77-.2,1.58,1.58,0,0,1-.69-1.76.32.32,0,0,1,.32-.2.53.53,0,0,1,.28.18c.11.16.19.3.28.44a4.75,4.75,0,0,1,.36.78,2.18,2.18,0,0,1,.17.77,5.42,5.42,0,0,1-.31-.71,5.38,5.38,0,0,0-.39-.74,3.51,3.51,0,0,0-.27-.4c-.11-.13-.2-.15-.25,0a1,1,0,0,0,0,.48,1.66,1.66,0,0,0,.12.45,1.51,1.51,0,0,0,.5.62A3.22,3.22,0,0,0,1287.73,86.38Z"/><path class="cls-22" d="M1279.43,117.36a3.35,3.35,0,0,1-.59-.62,7.65,7.65,0,0,1-.57-.75,2.93,2.93,0,0,1-.45-1.08,4.15,4.15,0,0,1,.22-2.08,2,2,0,0,1,.39-.77s-.11.31-.25.81a4.63,4.63,0,0,0-.16,2,3.31,3.31,0,0,0,.41,1c.18.29.37.54.52.76A2.94,2.94,0,0,1,1279.43,117.36Z"/><path class="cls-22" d="M1276.68,111.35c.06,0,.31,1,.74,2.26s.89,2.19.83,2.21a8,8,0,0,1-1-2.15A8.2,8.2,0,0,1,1276.68,111.35Z"/><path class="cls-22" d="M1277.76,113.84a.64.64,0,0,1-.1-.27,2.13,2.13,0,0,1-.06-.77,2.61,2.61,0,0,1,.37-1.1,2.43,2.43,0,0,1,.44-.54,2.15,2.15,0,0,1,.28-.23l.16-.11.1,0a.16.16,0,0,1,.18,0c.1.09.08.16.1.22a1.16,1.16,0,0,1,0,.18c0,.12,0,.25,0,.37a3,3,0,0,1-.07.68,2.64,2.64,0,0,1-.5,1,2.39,2.39,0,0,1-.56.53c-.16.1-.25.14-.26.13a5.28,5.28,0,0,0,.71-.75,2.72,2.72,0,0,0,.42-1,2.64,2.64,0,0,0,0-.64,1.84,1.84,0,0,0,0-.33.85.85,0,0,0,0-.17c0-.07,0-.12,0-.13s0,0,0,0a0,0,0,0,0,0,0s0,0,0,0l-.06,0-.14.1a1.78,1.78,0,0,0-.27.21,2.67,2.67,0,0,0-.41.49,2.52,2.52,0,0,0-.38,1A5,5,0,0,0,1277.76,113.84Z"/><path class="cls-22" d="M1276.73,112.68s-.09,0-.22-.15a2.49,2.49,0,0,1-.46-.57,2.45,2.45,0,0,1-.32-1,2.58,2.58,0,0,1,.24-1.31l0-.07.07-.14.1.12a6,6,0,0,1,.78,1,2.36,2.36,0,0,1,.3,1,1.11,1.11,0,0,1-.29.9,2,2,0,0,0-.18-1.82,7.09,7.09,0,0,0-.76-1l.17,0,0,.07a2.51,2.51,0,0,0-.24,1.2,2.47,2.47,0,0,0,.26,1A6.23,6.23,0,0,0,1276.73,112.68Z"/><path class="cls-22" d="M1277.15,114.8a1.16,1.16,0,0,1-.79,0,1.6,1.6,0,0,1-1-1.58.33.33,0,0,1,.27-.26.42.42,0,0,1,.31.12,2.59,2.59,0,0,1,.37.37,4.49,4.49,0,0,1,.51.69,2,2,0,0,1,.33.72,6.36,6.36,0,0,1-.45-.64,6.6,6.6,0,0,0-.53-.64,3.73,3.73,0,0,0-.35-.34c-.13-.1-.23-.11-.26,0a1.15,1.15,0,0,0,.07.47,1.65,1.65,0,0,0,.21.42,1.57,1.57,0,0,0,.61.5A3.52,3.52,0,0,0,1277.15,114.8Z"/><path class="cls-22" d="M1294.58,127.36a3,3,0,0,1-.59-.62,8,8,0,0,1-.57-.75,2.93,2.93,0,0,1-.45-1.08,4.15,4.15,0,0,1,.22-2.08,2.14,2.14,0,0,1,.39-.77s-.11.31-.25.81a4.66,4.66,0,0,0-.16,2,3,3,0,0,0,.42,1c.17.29.36.55.51.76A3.18,3.18,0,0,1,1294.58,127.36Z"/><path class="cls-22" d="M1291.83,121.36c.06,0,.31,1,.74,2.25s.89,2.19.83,2.22a11.35,11.35,0,0,1-1.57-4.47Z"/><path class="cls-22" d="M1292.91,123.84s-.06-.09-.1-.26a2.48,2.48,0,0,1-.06-.78,2.61,2.61,0,0,1,.37-1.1,2.74,2.74,0,0,1,.44-.54,2.15,2.15,0,0,1,.28-.23l.16-.1a.19.19,0,0,1,.1,0,.19.19,0,0,1,.19,0,.37.37,0,0,1,.09.22,1.16,1.16,0,0,1,0,.18c0,.13,0,.25,0,.37a2.61,2.61,0,0,1-.07.69,2.53,2.53,0,0,1-.5,1,2.39,2.39,0,0,1-.56.53c-.16.1-.25.14-.26.13a5.5,5.5,0,0,0,.71-.74,2.71,2.71,0,0,0,.47-1.64,2,2,0,0,0,0-.34,1,1,0,0,0,0-.17c0-.06,0-.11,0-.13h0v0h0l-.06,0-.14.09a3,3,0,0,0-.26.21,2.38,2.38,0,0,0-.42.49,2.73,2.73,0,0,0-.38,1A4.92,4.92,0,0,0,1292.91,123.84Z"/><path class="cls-22" d="M1291.88,122.68s-.09,0-.22-.15a2.17,2.17,0,0,1-.45-.56,2.55,2.55,0,0,1-.33-1,2.6,2.6,0,0,1,.24-1.31l0-.07.07-.14.1.12a6.44,6.44,0,0,1,.78,1,2.26,2.26,0,0,1,.3,1,1.14,1.14,0,0,1-.29.91,2.16,2.16,0,0,0,.14-.9,2.07,2.07,0,0,0-.32-.93,5.9,5.9,0,0,0-.76-1l.17,0,0,.07a2.49,2.49,0,0,0,0,2.19A6.52,6.52,0,0,0,1291.88,122.68Z"/><path class="cls-22" d="M1292.3,124.8a1,1,0,0,1-.79,0,1.59,1.59,0,0,1-1-1.58.33.33,0,0,1,.27-.26.52.52,0,0,1,.32.12c.14.13.25.25.36.37a3.91,3.91,0,0,1,.51.69,2,2,0,0,1,.33.72,5.15,5.15,0,0,1-.45-.64,6.35,6.35,0,0,0-.53-.64c-.11-.11-.23-.24-.35-.34s-.23-.1-.26,0a1.15,1.15,0,0,0,.07.47,1.38,1.38,0,0,0,.21.42,1.41,1.41,0,0,0,.61.5A3.52,3.52,0,0,0,1292.3,124.8Z"/><path class="cls-22" d="M1281.67,109.48a3.94,3.94,0,0,1,.35-.78,7,7,0,0,1,.49-.81,2.93,2.93,0,0,1,.82-.83,4.3,4.3,0,0,1,2-.58,2.24,2.24,0,0,1,.86.08s-.33,0-.85.07a4.71,4.71,0,0,0-1.92.61,3.14,3.14,0,0,0-.78.76c-.2.28-.37.55-.51.77A3.44,3.44,0,0,1,1281.67,109.48Z"/><path class="cls-22" d="M1286.2,104.68s-.83.66-1.81,1.53-1.7,1.64-1.74,1.6a8.24,8.24,0,0,1,1.6-1.76A7.86,7.86,0,0,1,1286.2,104.68Z"/><path class="cls-22" d="M1284.3,106.61a.72.72,0,0,1,.21-.2,2.67,2.67,0,0,1,.7-.34,2.55,2.55,0,0,1,1.16-.07,2.48,2.48,0,0,1,.66.2l.32.17.15.11.09.07a.19.19,0,0,1,0,.19.42.42,0,0,1-.17.18l-.15.1a2.59,2.59,0,0,1-.33.17,2.77,2.77,0,0,1-.66.2,2.71,2.71,0,0,1-1.16-.07,2.44,2.44,0,0,1-.7-.32c-.15-.11-.22-.18-.21-.19a5.48,5.48,0,0,0,1,.37,2.62,2.62,0,0,0,1.09,0,2.86,2.86,0,0,0,.61-.19l.3-.16.14-.1c.06,0,.09-.08.11-.07h0s0,0,0,0l0,0-.14-.1-.3-.17a2.86,2.86,0,0,0-.61-.19,2.58,2.58,0,0,0-1.08,0A5.27,5.27,0,0,0,1284.3,106.61Z"/><path class="cls-22" d="M1285,105.22a.56.56,0,0,1,.06-.26,2.46,2.46,0,0,1,.35-.64,2.53,2.53,0,0,1,2.14-1h.23l-.07.14a5.63,5.63,0,0,1-.66,1.1,2.16,2.16,0,0,1-.82.66,1.12,1.12,0,0,1-1,.07,2,2,0,0,0,.89-.2,2.12,2.12,0,0,0,.74-.65,6.41,6.41,0,0,0,.63-1.08l.08.15h-.07a2.41,2.41,0,0,0-1.21.24,2.61,2.61,0,0,0-.81.61A6.14,6.14,0,0,0,1285,105.22Z"/><path class="cls-22" d="M1283.19,106.4s-.24-.23-.26-.75a1.56,1.56,0,0,1,1.07-1.55.31.31,0,0,1,.34.15.5.5,0,0,1,0,.34,4.32,4.32,0,0,1-.21.48,5.2,5.2,0,0,1-.44.73c-.3.4-.53.59-.55.57s.17-.25.42-.65a5.49,5.49,0,0,0,.4-.74c.06-.14.13-.3.18-.45s0-.25-.12-.22a.94.94,0,0,0-.41.23,1.66,1.66,0,0,0-.31.35,1.49,1.49,0,0,0-.24.76A2.91,2.91,0,0,0,1283.19,106.4Z"/><path class="cls-22" d="M1278,127.4a3,3,0,0,1,.35-.79,7.65,7.65,0,0,1,.48-.8,3.12,3.12,0,0,1,.83-.83,4.29,4.29,0,0,1,2-.58,2,2,0,0,1,.86.08s-.33,0-.85.07a4.57,4.57,0,0,0-1.91.61,2.83,2.83,0,0,0-.78.76,7.25,7.25,0,0,0-.51.77A4,4,0,0,1,1278,127.4Z"/><path class="cls-22" d="M1282.56,122.59s-.84.67-1.81,1.54-1.7,1.64-1.75,1.6a8.2,8.2,0,0,1,1.61-1.76A8.09,8.09,0,0,1,1282.56,122.59Z"/><path class="cls-22" d="M1280.66,124.53s.06-.09.21-.2a2.31,2.31,0,0,1,.69-.34,2.43,2.43,0,0,1,1.16-.07,2.38,2.38,0,0,1,.66.2l.33.17.15.11.09.07a.21.21,0,0,1,0,.19c-.06.12-.12.13-.17.18l-.16.1-.32.17a2.92,2.92,0,0,1-.66.2,2.71,2.71,0,0,1-1.16-.07,2.25,2.25,0,0,1-.71-.33c-.15-.1-.22-.18-.21-.19a5.3,5.3,0,0,0,1,.38,2.76,2.76,0,0,0,1.08,0,2.42,2.42,0,0,0,.61-.2,1.43,1.43,0,0,0,.3-.16l.15-.09s.09-.09.11-.07h0s0,0,0,0l-.15-.1a1.69,1.69,0,0,0-.29-.17,2.9,2.9,0,0,0-.61-.2,2.79,2.79,0,0,0-1.09,0A4.94,4.94,0,0,0,1280.66,124.53Z"/><path class="cls-22" d="M1281.35,123.14a.62.62,0,0,1,.05-.26,2.5,2.5,0,0,1,1.19-1.33,2.66,2.66,0,0,1,1.31-.27h.23l-.07.14a6.26,6.26,0,0,1-.66,1.11,2.26,2.26,0,0,1-.83.66,1.14,1.14,0,0,1-1,.07,2.18,2.18,0,0,0,.89-.2,2.31,2.31,0,0,0,.74-.65,6.82,6.82,0,0,0,.62-1.08l.09.15h-.08a2.46,2.46,0,0,0-1.2.23,2.68,2.68,0,0,0-.81.61A4.52,4.52,0,0,0,1281.35,123.14Z"/><path class="cls-22" d="M1279.54,124.32a1.09,1.09,0,0,1-.26-.75,1.59,1.59,0,0,1,1.07-1.55.32.32,0,0,1,.35.15.44.44,0,0,1,0,.34,4.78,4.78,0,0,1-.65,1.21,2.06,2.06,0,0,1-.54.57,5.47,5.47,0,0,1,.42-.65,6.18,6.18,0,0,0,.4-.74c.06-.14.13-.3.18-.45s0-.25-.12-.23a1.12,1.12,0,0,0-.42.24,1.69,1.69,0,0,0-.31.35,1.58,1.58,0,0,0-.23.76A4.11,4.11,0,0,0,1279.54,124.32Z"/><g class="cls-23"><path d="M1280,87.78c0,.14-.07.29-.1.43-.59,2.91.42,6,2,8.53s3.89,4.91,5.85,7.36a43,43,0,0,1,6.43,11.05c1.51,3.81,2.74,8.2,5.57,11.17-.33-1-1.34-3.9-2.39-6.94-2.29-6.62-5.65-16.62-6.13-19.27Z"/></g><g class="cls-23"><path d="M1293.7,119.62c.11.07.1.41-.13.95a6.13,6.13,0,0,1-1.52,2,10.32,10.32,0,0,1-3.16,1.83,18.64,18.64,0,0,1-4.24,1c-1.49.18-2.88.27-4.1.4a26.48,26.48,0,0,0-3.21.53c-1.78.42-2.82,1-3,.74s.06-.42.48-.82a7.73,7.73,0,0,1,2-1.31,15,15,0,0,1,3.4-1c1.29-.26,2.71-.4,4.14-.58a25.91,25.91,0,0,0,3.89-.7,12.45,12.45,0,0,0,2.89-1.2C1292.72,120.44,1293.42,119.47,1293.7,119.62Z"/></g><path class="cls-9" d="M1304,133.16a6.61,6.61,0,0,0,1.44-.94,2.27,2.27,0,0,0,.77-1.49,3.19,3.19,0,0,0-.35-1.41c-.28-.68-.58-1.34-.9-2-.22-.46-.56-1-1.07-1s-.8.51-1,1a12.9,12.9,0,0,0-.69,2.1"/><path class="cls-20" d="M1282.58,82.68c-2.54,1-4,7.24-1.42,10.64,1.81,2.4,11.75,15.41,11.75,15.41l7.67,17.72,3.07-1.92s-1.19-15.89-2.41-18.33-8.23-14-8.23-14a3.93,3.93,0,0,0,.21-3.34C1292.51,86.93,1286.38,81.09,1282.58,82.68Z"/><path class="cls-20" d="M1300.11,125.15l.82,5.6,3,2.21,5.37-.59s.11-1.15-1-1.09l-3-.27-.74-1.1v-1.74l.27-.63s.89,1.11,1.68,1a1.09,1.09,0,0,0,1-.63l-1.74-1.58-1.58-1.16-.54-.88Z"/><path class="cls-9" d="M1301.36,106.47a1.39,1.39,0,0,1-.23.62,3.24,3.24,0,0,1-1.13,1.11,3.75,3.75,0,0,1-1.5.51,1.23,1.23,0,0,1-.65,0,6.24,6.24,0,0,0,2-.67,3.63,3.63,0,0,0,1.12-1C1301.23,106.69,1301.32,106.46,1301.36,106.47Z"/><path class="cls-20" d="M1300.63,130.79s1.91-2.27,2.54-2.34a.32.32,0,0,1,.34.2.72.72,0,0,1-.07.76l-1,1.44s1.79-2.12,2.3-1.75c.27.2.28.43,0,.81-.52.79-1.54,2-1.54,2a10.07,10.07,0,0,0,1.54-1.43c.36-.45.65-.41.84-.2.62.73-1.5,2.88-1.5,2.88s-1.46.5-1.7,0c-.07-.14-.12-.2-.22-.13s-.92,0-1-.62a.25.25,0,0,0-.14-.2C1300.73,132.07,1300.13,131.7,1300.63,130.79Z"/><path class="cls-9" d="M1300.63,130.79a1,1,0,0,1-.08.21,1,1,0,0,0,0,.61.79.79,0,0,0,.24.35.83.83,0,0,0,.22.14l.13.06a.3.3,0,0,1,.12.13,2.57,2.57,0,0,0,.09.29.51.51,0,0,0,.21.2,1.39,1.39,0,0,0,.65.16h0a.2.2,0,0,1,.19,0,.27.27,0,0,1,.1.12.43.43,0,0,0,.13.16.85.85,0,0,0,.46.07,4.66,4.66,0,0,0,1.06-.22l0,0A10.3,10.3,0,0,0,1305,132a5.47,5.47,0,0,0,.41-.65,1.64,1.64,0,0,0,.23-.72c0-.23-.2-.46-.4-.37s-.38.33-.58.54a10.24,10.24,0,0,1-1.34,1.2l-.75.58.6-.73.34-.4c.34-.42.67-.83,1-1.25a2.07,2.07,0,0,0,.37-.63.24.24,0,0,0,0-.26.5.5,0,0,0-.11-.1.16.16,0,0,0-.12,0,1.43,1.43,0,0,0-.59.32,5.82,5.82,0,0,0-.53.46c-.33.32-.64.65-.92,1l-.15-.11.82-1.13a2.15,2.15,0,0,0,.33-.52.59.59,0,0,0-.07-.52.22.22,0,0,0-.18-.11.48.48,0,0,0-.23.07,2.69,2.69,0,0,0-.43.29q-.39.33-.69.63c-.41.4-.71.73-.92,1a2.61,2.61,0,0,1-.33.33,3.18,3.18,0,0,1,.29-.37c.19-.23.48-.57.88-1,.2-.2.42-.42.69-.65a3.12,3.12,0,0,1,.44-.32.7.7,0,0,1,.3-.09.39.39,0,0,1,.3.17.77.77,0,0,1,.1.66,1.05,1.05,0,0,1-.15.3l-.19.27-.81,1.14-.14-.12q.42-.49.93-1a6.35,6.35,0,0,1,.54-.48,1.74,1.74,0,0,1,.69-.36.35.35,0,0,1,.24,0,.83.83,0,0,1,.17.15.47.47,0,0,1,.09.44,2.29,2.29,0,0,1-.4.7c-.3.43-.63.84-1,1.26l-.34.41-.14-.15a11.58,11.58,0,0,0,1.32-1.17c.19-.2.34-.48.66-.61a.48.48,0,0,1,.49.12.66.66,0,0,1,.18.45,1.8,1.8,0,0,1-.26.81,5.1,5.1,0,0,1-.43.67,10.62,10.62,0,0,1-1,1.12h0a4.37,4.37,0,0,1-1.11.22,1.05,1.05,0,0,1-.54-.11.42.42,0,0,1-.17-.21l0-.07,0,0h0a1.57,1.57,0,0,1-.72-.19.67.67,0,0,1-.24-.26,1.1,1.1,0,0,1-.09-.3c0-.07-.11-.09-.2-.14a1.82,1.82,0,0,1-.23-.15.82.82,0,0,1-.25-.41,1.22,1.22,0,0,1,.2-.84Z"/><path class="cls-9" d="M1287.7,85.53a6.7,6.7,0,0,1,.93.88c.55.57,1.27,1.38,2,2.33s1.36,1.84,1.79,2.51a7.5,7.5,0,0,1,.63,1.11,10.41,10.41,0,0,1-.75-1c-.46-.64-1.09-1.52-1.84-2.46s-1.44-1.77-2-2.36A10.19,10.19,0,0,1,1287.7,85.53Z"/><path class="cls-24" d="M84.48,63,72.81,52.07V49.18l-2.44-6-3.48-.59s-.75.52-.15,1c-.37-.25-1.39-.8-2,.1,0,0-3.79-3.65-4.58-3.52s-1,.49-1,.49L63,45l1.25,1.45-1.65,3L62.54,51l4.35,4.55h0L78.62,69.28a9.47,9.47,0,0,0,7.21,3.33H97.66l1.69-10.27Z"/><path class="cls-25" d="M64.69,49.3a4.81,4.81,0,0,1,.32-.91l0-.08.07,0c.41.31,1,.73,1.64,1.17a4.61,4.61,0,0,0,1.11.61.49.49,0,0,0,.52-.14.63.63,0,0,0,.05-.6,4.77,4.77,0,0,0-.59-1c-.22-.29-.44-.57-.67-.82a5.91,5.91,0,0,0-1.34-1.19,1.38,1.38,0,0,0-1.13-.12c-.27.1-.36.24-.38.22a.25.25,0,0,1,.07-.1.75.75,0,0,1,.28-.2,1.44,1.44,0,0,1,1.24.06,5.55,5.55,0,0,1,1.41,1.19,9.86,9.86,0,0,1,.7.83,5,5,0,0,1,.62,1,.9.9,0,0,1-.08.81.69.69,0,0,1-.75.22,2.1,2.1,0,0,1-.64-.3l-.53-.35A20,20,0,0,1,65,48.46l.1,0A5.85,5.85,0,0,1,64.69,49.3Z"/><path class="cls-25" d="M68.29,48.9a.36.36,0,0,0,.32.1c.21,0,.62,0,.69-.45a2.18,2.18,0,0,0-.43-1.32,6.05,6.05,0,0,0-1.1-1.39,3.22,3.22,0,0,0-1.5-.87,1.73,1.73,0,0,0-1.34.25,1.29,1.29,0,0,0-.5.78c-.05.23,0,.36,0,.36s-.07-.12,0-.37a1.34,1.34,0,0,1,.5-.89,1.79,1.79,0,0,1,1.47-.33,3.31,3.31,0,0,1,1.62.91,5.55,5.55,0,0,1,1.12,1.45,5.86,5.86,0,0,1,.34.73,1.32,1.32,0,0,1,.07.73.64.64,0,0,1-.41.46,1.21,1.21,0,0,1-.45,0,.48.48,0,0,1-.27-.1C68.28,48.94,68.29,48.9,68.29,48.9Z"/><path class="cls-25" d="M69,47.18s.08,0,.2-.09l.21-.14c.07-.05.17-.13.18-.22a1.4,1.4,0,0,0-.14-.81,3.07,3.07,0,0,0-.57-.88,6.77,6.77,0,0,0-1.58-1.15,5.08,5.08,0,0,1-.71-.4,2,2,0,0,1,.79.26A5.31,5.31,0,0,1,69,44.89a2.94,2.94,0,0,1,.61,1,1.53,1.53,0,0,1,.1.93.61.61,0,0,1-.27.28,1.28,1.28,0,0,1-.25.11C69.05,47.21,69,47.19,69,47.18Z"/><path class="cls-25" d="M64.76,45.27s-.13-.05-.23-.23a1.22,1.22,0,0,1-.12-.77,1.31,1.31,0,0,1,.33-.71c.14-.14.25-.19.27-.17s-.31.37-.37.91a1.48,1.48,0,0,0,0,.68C64.73,45.15,64.79,45.25,64.76,45.27Z"/><path class="cls-25" d="M70.15,44.85a1.09,1.09,0,0,1-.86.18,1.32,1.32,0,0,1-.6-.22c-.13-.1-.18-.19-.16-.21a5.78,5.78,0,0,0,.79.2C69.76,44.86,70.13,44.78,70.15,44.85Z"/><path class="cls-25" d="M70.76,47.87s-.23.12-.53.37a3.07,3.07,0,0,0-.86,1.24A7.17,7.17,0,0,0,69,51a2.14,2.14,0,0,1-.13.64,2,2,0,0,1,0-.66,5.55,5.55,0,0,1,.3-1.56,2.76,2.76,0,0,1,1-1.29A1.1,1.1,0,0,1,70.76,47.87Z"/><path class="cls-25" d="M65,50.52c-.06,0-.11-.25-.22-.54s-.22-.51-.17-.56.27.15.38.49S65.05,50.53,65,50.52Z"/><path class="cls-26" d="M116.58,182.15l-2.71,9.38s8.62,5.9,8.29,7.68l-18.37-4.59,3.62-14.79Z"/><path class="cls-3" d="M108.39,189.31a.77.77,0,0,0-.73.73.73.73,0,0,0,.71.73.8.8,0,0,0,.77-.77.77.77,0,0,0-.82-.68"/><g class="cls-11"><path class="cls-12" d="M103.79,194.62l.42-1.48,17.46,5s.73.56.49,1.11Z"/></g><path class="cls-4" d="M114.19,191.51c0,.09-.48,0-1,.2s-.84.49-.91.44.19-.54.81-.75S114.23,191.44,114.19,191.51Z"/><path class="cls-4" d="M115.92,192.79c0,.09-.43.15-.83.45s-.59.68-.67.66,0-.55.48-.92S115.94,192.71,115.92,192.79Z"/><path class="cls-4" d="M116.44,195.37c-.09,0-.1-.48.25-.91s.82-.53.84-.44-.3.28-.59.64S116.53,195.38,116.44,195.37Z"/><path class="cls-4" d="M114.57,189.31c-.06.07-.44-.16-.95-.25s-1,0-1-.12.43-.31,1-.2S114.63,189.25,114.57,189.31Z"/><path class="cls-27" d="M110.14,184.36l-.43,9.75s9.77,3.71,9.87,5.52l-18.94-.15,0-15.22Z"/><path class="cls-3" d="M103.86,193.25a.77.77,0,0,0-.54.88.74.74,0,0,0,.87.54.81.81,0,0,0,.57-.93.78.78,0,0,0-1-.47"/><g class="cls-11"><path class="cls-12" d="M100.64,199.48l.06-1.53,18.14.71s.84.38.74,1Z"/></g><path class="cls-4" d="M110,194c0,.09-.47.13-.92.42s-.71.68-.79.65.06-.57.61-.92S110,193.93,110,194Z"/><path class="cls-4" d="M112,194.86c0,.09-.38.24-.7.63s-.41.8-.5.8-.15-.53.25-1S112,194.77,112,194.86Z"/><path class="cls-4" d="M113.11,197.24c-.09,0-.21-.44,0-1s.68-.7.71-.62-.23.34-.42.76S113.2,197.23,113.11,197.24Z"/><path class="cls-4" d="M109.87,191.79c0,.08-.46,0-1,0s-.93.19-1,.11.34-.4,1-.43S109.92,191.71,109.87,191.79Z"/><path class="cls-4" d="M98.42,113v7.71l2.07,30s-1.28,14.57-2.08,22.79c-.68,7.15.44,19.59.44,19.59H110.9l4.31-41.49,2.68-25.87L122.55,114Z"/><polygon class="cls-4" points="130.79 114.39 127.85 156.26 115.66 187.63 115.1 189.52 107.9 187.78 113.26 113.54 130.79 114.39"/><path class="cls-13" d="M117.86,126.09v.68c0,.46,0,1.12-.06,2-.05,1.7-.17,4.17-.34,7.22-.36,6.09-1,14.5-2.1,23.75s-2.19,17.61-3,23.65c-.43,3-.78,5.46-1,7.16-.12.83-.22,1.48-.28,1.94l-.08.51c0,.11,0,.17,0,.17s0-.06,0-.18l.06-.51c.06-.45.14-1.11.25-1.94.22-1.71.54-4.15.94-7.17.8-6.05,1.92-14.4,3-23.66S116.89,142,117.29,136c.19-3,.34-5.51.42-7.22,0-.84.07-1.5.1-2l0-.51C117.85,126.15,117.86,126.09,117.86,126.09Z"/><path class="cls-13" d="M107.52,113.78a1.8,1.8,0,0,1,0,.44,7,7,0,0,1-.34,1.17,7.73,7.73,0,0,1-6,4.82,6.35,6.35,0,0,1-1.21.08,2,2,0,0,1-.44,0s.64,0,1.63-.2a8,8,0,0,0,5.88-4.72C107.38,114.4,107.48,113.77,107.52,113.78Z"/><path class="cls-13" d="M118.62,115.61a.62.62,0,0,1-.62.62.62.62,0,0,1-.62-.62A.62.62,0,0,1,118,115,.61.61,0,0,1,118.62,115.61Z"/><path class="cls-13" d="M129.22,121.46a3.89,3.89,0,0,1-.85-.8,9.52,9.52,0,0,1-2.28-5.08,3.63,3.63,0,0,1,0-1.16s.06.44.18,1.14a11.43,11.43,0,0,0,.81,2.64,11.32,11.32,0,0,0,1.43,2.36C128.93,121.12,129.24,121.43,129.22,121.46Z"/><path class="cls-13" d="M120.26,114.42a1.92,1.92,0,0,1,0,.5c0,.36-.06.82-.1,1.35-.09,1.15-.24,2.73-.41,4.47-.09.87-.18,1.69-.26,2.45a4.71,4.71,0,0,1-.54,2,2,2,0,0,1-1,.88,1.26,1.26,0,0,1-.38.06h-.13a3.53,3.53,0,0,0,.48-.13,2,2,0,0,0,.94-.88,4.87,4.87,0,0,0,.47-1.91c.08-.76.16-1.59.24-2.46.18-1.74.35-3.31.49-4.45.06-.54.12-1,.17-1.35A2.08,2.08,0,0,1,120.26,114.42Z"/><path class="cls-28" d="M115.45,57.36l4.41-2.2,11.22,4.21,1.6,5.2s4.41,2.61,5.21,4.41,1.6,19.63,1.6,19.63h-7.15l-1.51,15.59.58,10.22-33.94-1.58-.15-3.35a27.94,27.94,0,0,1,.29-4l6.52-31.15L93.72,77,91.91,62.27l18-4.23Z"/><path class="cls-4" d="M133.62,70.84a1.23,1.23,0,0,1,0,.34v1c0,.85-.07,2.08-.17,3.59-.18,3-.51,7.2-.92,11.8s-.84,8.77-1.16,11.78c-.16,1.49-.29,2.71-.39,3.57l-.12,1c0,.22,0,.34,0,.34a1.35,1.35,0,0,1,0-.35l.08-1c.07-.86.18-2.08.32-3.57.28-3,.66-7.19,1.08-11.79s.77-8.77,1-11.79c.11-1.51.18-2.73.23-3.58l0-1Z"/><path class="cls-4" d="M130.36,109.81l-.29,0-.84.08c-.73,0-1.79.13-3.1.16a68.54,68.54,0,0,1-10.22-.49c-2-.25-3.87-.55-5.57-.93a25.55,25.55,0,0,1-4.4-1.37,15.27,15.27,0,0,1-2.72-1.5c-.3-.21-.53-.39-.68-.51a1.85,1.85,0,0,1-.22-.2s.33.24,1,.64a17.75,17.75,0,0,0,2.73,1.42,26.59,26.59,0,0,0,4.39,1.32c1.69.36,3.57.66,5.54.91a75.41,75.41,0,0,0,10.2.55c1.31,0,2.36-.06,3.1-.09l.84,0A1.07,1.07,0,0,1,130.36,109.81Z"/><path class="cls-4" d="M110.16,70.84a9.84,9.84,0,0,0,1.92-1.2,6.29,6.29,0,0,0,1.44-2,7.37,7.37,0,0,0,.7-2.9,6,6,0,0,0-.11-1.54,6.61,6.61,0,0,0-.47-1.36,9,9,0,0,0-1.35-2,12.89,12.89,0,0,0-1.7-1.52s0,0,.15.07a2.17,2.17,0,0,1,.38.24,6.8,6.8,0,0,1,1.28,1.1,8.25,8.25,0,0,1,1.42,2.06,6,6,0,0,1,.51,1.41,6.45,6.45,0,0,1,.11,1.59,7.39,7.39,0,0,1-.73,3,6.23,6.23,0,0,1-1.52,2,6.52,6.52,0,0,1-1.44.88A4.29,4.29,0,0,1,110.16,70.84Z"/><path class="cls-4" d="M126,68.74l-.33-.3c-.22-.2-.52-.51-.89-.9a30.18,30.18,0,0,1-2.82-3.49l.18,0A21,21,0,0,0,121,68.28l-.06.36-.15-.33-.34-.71a65.51,65.51,0,0,1-2.91-7.53c-.31-1-.54-1.79-.69-2.35l-.16-.64a1,1,0,0,1,0-.23.61.61,0,0,1,.08.22l.21.63c.17.55.42,1.34.75,2.32a76,76,0,0,0,3,7.48l.33.71-.21,0A21.11,21.11,0,0,1,121.92,64l.07-.18.11.15a37.34,37.34,0,0,0,2.73,3.53l.85.94A1.71,1.71,0,0,1,126,68.74Z"/><path class="cls-4" d="M132.28,63.67a1.6,1.6,0,0,1,0,.4c0,.26,0,.65,0,1.12a17.79,17.79,0,0,1-.65,3.74l-.17.6-.05-.62a4.74,4.74,0,0,0-.18-1,5.14,5.14,0,0,0-1.17-2h.16a20.27,20.27,0,0,1-2,2c-.27.23-.49.4-.64.52s-.24.17-.25.16.3-.29.81-.77a27.41,27.41,0,0,0,2-2.05l.08-.08.07.08a5,5,0,0,1,1.23,2.11,5.13,5.13,0,0,1,.2,1.08l-.22,0a20.3,20.3,0,0,0,.71-3.69C132.24,64.24,132.25,63.67,132.28,63.67Z"/><path class="cls-4" d="M124.77,78a1.39,1.39,0,0,1,.45,0l1.22.25-.1.07c0-1,0-2.36.1-3.87s.11-2.94.17-3.94c0-.51,0-.92.07-1.2a1.26,1.26,0,0,1,.06-.43,2.5,2.5,0,0,1,0,.44c0,.28,0,.69,0,1.19,0,1,0,2.41-.09,4s-.11,2.87-.16,3.87v.1l-.09,0c-.51-.12-.93-.23-1.21-.31A2.23,2.23,0,0,1,124.77,78Z"/><path class="cls-4" d="M125.61,70.85h0s0,0,.08,0A.45.45,0,0,1,126,71a.54.54,0,0,1,.12.51.54.54,0,0,1-.53.37.51.51,0,0,1-.44-.2.48.48,0,0,1-.08-.41.56.56,0,0,1,.36-.43l0,.1h0l0-.1a.25.25,0,0,1,.16,0v0s0,0,0,0h0v0l-.13.08,0-.1h0l0,.1a.52.52,0,0,0-.23.36.3.3,0,0,0,.34.35.33.33,0,0,0,.33-.2.41.41,0,0,0,0-.36.4.4,0,0,0-.19-.18s0,0-.08,0S125.61,70.86,125.61,70.85Z"/><g class="cls-23"><path d="M115.14,57.4a221.86,221.86,0,0,0,8,22.95,8.77,8.77,0,0,1,1,4.64l-4.08.1c-.07,1.28,0,5.73,0,5.73l6.21-.57-.52-8.36-5-12.76-4.8-12Z"/></g><polygon class="cls-4" points="116.57 56.8 125.25 81.31 126.36 81.31 132.68 64.57 133.54 65.11 126.69 82.63 125.06 82.63 115.45 57.36 116.57 56.8"/><rect class="cls-3" x="125.01" y="82.63" width="1.7" height="4.21"/><rect class="cls-22" x="120.85" y="85.3" width="9.82" height="5.91"/><path class="cls-4" d="M130.67,91.21s0-.16,0-.43,0-.69,0-1.19c0-1,0-2.51,0-4.29l.09.09-9.82,0,.12-.12h0v5.88l-.11-.1,7,0,2,0,.54,0H130l-2,0-7.11,0h-.1v-.1c0-.91,0-1.86,0-2.85v-3h0c-.1.1.14-.13.11-.11l9.82,0h.09v.08c0,1.81,0,3.29,0,4.34,0,.49,0,.88,0,1.17A2.78,2.78,0,0,1,130.67,91.21Z"/><path class="cls-4" d="M123.22,88.35h.4V89a1.22,1.22,0,0,1-.67.2.83.83,0,1,1,0-1.66.88.88,0,0,1,.7.29l-.29.26a.48.48,0,0,0-.38-.18.46.46,0,0,0,0,.92.54.54,0,0,0,.25-.06Z"/><path class="cls-4" d="M123.89,88.47v-.89h.45v.87c0,.28.11.39.3.39s.3-.11.3-.39v-.87h.45v.89a.75.75,0,0,1-1.5,0Z"/><path class="cls-4" d="M125.69,87.58h.45v1.6h-.45Z"/><path class="cls-4" d="M126.46,87.58h.75a.8.8,0,1,1,0,1.6h-.75Zm.74,1.24a.44.44,0,1,0,0-.88h-.29v.88Z"/><path class="cls-4" d="M129.62,88.83v.35h-1.28v-1.6h1.25v.35h-.8v.27h.7v.34h-.7v.29Z"/><g class="cls-23"><path d="M126.74,69.34a4.1,4.1,0,0,0,3-1.77,5,5,0,0,0,.91,2.25,2,2,0,0,0,.65-2.11,5.91,5.91,0,0,0-1.1-2C129,66.76,128,67.9,126.74,69"/></g><path class="cls-24" d="M119.54,57.2l2.85,6.35,4.3,5.31,3.23-3.58.43-3.91.36-3.27s4.41-.14,5-4.47c.28-2.08.51-6.43.68-10.37a8.13,8.13,0,0,0-7.13-8.41l-.42-.05c-4.53-.29-7.32,3.4-7.48,7.94L119.54,57.2"/><path class="cls-25" d="M130.71,58.1a10.22,10.22,0,0,1-5.45-2.3s.95,3.28,5.32,3.42Z"/><path class="cls-24" d="M121.32,46c-.07,0-2.87-1.24-3.14,1.73A2.24,2.24,0,0,0,121,50.26C121,50.18,121.32,46,121.32,46Z"/><path class="cls-25" d="M120.16,49.06s-.06,0-.15.06a.55.55,0,0,1-.39,0,1.29,1.29,0,0,1-.49-1.2,1.73,1.73,0,0,1,.22-.73.58.58,0,0,1,.42-.36.26.26,0,0,1,.29.17c0,.09,0,.14,0,.15s.07,0,0-.17a.29.29,0,0,0-.1-.2.41.41,0,0,0-.28-.1.75.75,0,0,0-.58.41,1.68,1.68,0,0,0-.25.82,1.35,1.35,0,0,0,.63,1.35.57.57,0,0,0,.48,0A.26.26,0,0,0,120.16,49.06Z"/><path class="cls-4" d="M137.49,38.27a1.52,1.52,0,0,0-1-1.35,1.36,1.36,0,0,0-1.92-1.83,1.4,1.4,0,0,0-1.73-1.47,1.18,1.18,0,0,0-2.11-.9,2,2,0,0,0-3.1-.64,2.58,2.58,0,0,0-3.29,1A2.46,2.46,0,0,0,122,34.48a1.81,1.81,0,0,0-1.67,2.64,1.33,1.33,0,0,0-.53,2.05,1.34,1.34,0,0,0-.87,1.1,1.33,1.33,0,0,0,.62,1.25c-.45,0-.69.56-.61,1a11.66,11.66,0,0,0,.47,1.24c.1.35.1.72.18,1.08a2.33,2.33,0,0,0,1.22,1.56l-.09.08c-.12.37.37.7.75.59a1.9,1.9,0,0,0,.87-.75,4.58,4.58,0,0,0,.77-1.09,1,1,0,0,0-.27-1.22,1.54,1.54,0,0,0,1.09-1.1,4.62,4.62,0,0,0,.11-1.62c-.05-.8-.09-1.6-.13-2.39a3,3,0,0,0,2.76-1.37,1.7,1.7,0,0,0,2.53-.3,2.22,2.22,0,0,0,2.52,1.7c-.2.6.83,1.3,1.42,1.54a2.23,2.23,0,0,0,1.39-.1s1,.74,1.55.59,1.43-.78,1.13-1.41A2.76,2.76,0,0,0,137.49,38.27Z"/><path class="cls-13" d="M119.65,39.14a1,1,0,0,0,.25.42.57.57,0,0,0,.47.15.62.62,0,0,0,.47-.39l.06-.17.12.14a.77.77,0,0,0,1.35-.5v-.18l.16.09a.77.77,0,0,0,1-.21c.17-.23.17-.42.2-.41s.07.19-.1.48a.86.86,0,0,1-.45.37.94.94,0,0,1-.75,0l.15-.09a1,1,0,0,1-1.72.63l.18,0a.79.79,0,0,1-.65.49.67.67,0,0,1-.58-.23C119.57,39.37,119.64,39.13,119.65,39.14Z"/><path class="cls-13" d="M118.85,41.92a1.6,1.6,0,0,0,.31.17.73.73,0,0,0,.78-.23l.07-.09.07.09a.8.8,0,0,0,.73.31.77.77,0,0,0,.64-.62l0-.2.15.13a.57.57,0,0,0,.13.08.54.54,0,0,0,.62-.13.55.55,0,0,0,.1-.58l-.09-.2.21.06a1,1,0,0,0,.7-.08.94.94,0,0,0,.39-.41,2.27,2.27,0,0,0,.13-.51s.11.2,0,.55a1,1,0,0,1-.41.51,1.08,1.08,0,0,1-.84.13l.11-.14a.75.75,0,0,1-1,1,.57.57,0,0,1-.18-.12l.18-.07a1,1,0,0,1-.84.8,1,1,0,0,1-.89-.42h.14a.8.8,0,0,1-.52.28.83.83,0,0,1-.44-.07C118.9,42.07,118.84,41.93,118.85,41.92Z"/><path class="cls-13" d="M132.48,33.49a.92.92,0,0,0-.31-.23.62.62,0,0,0-.43,0,.65.65,0,0,0-.42.38l-.06.17-.07-.17a1.08,1.08,0,0,0-.85-.62,1.05,1.05,0,0,0-1.07.62l-.08.19-.1-.18a1.37,1.37,0,0,0-1-.62,1.31,1.31,0,0,0-1.13.46,1.35,1.35,0,0,0-.24.46l0,.12-.11,0a1.27,1.27,0,0,0-1.49.49,1.3,1.3,0,0,0,0,1.41l.1.13h-.16a1.41,1.41,0,0,0-1.31,1.21,2.31,2.31,0,0,0,.07.74.41.41,0,0,1-.09-.18,1.25,1.25,0,0,1-.08-.57,1.45,1.45,0,0,1,.34-.84,1.54,1.54,0,0,1,1.06-.54L125,36a1.45,1.45,0,0,1,1.68-2.21l-.15.08a1.57,1.57,0,0,1,.29-.54,1.46,1.46,0,0,1,1.32-.53,1.5,1.5,0,0,1,1.12.73h-.19a1.25,1.25,0,0,1,1.29-.72,1.23,1.23,0,0,1,.95.75h-.13a.77.77,0,0,1,.52-.44.64.64,0,0,1,.49.07.75.75,0,0,1,.24.2C132.48,33.45,132.49,33.49,132.48,33.49Z"/><path class="cls-24" d="M133.27,98.94s.66,2.24,2.22,2,13.2-7.36,13.2-7.36V88.06l-10.56,2.15.2-1.6h-5.05Z"/><path class="cls-24" d="M154.1,90s-2.75-1.93-4.08-1.93a11.51,11.51,0,0,0-2,.13l.66,5.34,1.9,1s1.08,2,1.65,2,1.07-.14,1.07-.64a4.34,4.34,0,0,0-.36-1.31s3.15,2.67,3.94,2.88.86-.71.86-.71A9.1,9.1,0,0,0,159.66,98c1.3,0,.31-1.46.31-1.46s1.21,1.29,2,1.08a.61.61,0,0,0,.47-.61,1,1,0,0,0-.41-.83Z"/><path class="cls-25" d="M153.29,96s0,.16-.19.3a1.33,1.33,0,0,1-1,.23,1.21,1.21,0,0,1-.64-.3,3,3,0,0,1-.46-.65c-.26-.49-.43-1.07-.73-1.6a4.3,4.3,0,0,0-1.18-1.22,3,3,0,0,1-1-1.12,1.4,1.4,0,0,1-.09-1c.08-.23.19-.32.2-.31a3.31,3.31,0,0,0-.11.33,1.43,1.43,0,0,0,.14.9,2.94,2.94,0,0,0,.94,1,4.25,4.25,0,0,1,1.25,1.28c.31.57.48,1.14.72,1.61a2.58,2.58,0,0,0,.4.61,1.15,1.15,0,0,0,.54.29,1.32,1.32,0,0,0,.89-.15C153.25,96.08,153.27,96,153.29,96Z"/><path class="cls-25" d="M151.45,91.25a8,8,0,0,1,1.21,2.26,7.85,7.85,0,0,1,.6,2.5c-.07,0-.31-1.11-.81-2.42S151.39,91.28,151.45,91.25Z"/><path class="cls-25" d="M157,92.93A2.55,2.55,0,0,1,155.77,94a2.52,2.52,0,0,1-1.59.37,15.89,15.89,0,0,0,1.49-.57A12.94,12.94,0,0,0,157,92.93Z"/><path class="cls-25" d="M160.21,96.64a13.35,13.35,0,0,1-2.08-1.42,14.31,14.31,0,0,1-1.94-1.6A13.35,13.35,0,0,1,158.27,95,15.13,15.13,0,0,1,160.21,96.64Z"/><path class="cls-25" d="M157.75,96.66a5.6,5.6,0,0,1-1.47-1.06,5.91,5.91,0,0,1-1.23-1.34,11.2,11.2,0,0,1,1.38,1.17A10.58,10.58,0,0,1,157.75,96.66Z"/><path class="cls-25" d="M135.64,94.7a1.64,1.64,0,0,1-.07-.79,4.51,4.51,0,0,1,1.81-3.29,1.88,1.88,0,0,1,.71-.37s-.25.18-.61.49a5.6,5.6,0,0,0-1.17,1.43,5.32,5.32,0,0,0-.58,1.75C135.66,94.39,135.67,94.7,135.64,94.7Z"/><path class="cls-12" d="M1344,58.52l2.25-4a10.6,10.6,0,1,1,2.54,2.83h0Z"/><path class="cls-4" d="M1344,58.52l4.79-1.15,0,0h0l-.13-.18.17.14a11.11,11.11,0,0,0,2.17,1.29,10.38,10.38,0,0,0,2.89.81,9.21,9.21,0,0,0,1.67.08c.29,0,.58,0,.87,0l.89-.13a10.9,10.9,0,0,0,3.54-1.4,10.62,10.62,0,0,0,3-2.83,10.33,10.33,0,0,0,1.77-4.06,10.65,10.65,0,0,0-.12-4.66,10.34,10.34,0,0,0-2.25-4.31l-.43-.47c-.14-.16-.31-.29-.46-.44a6.12,6.12,0,0,0-.48-.41l-.5-.38a4.72,4.72,0,0,0-.52-.35l-.53-.32-.56-.27a4.58,4.58,0,0,0-.56-.25,10.68,10.68,0,0,0-4.7-.72,10.3,10.3,0,0,0-4.32,1.27,10.76,10.76,0,0,0-3.2,2.72,10.65,10.65,0,0,0-1.8,3.4,11.31,11.31,0,0,0-.47,3.42,10.4,10.4,0,0,0,.51,3,10.19,10.19,0,0,0,1,2.27v0h0c-1.46,2.53-2.17,3.78-2.27,4l2.22-4v0a10.5,10.5,0,0,1-1.07-2.28,10.84,10.84,0,0,1-.52-3,11.44,11.44,0,0,1,.47-3.44,10.72,10.72,0,0,1,5-6.2,10.48,10.48,0,0,1,4.36-1.28,10.74,10.74,0,0,1,4.75.73,4.11,4.11,0,0,1,.57.25l.56.27.54.33a3.64,3.64,0,0,1,.52.35l.51.38a4.81,4.81,0,0,1,.48.42,4.89,4.89,0,0,1,.47.44l.43.47a10.45,10.45,0,0,1,2.27,4.36,10.77,10.77,0,0,1,.13,4.72,10.56,10.56,0,0,1-1.79,4.09,10.83,10.83,0,0,1-3.05,2.85,10.62,10.62,0,0,1-3.57,1.4l-.9.14-.88,0a9.27,9.27,0,0,1-1.68-.09,10.36,10.36,0,0,1-2.9-.83,10.57,10.57,0,0,1-2.19-1.31l0,0h0l0,0h0Z"/><path class="cls-4" d="M1357.47,50.84h-1.38a1.17,1.17,0,0,1-1.2,1.18,1.13,1.13,0,0,1-1.08-.71,1.27,1.27,0,0,1,.1-1.12,1.51,1.51,0,0,1,1.67-.57v-3.1h-1.36v1.82a2.65,2.65,0,0,0-1.9,2.59,2.47,2.47,0,0,0,2.57,2.48A2.36,2.36,0,0,0,1357.47,50.84Z"/><rect class="cls-4" x="1354.21" y="44.6" width="1.38" height="1.29" transform="translate(2709.79 90.48) rotate(180)"/><path class="cls-12" d="M110.65,52.2l-2.58-4.56a12.21,12.21,0,1,0-2.93,3.26h0Z"/><path class="cls-4" d="M110.65,52.2l-5.52-1.27h0l0,0h0l0,0a12.45,12.45,0,0,1-2.51,1.51,12.27,12.27,0,0,1-3.35,1,10.2,10.2,0,0,1-1.93.09c-.33,0-.67,0-1,0l-1-.16a12.26,12.26,0,0,1-4.11-1.61,12.39,12.39,0,0,1-3.51-3.28,12.06,12.06,0,0,1-2.06-4.71,12.47,12.47,0,0,1,.14-5.43,12,12,0,0,1,2.62-5l.49-.55c.17-.19.36-.34.54-.51s.35-.34.55-.48l.59-.44c.19-.15.4-.27.6-.4l.62-.37.65-.32a5.51,5.51,0,0,1,.66-.29A12.48,12.48,0,0,1,98.57,29a12.08,12.08,0,0,1,5,1.48,12.38,12.38,0,0,1,5.79,7.13,13.31,13.31,0,0,1,.53,4,12,12,0,0,1-.6,3.43,12.37,12.37,0,0,1-1.22,2.63v0c1.64,2.94,2.46,4.39,2.56,4.58-.11-.19-.93-1.63-2.61-4.54v0a12.68,12.68,0,0,0,1.2-2.61,11.91,11.91,0,0,0,.58-3.41,13.14,13.14,0,0,0-.54-3.93,12.07,12.07,0,0,0-2.07-3.92,12.24,12.24,0,0,0-3.68-3.13,11.74,11.74,0,0,0-5-1.46,12.26,12.26,0,0,0-5.41.83,5.24,5.24,0,0,0-.64.29l-.64.31-.62.37c-.2.13-.41.25-.6.4l-.58.43c-.19.14-.36.32-.54.48s-.37.32-.53.5l-.5.54a12,12,0,0,0-2.58,5,12.21,12.21,0,0,0-.15,5.37,11.94,11.94,0,0,0,2,4.67,12.14,12.14,0,0,0,3.47,3.25,12,12,0,0,0,4.07,1.61l1,.16,1,.06a12.06,12.06,0,0,0,1.92-.09,12.22,12.22,0,0,0,3.33-.94,12.61,12.61,0,0,0,2.5-1.49l.19-.15-.15.2h0l0-.05Z"/><path class="cls-4" d="M95,41.25a1,1,0,1,1-1-1A1,1,0,0,1,95,41.25Z"/><path class="cls-4" d="M99,41.25a1,1,0,1,1-1-1A1,1,0,0,1,99,41.25Z"/><path class="cls-4" d="M103,40.75a1,1,0,1,1-1.36-.36A1,1,0,0,1,103,40.75Z"/></svg>