<svg xmlns="http://www.w3.org/2000/svg" xmlns:xlink="http://www.w3.org/1999/xlink" viewBox="0 0 1400 201.42"><defs><style>.cls-1{isolation:isolate;}.cls-2{fill:#eefbff;}.cls-3{fill:#f7a491;}.cls-4{fill:#f7cc7f;}.cls-5{fill:#f48c7f;}.cls-6{fill:#f79c8d;}.cls-7{fill:#9bc1f9;}.cls-8{fill:#f47458;}.cls-9{fill:#fae0b2;}.cls-10{fill:#86b1f2;}.cls-11{fill:#3c8f7c;}.cls-12{fill:#355389;}.cls-13{fill:#50bfa5;}.cls-14{fill:#96d9c9;}.cls-15{fill:url(#linear-gradient);}.cls-16{fill:url(#linear-gradient-2);}.cls-17{fill:#466eb6;}.cls-18{fill:#13375b;}.cls-19{fill:#184655;}.cls-20{fill:#f8a492;}.cls-21{fill:#b75742;}.cls-22{fill:#07345a;}.cls-23{fill:#fed333;}.cls-24{fill:url(#linear-gradient-3);}.cls-25,.cls-57{fill:#fff;}.cls-26{fill:url(#linear-gradient-4);}.cls-27{fill:url(#linear-gradient-5);}.cls-28{fill:url(#linear-gradient-6);}.cls-29{fill:url(#linear-gradient-7);}.cls-30{fill:url(#linear-gradient-8);}.cls-31{fill:url(#linear-gradient-9);}.cls-32{fill:url(#linear-gradient-10);}.cls-33{fill:url(#linear-gradient-11);}.cls-34{fill:url(#linear-gradient-12);}.cls-35{fill:url(#linear-gradient-13);}.cls-36{fill:url(#linear-gradient-14);}.cls-37{fill:url(#linear-gradient-15);}.cls-38{fill:url(#linear-gradient-16);}.cls-39{fill:url(#linear-gradient-17);}.cls-40{fill:url(#linear-gradient-18);}.cls-41{fill:url(#linear-gradient-19);}.cls-42{fill:url(#linear-gradient-20);}.cls-43{fill:url(#linear-gradient-21);}.cls-44{fill:url(#linear-gradient-22);}.cls-45{fill:url(#linear-gradient-23);}.cls-46{fill:url(#linear-gradient-24);}.cls-47{fill:url(#linear-gradient-25);}.cls-48{fill:url(#linear-gradient-26);}.cls-49{fill:#b4f9d8;}.cls-50{fill:url(#linear-gradient-27);}.cls-51{fill:url(#linear-gradient-28);}.cls-52{fill:#3dbbe2;}.cls-53{fill:#e1f9ff;}.cls-54{fill:#d7f4ff;}.cls-55{fill:url(#linear-gradient-29);}.cls-56{fill:#bde9ff;}.cls-57{fill-rule:evenodd;}.cls-58,.cls-65{fill:#143c75;}.cls-59{fill:#31599b;}.cls-60{fill:#65bcfc;}.cls-61{fill:#33a2e5;}.cls-62{fill:#ffa683;}.cls-63{fill:#04a39f;}.cls-64{fill:#06cccc;}.cls-65{opacity:0.34;mix-blend-mode:multiply;}.cls-66{fill:#37b783;}.cls-67{fill:#ffbf00;}.cls-68{fill:#ff9700;}.cls-69{fill:#ce2955;}</style><linearGradient id="linear-gradient" x1="224.72" y1="187.88" x2="279.17" y2="187.88" gradientUnits="userSpaceOnUse"><stop offset="0" stop-color="#146735"/><stop offset="1" stop-color="#429440"/></linearGradient><linearGradient id="linear-gradient-2" x1="188.15" y1="190.11" x2="238.61" y2="190.11" xlink:href="#linear-gradient"/><linearGradient id="linear-gradient-3" x1="149.31" y1="71.76" x2="169.92" y2="71.76" xlink:href="#linear-gradient"/><linearGradient id="linear-gradient-4" x1="156.48" y1="69.79" x2="162.83" y2="69.79" xlink:href="#linear-gradient"/><linearGradient id="linear-gradient-5" x1="157.23" y1="77.07" x2="159.56" y2="77.07" xlink:href="#linear-gradient"/><linearGradient id="linear-gradient-6" x1="159.89" y1="76.73" x2="160.4" y2="76.73" xlink:href="#linear-gradient"/><linearGradient id="linear-gradient-7" x1="160.74" y1="77.02" x2="162.22" y2="77.02" xlink:href="#linear-gradient"/><linearGradient id="linear-gradient-8" x1="162.06" y1="103.24" x2="182.64" y2="103.24" xlink:href="#linear-gradient"/><linearGradient id="linear-gradient-9" x1="172.28" y1="103.24" x2="173.14" y2="103.24" xlink:href="#linear-gradient"/><linearGradient id="linear-gradient-10" x1="166.37" y1="99.52" x2="175.2" y2="99.52" xlink:href="#linear-gradient"/><linearGradient id="linear-gradient-11" x1="170.97" y1="103.56" x2="178.76" y2="103.56" xlink:href="#linear-gradient"/><linearGradient id="linear-gradient-12" x1="46.63" y1="62.75" x2="67.22" y2="62.75" xlink:href="#linear-gradient"/><linearGradient id="linear-gradient-13" x1="53.92" y1="63.18" x2="54.61" y2="63.18" xlink:href="#linear-gradient"/><linearGradient id="linear-gradient-14" x1="59.43" y1="63.18" x2="60.12" y2="63.18" xlink:href="#linear-gradient"/><linearGradient id="linear-gradient-15" x1="52.25" y1="59.5" x2="56.11" y2="59.5" xlink:href="#linear-gradient"/><linearGradient id="linear-gradient-16" x1="57.88" y1="59.93" x2="61.59" y2="59.93" xlink:href="#linear-gradient"/><linearGradient id="linear-gradient-17" x1="119.69" y1="55.21" x2="140.27" y2="55.21" xlink:href="#linear-gradient"/><linearGradient id="linear-gradient-18" x1="126.73" y1="60.23" x2="127.81" y2="60.23" xlink:href="#linear-gradient"/><linearGradient id="linear-gradient-19" x1="129.3" y1="60.09" x2="131.09" y2="60.09" xlink:href="#linear-gradient"/><linearGradient id="linear-gradient-20" x1="131.24" y1="60.41" x2="133.88" y2="60.41" xlink:href="#linear-gradient"/><linearGradient id="linear-gradient-21" x1="126.7" y1="55.16" x2="133.83" y2="55.16" xlink:href="#linear-gradient"/><linearGradient id="linear-gradient-22" x1="131.45" y1="54.56" x2="135.48" y2="54.56" xlink:href="#linear-gradient"/><linearGradient id="linear-gradient-23" x1="128.49" y1="49.85" x2="129.69" y2="49.85" xlink:href="#linear-gradient"/><linearGradient id="linear-gradient-24" x1="130.31" y1="49.85" x2="131.51" y2="49.85" xlink:href="#linear-gradient"/><linearGradient id="linear-gradient-25" x1="85.49" y1="53.47" x2="106.09" y2="53.47" xlink:href="#linear-gradient"/><linearGradient id="linear-gradient-26" x1="88.67" y1="52.53" x2="103.52" y2="52.53" xlink:href="#linear-gradient"/><linearGradient id="linear-gradient-27" x1="1206.95" y1="113.4" x2="1290.04" y2="113.4" gradientTransform="translate(2497 226.81) rotate(180)" xlink:href="#linear-gradient"/><linearGradient id="linear-gradient-28" x1="1207.09" y1="113.4" x2="1290.04" y2="113.4" xlink:href="#linear-gradient"/><linearGradient id="linear-gradient-29" x1="1232.52" y1="49.67" x2="1266.78" y2="49.67" xlink:href="#linear-gradient"/></defs><g class="cls-1"><g id="Layer_1" data-name="Layer 1"><rect class="cls-2" width="1400" height="198"/><polygon class="cls-3" points="22.31 97.75 21.42 99.45 19.18 98.87 18.45 100.81 18.96 101.86 19.7 99.89 21.86 100.45 22.8 98.65 24.48 98.8 24.56 97.95 22.31 97.75"/><polygon class="cls-4" points="23.47 91.24 22.75 88.03 20.32 88.25 19.5 85.1 17.12 84.96 16.2 82.68 15.3 83.1 16.53 86.15 18.79 86.28 19.64 89.56 22.03 89.34 22.69 92.25 23.47 91.24"/><path class="cls-5" d="M212.1,125.31a2.21,2.21,0,0,1,.82-1.69,1.7,1.7,0,0,1,2.42.25c.69.83.77,2.42-.41,4.84-2.6.72-4.14.34-4.84-.49a1.69,1.69,0,0,1,.21-2.42A2.18,2.18,0,0,1,212.1,125.31Z"/><path class="cls-5" d="M206,131a21.64,21.64,0,0,0,2.15-1.43c.21-.15.62-.36.63-.65a.29.29,0,0,0-.23-.3c-.28-.05-.54.25-.75.4-.64.48-1.38,1-2.16,1.46a.32.32,0,1,0,.36.52Z"/><path class="cls-5" d="M217.84,124.64l.92-.68a3.46,3.46,0,0,0,.88-.73.28.28,0,0,0-.31-.43,3.69,3.69,0,0,0-1,.64c-.3.22-.61.45-.91.69a.32.32,0,0,0,.37.51Z"/><path class="cls-5" d="M211.77,132.87a4,4,0,0,1,.39-2,.26.26,0,0,0-.43-.27,3,3,0,0,0-.59,2.33.32.32,0,0,0,.63-.07Z"/><path class="cls-5" d="M216.49,131.86a2.89,2.89,0,0,1-.53-1c-.06-.23-.07-1-.5-.84s-.17.86-.08,1.15a3.39,3.39,0,0,0,.59,1.09c.26.32.78,0,.52-.37Z"/><path class="cls-5" d="M217.66,128h.78c.26,0,.56.06.75-.16a.27.27,0,0,0,0-.38c-.18-.19-.54-.11-.78-.11l-.78,0a.32.32,0,0,0-.29.35.33.33,0,0,0,.36.29Z"/><path class="cls-5" d="M208.61,125c-1.81-1.08-1.81-1.1-2-1.13a.28.28,0,0,0-.27.43c.14.2.12.16,2,1.29a.32.32,0,0,0,.43-.16.33.33,0,0,0-.16-.43Z"/><path class="cls-5" d="M211.39,122.91a4.77,4.77,0,0,0-.38-1c-.15-.28-.34-.74-.71-.75a.26.26,0,0,0-.2.15c-.11.31.2.62.33.89a5.87,5.87,0,0,1,.37.9.31.31,0,0,0,.4.18.32.32,0,0,0,.19-.4Z"/><path class="cls-5" d="M215.52,120.24a.28.28,0,0,0-.36-.16c-.27.07-.4.48-.5.72a6,6,0,0,0-.27.85.32.32,0,0,0,.27.36.33.33,0,0,0,.36-.27C215.32,120.66,215.62,120.62,215.52,120.24Z"/><path class="cls-6" d="M35.68,59.7c-.21,1.68,1.54,3,3.1,2.91a3.82,3.82,0,0,0,3.44-3.22A2.83,2.83,0,0,0,39.69,56a2.13,2.13,0,0,0-2.24,2.84c.34,1.07,1.32,1.47,1.81,1.17a.49.49,0,0,0-.11-.91.47.47,0,0,0-.47.21,1.39,1.39,0,0,1-.53-1.7,1.61,1.61,0,0,1,2.42-.6,2.4,2.4,0,0,1,.81,2.94,3.15,3.15,0,0,1-2.63,2,2.44,2.44,0,0,1-2.59-2.23A.24.24,0,0,0,35.68,59.7Z"/><path class="cls-7" d="M188.92,113c-.21,1.68,1.54,3,3.1,2.91a3.83,3.83,0,0,0,3.44-3.22,2.83,2.83,0,0,0-2.53-3.44,2.14,2.14,0,0,0-2.25,2.84c.35,1.07,1.32,1.47,1.81,1.17a.48.48,0,1,0-.58-.7,1.42,1.42,0,0,1-.53-1.7,1.63,1.63,0,0,1,2.43-.6,2.38,2.38,0,0,1,.8,2.94,3.12,3.12,0,0,1-2.62,2A2.44,2.44,0,0,1,189.4,113,.24.24,0,0,0,188.92,113Z"/><path class="cls-8" d="M174.15,70.61V69l-1.33-.9a.23.23,0,0,1,.05-.4l1.52-.5.45-1.55a.22.22,0,0,1,.39-.07l.95,1.3,1.61-.06a.22.22,0,0,1,.18.35L177,68.49l.55,1.51a.22.22,0,0,1-.28.28l-1.53-.48-1.26,1A.22.22,0,0,1,174.15,70.61Z"/><path class="cls-4" d="M148.11,53a2,2,0,1,1,2.18,1.9A2,2,0,0,1,148.11,53Z"/><path class="cls-4" d="M151.58,58.8a15.61,15.61,0,0,0-.4-1.8.47.47,0,0,0-.9.19,14,14,0,0,0,.38,1.93.49.49,0,0,0,.62.3.51.51,0,0,0,.3-.62Z"/><path class="cls-4" d="M155.08,56.27a18.18,18.18,0,0,1-1.89-1.37.47.47,0,0,0-.62.71,9,9,0,0,0,2.07,1.55.5.5,0,0,0,.66-.22.51.51,0,0,0-.22-.67Z"/><path class="cls-4" d="M153.8,52.61a.34.34,0,0,0-.09.47c.23.42.81.4,1.22.38a4.26,4.26,0,0,0,1.27-.24.49.49,0,0,0-.33-.93C154.69,52.69,154.24,52.25,153.8,52.61Z"/><path class="cls-4" d="M153.15,48.64c-.6.87-1.09,1.16-1,1.64a.41.41,0,0,0,.54.35c.32-.07.49-.41.68-.65a7,7,0,0,0,.53-.69.51.51,0,0,0,0-.7.49.49,0,0,0-.69,0Z"/><path class="cls-4" d="M150.83,48.49a2.18,2.18,0,0,0-.48-1,.43.43,0,0,0-.7.24,2.14,2.14,0,0,0,.24,1.06.51.51,0,0,0,.64.3.5.5,0,0,0,.3-.63Z"/><path class="cls-4" d="M148.33,49.76c-.86-.65-1-.83-1.37-.8a.42.42,0,0,0-.38.44c.08.41.32.52,1.11,1.1a.5.5,0,0,0,.68,0,.49.49,0,0,0,0-.69Z"/><path class="cls-4" d="M144.88,52.75a.45.45,0,0,0,.17.81,7.9,7.9,0,0,0,2.18-.32.51.51,0,0,0,.46-.53.49.49,0,0,0-.52-.46A8.66,8.66,0,0,0,144.88,52.75Z"/><path class="cls-4" d="M147.55,55.53c-.93.91-1.07.75-1.44,1.3a.42.42,0,0,0,.4.6,1.75,1.75,0,0,0,1-.52c.29-.23.56-.47.82-.72a.49.49,0,0,0-.05-.7.51.51,0,0,0-.7,0Z"/><path class="cls-9" d="M182.2,90l1.74.09s2.3-1.48,2.41-2-.16-1.82.19-2a1.13,1.13,0,0,1,1.47.59c.29.58-.12,2.59.07,2.74a9.77,9.77,0,0,0,1.85.22,1.3,1.3,0,0,1,1.1.77h0a.68.68,0,0,1-.23.83l-.41.3.28.43a.7.7,0,0,1-.2,1l-.32.21.19.25a.69.69,0,0,1-.19,1l-.29.17,0,.08a.7.7,0,0,1-.29.88l-.29.16-4.63-.24a3.41,3.41,0,0,1-1.25-.33l-1.61-.36a.35.35,0,0,1-.28-.37l.27-4.05A.37.37,0,0,1,182.2,90Z"/><path class="cls-7" d="M47.9,193.13S83.47,135.88,97,133.33s25.16,20.85,25.16,20.85a18.59,18.59,0,0,1,15.57-3.26c9.43,2.09,60,49.57,60,49.57l-152.47-1.9Z"/><path class="cls-10" d="M64.72,146.55C96.3,151.8,143.68,199,179.77,199s43.85-11.29,57.39-8.91S268.85,199,268.85,199L.69,199.81S33.15,141.3,64.72,146.55Z"/><polygon class="cls-11" points="85.48 126.57 79.31 176.44 91.65 176.44 85.48 126.57"/><polygon class="cls-11" points="97.02 137.71 90.85 187.57 103.19 187.57 97.02 137.71"/><rect class="cls-12" x="10.27" y="174.18" width="1.89" height="20.95"/><polygon class="cls-11" points="11.21 133.54 5.04 183.4 17.38 183.4 11.21 133.54"/><polygon class="cls-13" points="7.28 165.32 16.08 172.86 15.74 170.13 7.55 163.11 7.28 165.32"/><polygon class="cls-13" points="8.63 154.39 14.02 156.23 13.77 154.18 8.86 152.5 8.63 154.39"/><rect class="cls-12" x="24.63" y="166.02" width="1.36" height="23.83"/><polygon class="cls-11" points="25.66 123.54 18.96 171.63 32.36 171.63 25.66 123.54"/><polygon class="cls-13" points="19.39 168.58 31.41 164.79 31.23 163.49 19.58 167.16 19.39 168.58"/><polygon class="cls-13" points="21.5 153.39 29.47 150.88 29.29 149.57 21.7 151.96 21.5 153.39"/><path class="cls-14" d="M.69,199.81S35.31,169.74,80,167.89c15-.62,76.37,11.82,128.05,21.59,2.18.41,6.87,4.43,9.07,4.85a387.83,387.83,0,0,0,54.65,5.86Z"/><path class="cls-13" d="M274,166.73l0-2.58a3.37,3.37,0,0,0-3.27-3.48h0a8.51,8.51,0,0,0-8.25,8.76V173a4.06,4.06,0,0,1-2,3.57,3.59,3.59,0,0,0-1.77,3.16v1.86a6.77,6.77,0,0,0,2.38,5.17,4.16,4.16,0,0,1,1.42,3.15v2.64a5.14,5.14,0,0,0,5,5.29h1.56a5.14,5.14,0,0,0,5-5.29h0c-.45-3.69.64-5.82,1.91-7a9.72,9.72,0,0,0,2.94-7v-.37a9.63,9.63,0,0,0-3.26-7.23A5.26,5.26,0,0,1,274,166.73Z"/><path class="cls-15" d="M279.17,200.87S266.46,184,258.46,181.4s-.46,7.7-.46,7.7S243.81,173.58,238.61,175c-4.78,1.28,0,10.9,0,10.9s-5.38-5.32-11.9-5.32,5,19.93,5,19.93Z"/><path class="cls-16" d="M238.61,200.49s-8.69-23.23-19.45-20.54c-8.72,2.18-2.52,13.87-3,13.33s-5.21-8.46-12.77-8.46,2.32,10.71,2.32,10.71-16.12-5-17.38.25c-1.05,4.39,4.81,4.71,4.81,4.71Z"/><path class="cls-17" d="M128.62,165.61a17,17,0,0,1,1.8,1.36A66.74,66.74,0,0,1,154,200.11a.25.25,0,0,0,.48-.13,65.79,65.79,0,0,0-7.27-15.49c-8.34-13-18.72-19-18.61-18.88Z"/><path class="cls-17" d="M144.38,167.18c.7,4.59,3.09,8.72,4.75,13,4.42,11.46,5.14,20.2,5.54,21.16a.09.09,0,0,0,.18,0c.11-.9-.87-7.19-2.79-13.73-3.19-10.87-6.53-15.12-7.53-20.47,0-.1-.16,0-.15.05Z"/><path class="cls-17" d="M133.87,165.84a4.22,4.22,0,0,0-.68,1.66,3.2,3.2,0,0,0,.19,1.57,3.4,3.4,0,0,1-1.08-1.4,3.34,3.34,0,0,1-.08-2.61c.48-1,1.53-1.26,1.8-.83S134.1,165.3,133.87,165.84Z"/><path class="cls-17" d="M141.11,173.11a4.08,4.08,0,0,0-.47,1.72,3.12,3.12,0,0,0,.37,1.53,3.32,3.32,0,0,1-1.24-1.25,3.37,3.37,0,0,1-.38-2.57c.35-1.07,1.36-1.43,1.68-1A1.8,1.8,0,0,1,141.11,173.11Z"/><path class="cls-17" d="M150.33,176.69a3.24,3.24,0,0,0-1.21.52,2.31,2.31,0,0,0-.71.92,2.59,2.59,0,0,1,1.46-2.7c.78-.29,1.45.13,1.37.49S150.73,176.53,150.33,176.69Z"/><path class="cls-17" d="M151.25,178.94a2.83,2.83,0,0,0-1.21.52,2.43,2.43,0,0,0-.72.91,2.6,2.6,0,0,1,.16-1.29,2.49,2.49,0,0,1,1.3-1.41c.78-.28,1.46.13,1.38.5S151.65,178.77,151.25,178.94Z"/><path class="cls-17" d="M130.8,170.6a3.91,3.91,0,0,1,1.13-1.2,3,3,0,0,1,1.39-.45,3.18,3.18,0,0,0-1.59-.37,3.1,3.1,0,0,0-2.21.93c-.67.8-.47,1.77,0,1.83S130.44,171,130.8,170.6Z"/><path class="cls-17" d="M135.24,174.69a3.73,3.73,0,0,1,1.12-1.2,3,3,0,0,1,1.39-.45,3.26,3.26,0,0,0-1.59-.37,3.11,3.11,0,0,0-2.21.94c-.67.79-.47,1.76,0,1.82S134.88,175.09,135.24,174.69Z"/><path class="cls-17" d="M143.1,171a3.91,3.91,0,0,1,1.64.21,2.8,2.8,0,0,1,1.17.86,3.08,3.08,0,0,0-.63-1.5,3.14,3.14,0,0,0-2.05-1.25c-1-.07-1.71.66-1.49,1.07S142.57,171,143.1,171Z"/><path class="cls-17" d="M144.4,174.16a4,4,0,0,1,1.63.21,2.87,2.87,0,0,1,1.18.86,3.2,3.2,0,0,0-.63-1.5,3.08,3.08,0,0,0-2.06-1.24c-1-.08-1.7.65-1.48,1.06S143.87,174.11,144.4,174.16Z"/><path class="cls-17" d="M140.88,181a3.79,3.79,0,0,1,1.13-1.2,3,3,0,0,1,1.38-.45,3.12,3.12,0,0,0-1.58-.37,3.15,3.15,0,0,0-2.22.93c-.67.8-.46,1.77,0,1.83S140.52,181.4,140.88,181Z"/><path class="cls-17" d="M128.19,167.2a2.31,2.31,0,0,1,.87-.6,1.81,1.81,0,0,1,.93-.1,2,2,0,0,0-1-.44,2,2,0,0,0-1.51.29c-.53.41-.53,1.05-.25,1.14S127.91,167.4,128.19,167.2Z"/><path class="cls-17" d="M129.37,164.62a2.44,2.44,0,0,0,0,1.06,1.88,1.88,0,0,0,.48.8A1.88,1.88,0,0,1,129,166a2,2,0,0,1-.68-1.39c0-.66.52-1,.77-.88S129.36,164.28,129.37,164.62Z"/><path class="cls-17" d="M268.86,168.87a93.4,93.4,0,0,1,4.31,32h.41a94.07,94.07,0,0,0-4.33-31.74c-.75-2.38-1.51-5.16-3.73-6.61,0,0-.08,0,0,.07C267.48,164,268.15,166.65,268.86,168.87Z"/><path class="cls-17" d="M271.72,200.87A117.18,117.18,0,0,0,255,171.52c-.08-.09-.24,0-.17.13a116.73,116.73,0,0,1,16.34,29.22Z"/><path class="cls-17" d="M269.8,163.31a4.16,4.16,0,0,0-1.25,1.26,3.1,3.1,0,0,0-.44,1.52,3.48,3.48,0,0,1-.46-1.7,3.37,3.37,0,0,1,.93-2.43c.84-.75,1.9-.57,2-.07S270.22,162.91,269.8,163.31Z"/><path class="cls-17" d="M266.37,170.76a4.12,4.12,0,0,1,1.71-.49,3.2,3.2,0,0,1,1.54.35,3.54,3.54,0,0,0-3.84-1.58c-1.07.37-1.41,1.38-1,1.69A1.84,1.84,0,0,0,266.37,170.76Z"/><path class="cls-17" d="M267.48,174.72a4.07,4.07,0,0,1,1.71-.49,3.14,3.14,0,0,1,1.53.35,3.54,3.54,0,0,0-3.84-1.58c-1.06.37-1.41,1.38-1,1.69S266.92,174.89,267.48,174.72Z"/><path class="cls-17" d="M258.14,180.72a4.12,4.12,0,0,1,1.71-.49,3.2,3.2,0,0,1,1.54.35,3.62,3.62,0,0,0-1.27-1.22,3.42,3.42,0,0,0-2.58-.36c-1.06.37-1.41,1.38-1,1.7A1.8,1.8,0,0,0,258.14,180.72Z"/><path class="cls-17" d="M255.32,176.49A4.18,4.18,0,0,1,257,176a3.14,3.14,0,0,1,1.53.35,3.41,3.41,0,0,0-1.27-1.22,3.35,3.35,0,0,0-2.57-.36c-1.06.37-1.41,1.38-1,1.69S254.77,176.66,255.32,176.49Z"/><path class="cls-17" d="M271.59,167.94a4.17,4.17,0,0,0-1.44,1.05,3.29,3.29,0,0,0-.67,1.43,3.65,3.65,0,0,1-.18-1.75,3.4,3.4,0,0,1,1.3-2.26c.95-.61,2-.26,2,.24S272.07,167.61,271.59,167.94Z"/><path class="cls-17" d="M273.53,172.62a3.49,3.49,0,0,0-1.84.61,2.71,2.71,0,0,0-.95,1.41,4.68,4.68,0,0,1-.05-2.19,2.8,2.8,0,0,1,1.79-2.12c1.2-.31,2.39.57,2.34,1.18S274.13,172.43,273.53,172.62Z"/><path class="cls-17" d="M275.08,179.33a3.71,3.71,0,0,0-1.92.29,2.81,2.81,0,0,0-1.17,1.24,4.57,4.57,0,0,1,.33-2.17,2.8,2.8,0,0,1,2.11-1.79c1.24-.1,2.26,1,2.11,1.55S275.71,179.25,275.08,179.33Z"/><path class="cls-17" d="M264.72,180.94a3,3,0,0,0-1.46.6,2.2,2.2,0,0,0-.68,1.21,3.62,3.62,0,0,1-.17-1.78,2.29,2.29,0,0,1,1.33-1.83c1-.32,2,.33,2,.83S265.21,180.76,264.72,180.94Z"/><path class="cls-17" d="M264.29,163.31a2.42,2.42,0,0,1,1-.37,2,2,0,0,1,.92.14,2,2,0,0,0-.8-.66,2,2,0,0,0-1.54-.1c-.61.26-.77.88-.53,1S264,163.43,264.29,163.31Z"/><path class="cls-17" d="M266.08,161.11a2.36,2.36,0,0,0-.23,1,1.85,1.85,0,0,0,.26.9,2.06,2.06,0,0,1-.77-.71,2,2,0,0,1-.3-1.51c.18-.64.77-.88,1-.66A1.1,1.1,0,0,1,266.08,161.11Z"/><path class="cls-17" d="M253.56,172.47a2.44,2.44,0,0,1,1-.36,1.85,1.85,0,0,1,.92.14,2,2,0,0,0-.8-.67,2.06,2.06,0,0,0-1.54-.1c-.61.27-.77.88-.53,1.05A1.1,1.1,0,0,0,253.56,172.47Z"/><path class="cls-17" d="M255.59,170.32a2.42,2.42,0,0,0-.32,1,1.8,1.8,0,0,0,.19.91,2.1,2.1,0,0,1-.89-2.3c.24-.62.84-.82,1-.58A1.08,1.08,0,0,1,255.59,170.32Z"/><path class="cls-17" d="M166.6,195.67a9.84,9.84,0,0,1,1.22,1,9,9,0,0,1,2.16,3.68c0,.09,0,.18.13.23a0,0,0,0,0,.06,0,.37.37,0,0,0,0-.29,8.64,8.64,0,0,0-1.29-2.56,6,6,0,0,0-2.26-2.08s0,0,0,0Z"/><path class="cls-17" d="M165.71,196.58a2.28,2.28,0,0,1,1-.37,1.85,1.85,0,0,1,.92.14,2.08,2.08,0,0,0-2.34-.77c-.61.27-.77.88-.53,1A1.13,1.13,0,0,0,165.71,196.58Z"/><path class="cls-17" d="M167.5,194.38a2.32,2.32,0,0,0-.23,1,1.9,1.9,0,0,0,.26.9,2.06,2.06,0,0,1-.77-.71,2,2,0,0,1-.3-1.51c.18-.64.77-.89,1-.66S167.58,194,167.5,194.38Z"/><path class="cls-17" d="M107.64,188.33c6.14,1.88,11.47,5.76,16.58,9.53,3.45,2.55,3.16,3,3.88,3.45a.16.16,0,0,0,.23-.18A4.21,4.21,0,0,0,127,199.5a18.72,18.72,0,0,0-1.76-1.44c-1.3-1-2.65-1.88-4-2.79a64.89,64.89,0,0,0-8.49-5.06,34.13,34.13,0,0,0-5.07-1.93s0,0,0,.05Z"/><path class="cls-17" d="M113.67,187.46a4.21,4.21,0,0,0-.48,1.72,3.21,3.21,0,0,0,.37,1.53,3.53,3.53,0,0,1-1.62-3.83c.35-1.06,1.37-1.42,1.68-1S113.83,186.9,113.67,187.46Z"/><path class="cls-17" d="M118.82,190.49a4.21,4.21,0,0,0-.48,1.72,3.21,3.21,0,0,0,.37,1.53,3.49,3.49,0,0,1-1.23-1.26,3.33,3.33,0,0,1-.39-2.57c.36-1.06,1.37-1.42,1.68-1A1.8,1.8,0,0,1,118.82,190.49Z"/><path class="cls-17" d="M124,194.06a4.08,4.08,0,0,0-.47,1.72,3.17,3.17,0,0,0,.36,1.53,3.39,3.39,0,0,1-1.23-1.26,3.36,3.36,0,0,1-.38-2.57c.35-1.06,1.36-1.42,1.68-1A1.83,1.83,0,0,1,124,194.06Z"/><path class="cls-17" d="M111,192.31a3.91,3.91,0,0,1,1.13-1.2,3,3,0,0,1,1.39-.45,3.37,3.37,0,0,0-1.59-.36,3.06,3.06,0,0,0-2.21.93c-.67.79-.47,1.76,0,1.82S110.67,192.71,111,192.31Z"/><path class="cls-17" d="M116.4,195.44a3.79,3.79,0,0,1,1.13-1.2,3,3,0,0,1,1.38-.45,3.24,3.24,0,0,0-1.58-.37,3.15,3.15,0,0,0-2.22.94c-.67.79-.47,1.76,0,1.82S116,195.84,116.4,195.44Z"/><path class="cls-17" d="M107.05,189.39a2.42,2.42,0,0,1,.87-.61,1.94,1.94,0,0,1,.93-.1,2.15,2.15,0,0,0-.95-.44,2,2,0,0,0-1.51.29c-.53.41-.53,1.05-.25,1.15S106.77,189.59,107.05,189.39Z"/><path class="cls-17" d="M108.23,186.81a2.35,2.35,0,0,0,0,1.05,2.07,2.07,0,0,0,.48.81,2.18,2.18,0,0,1-.92-.5,2,2,0,0,1-.67-1.38c0-.67.52-1,.77-.89S108.22,186.46,108.23,186.81Z"/><path class="cls-18" d="M39.07,100c-2.39.64-2.79,9.86-2.79,9.86L28.7,109s1.39-9.61,5.39-13.62S48.2,93.77,52,96.27,54.22,102,54.22,102,41.46,99.33,39.07,100Z"/><path class="cls-12" d="M31.45,107.64c-.39,8.75-2.85,9.52-2.89,9.64a3.24,3.24,0,0,1-4.18-.47l.72-.74a2.85,2.85,0,0,0,1.23.73,2.24,2.24,0,0,0,1.74-.26,2.88,2.88,0,0,0,.83-.78c1.25-1.68,1.85-6.05,2-8.14Z"/><path class="cls-19" d="M56.92,101.24a43.11,43.11,0,0,0-1.18,7.56c-.12,3.39-2.46,6.21-2.76,14.69a157.86,157.86,0,0,1-1.52,16.28s-9.41.66-11.26-1.34-1.05-20.15.78-29-6.22-11.23-2-14.12,9.63-.94,11.93-.15S57,99.37,56.92,101.24Z"/><path class="cls-4" d="M41.38,108.25a54.78,54.78,0,0,0-.27,13.63c.83,6.86-.5,20.39-.5,20.39s-7,4.9-9.07,1c-.39-.73-1.31-9.4-1.39-13-.09-3.85.44-17.29.62-21.65a5.26,5.26,0,0,1,.78-2.58c1.53-2.5,5.05-8,6.27-8.23C39.42,97.55,42.22,101,41.38,108.25Z"/><path class="cls-18" d="M30.58,113.29c1,1,7.25,7,10.4,7.42,0-.38-.07-.76-.1-1.14-2.46-.4-8-5.5-10.24-7.68C30.62,112.34,30.6,112.8,30.58,113.29Z"/><path class="cls-18" d="M41.36,129.49c0-.38,0-.76,0-1.13-1.9.81-8.59.29-11.24,0v1.08C32.57,129.71,39.1,130.42,41.36,129.49Z"/><path class="cls-18" d="M30.77,138.24c0,.36.08.7.12,1,2.64.53,7.73-1.73,10.17-2.79,0-.4,0-.81.08-1.24C38.87,136.24,33.09,138.68,30.77,138.24Z"/><path class="cls-18" d="M30.62,136.77c1.17.49,8.48,3.63,10.15,3.74,0-.31,0-.66.08-1-1.17-.11-6.74-2.44-10.35-3.94Z"/><rect class="cls-13" x="36.23" y="123.01" width="5.41" height="16.82" rx="1.53" transform="translate(77.87 262.85) rotate(180)"/><rect class="cls-18" x="36.23" y="128.02" width="5.41" height="1.13"/><path class="cls-3" d="M37.31,187.18l-2.51,2.3c-.35.26-1.29.83-1.56,1.11-1,1.06,5.55,3.69,4.95,2.2a2.92,2.92,0,0,1,.17-1.72c.49-.6,1.37-1.46,1.37-1.46Z"/><path class="cls-19" d="M38.19,192.76a23.26,23.26,0,0,1-2-1.22c-.64-.47-.72-1.88-1.3-2.08s-3.3,2.5-3.3,2.5,5.21,5.66,7.94,7.55a2.39,2.39,0,0,0,1.55.28C42,199.81,39.71,195.72,38.19,192.76Z"/><path class="cls-3" d="M68.86,191.64l.78,3.77c0,.49.06,1.74.17,2.17.43,1.61,6.77-3.28,5-3.56a2.31,2.31,0,0,1-1.24-.85,15.07,15.07,0,0,1-.94-2.48Z"/><path class="cls-19" d="M74.77,194a25.48,25.48,0,0,1-2.37,1.29c-.82.35-2.33-.63-2.87-.18s.37,4.8.37,4.8,10.85-2.88,13.16-4.37C84,195,78.5,194.23,74.77,194Z"/><path class="cls-20" d="M76.46,137.34a4.1,4.1,0,0,0-2-.55,34.89,34.89,0,0,1-2.17-3.38s-5.7-9.56-6-10.09l-1.14-11.51-6-.88s1.58,12.49,1.78,13.13,9.48,12.62,10.26,13.7c0,0,.43,1.65.74,2.67a16.75,16.75,0,0,0,2.62,4c.79.79.43-.32.43-.32s-1.18-1.74-1-1.81.71.93,1.57,1.82l.64.65c.53.54,1,.36.57-.29a7,7,0,0,0-.68-.84,6.87,6.87,0,0,1-.6-.83,7.44,7.44,0,0,1-.6-.86s0-.15.28.08.77,1,1.23,1.4c.27.21.79.7.79.7a7.06,7.06,0,0,0,1,.54c.3-.23-.21-.81-.61-1.06a5.39,5.39,0,0,0-.73-.78s-.9-1.25-.71-1.39a16.91,16.91,0,0,1,1.47,1.24c.7.54,1.5,1,1.63.86s-.47-.9-.47-.9-.52-.45-.68-.62-.7-.81-.7-.81-1.69-2.25-1.5-2.36a1.44,1.44,0,0,1,.92-.12c.16.11.34.44.49.54a.49.49,0,0,0,.61-.07c.15-.19-.4-1-.4-1A2.94,2.94,0,0,0,76.46,137.34Z"/><path class="cls-11" d="M59.6,101.27c4.67,1.11,5.85,11.54,6.14,12.89-1.55.54-3.39,1.09-5,1.56l-1.91-14.66S59.12,101.15,59.6,101.27Z"/><path class="cls-12" d="M63,140l6.73,26.87,4.25,26-5.3.71s-7.45-19.9-7.66-22.19-3.95-13-3.95-13Z"/><path class="cls-18" d="M47.33,136.86s.51,25.77.09,28.16-11.67,22.82-11.67,22.82L39.54,192s16.11-18.68,16.82-20.33c1.11-2.58,6.61-31.71,6.61-31.71Z"/><path class="cls-14" d="M53.51,101.21a4.06,4.06,0,0,0-4,2.44c-1.14,2.71-2.28,15.72-1.76,22s-1.67,14.89-1.67,14.89c10,5.15,17-.42,17-.42s2.62-23.9,1.66-28.32c-2-9.23-5.92-10.71-5.92-10.71Z"/><path class="cls-20" d="M45.6,144.25c-1.08-1.76-1.32-1.51-1.45-1.73a41.06,41.06,0,0,1,0-4.46s.43-12.33.48-13l5.52-11.38-4.78-4.47s-5.68,12.55-5.86,13.26,1.13,17.47,1.2,18.95c0,0-.56,1.79-.87,2.93a10.25,10.25,0,0,0-.15,2.69,11.48,11.48,0,0,0,.2,2.58c.24,1.21.56-.05.56-.05a9.7,9.7,0,0,1,.13-2.29c.14,0,.09,1.29.34,2.64.06.34.13.68.19,1,.16.82.7,1,.66.08a7.61,7.61,0,0,0-.12-1.2,7.44,7.44,0,0,1-.05-1.13,7.79,7.79,0,0,1,0-1.16s.12-.12.2.24.1,1.42.28,2c.11.36.29,1.12.29,1.12a7.53,7.53,0,0,0,.55,1.1c.4,0,.27-.88.07-1.35a6,6,0,0,0-.2-1.16s-.07-1.72.17-1.73a19.68,19.68,0,0,1,.59,2c.29.93.74,1.82.93,1.79s.1-1.12.1-1.12-.2-.73-.25-1-.15-1.19-.15-1.19-.2-3.11,0-3.1a1.47,1.47,0,0,1,.88.45c.08.19,0,.61.12.8a.5.5,0,0,0,.57.29c.23-.07.2-1.13.2-1.13A3.52,3.52,0,0,0,45.6,144.25Z"/><path class="cls-11" d="M43,112.54l6.26,4.85a22.38,22.38,0,0,0,4.15-5.55c1.4-3-.31-10.72-1.8-10.32C48.3,102.42,43,112.54,43,112.54Z"/><path class="cls-3" d="M54.7,95.43l-.93,6.17s3.42,7.34,5.46,6.71c1.71-.54.66-7,.66-7S59,97.78,59.23,96,54.7,95.43,54.7,95.43Z"/><path class="cls-8" d="M59.23,96c.28-1.74-4.53-.6-4.53-.6l-.07.51a2.9,2.9,0,0,0,.52.86,6.33,6.33,0,0,0,4.2,1.9A9.93,9.93,0,0,1,59.23,96Z"/><path class="cls-3" d="M53.92,86.7c-.14,0-1.09,7,.72,9s5.33,2.59,6.59,1,1.33-9.3-1.48-11.3S53.92,86.7,53.92,86.7Z"/><path class="cls-19" d="M58.68,81.63A7.82,7.82,0,0,0,54.58,84c-1,.12-2.33.66-3.72,3a5.75,5.75,0,0,0,1.54,7.48,4.49,4.49,0,0,1,2,3.3l.31-.91a5.12,5.12,0,0,0,.25-2.16,4.35,4.35,0,0,0-.32-1.3c-.48-1,1-1.7,1.44-2.56.33-.65.34-2.15.86-3.24l.61-.82a3.85,3.85,0,0,1,2.78-.79C61.67,86.24,61.47,81.06,58.68,81.63Z"/><path class="cls-3" d="M56,92c0,.87-.38,1.57-.87,1.58s-.92-.68-.93-1.55.37-1.57.87-1.57S55.94,91.18,56,92Z"/><path class="cls-19" d="M57.08,114.29c.13-5.38-.2-12.77-5.33-14.86-1.83-.77-4.07.09-5.77.72h0A8.51,8.51,0,0,1,51,101.23c4.22,2.14,4.19,8.25,4,13-.39,12-9.56,10.7-9.56,10.7l-.21.8a11.12,11.12,0,0,0,7.84-1C56.65,123,57.08,114.29,57.08,114.29Z"/><path class="cls-17" d="M225.83,153.69s-2.83,13.92-1.54,15.21,8.44,3.93,10.06,3.33,5-16.51,4-18.09S226.58,151.47,225.83,153.69Z"/><path class="cls-3" d="M227,195s.19,1.6.19,1.88v.27l-.14.27-.05.11,1,1.34,3.92.06c.09,0-.51-.93-.51-.93s-1.27-1-1.5-1.62a4.73,4.73,0,0,1,.19-2.07Z"/><path class="cls-3" d="M208.47,185.46s-1.37.85-1.58,1l-.21.16-.14.28,0,.11-1.64.08-2.49-3c-.05-.06.7.11.7.11a6.76,6.76,0,0,0,2.2,0,9.22,9.22,0,0,0,2-1.56Z"/><path class="cls-21" d="M220.9,170.46,206.17,183l2.27,3.22s14.45-9.09,15.25-9.2,2,.18,2.18.76.61,17.69.61,17.69h3.94l2.05-21.84Z"/><path class="cls-3" d="M242.12,152.56a41.73,41.73,0,0,0,4.52-4.4,2.92,2.92,0,0,1,.79-1.55c.49-.57.87-1.87,1.19-1.5s-.48,1.4-.11,1.41,2.19-2.05,2.48-1.71-1.56,2.15-1.23,2.16,1.83-1.84,2.25-1.37-2,2-1.75,2.26,1.7-.75,2-.37-2.08,1.28-1.89,1.28,1.59,0,1.6.24-3.53.77-4,1.3h0c-.92,1.47-2.57,4.16-4.24,5.34-2,1.44-6.75,4.5-6.75,4.5l-2.34-3S240.83,153.41,242.12,152.56Z"/><path class="cls-5" d="M248.51,147.17a1.36,1.36,0,0,1,.14.56,1.43,1.43,0,0,1-.46,1.15A2.44,2.44,0,0,0,248.51,147.17Z"/><path class="cls-3" d="M220.53,149.25a41.08,41.08,0,0,1-3.21-5.42,3,3,0,0,0-.36-1.71c-.33-.68-.35-2-.75-1.76s.09,1.48-.27,1.39-1.57-2.54-1.94-2.3.93,2.49.62,2.41-1.29-2.25-1.81-1.91,1.37,2.46,1.09,2.64-1.44-1.17-1.86-.89,1.67,1.78,1.49,1.73-1.53-.45-1.61-.19,3.2,1.67,3.49,2.29h0c.5,1.66,1.39,4.69,2.69,6.26,1.59,1.93,5.33,6.12,5.33,6.12l3-2.31S221.55,150.41,220.53,149.25Z"/><path class="cls-5" d="M215.77,142.38a1.5,1.5,0,0,0-.14,1.73A2.41,2.41,0,0,1,215.77,142.38Z"/><path class="cls-4" d="M223,151.48l-2.75,3.59,3.41,5.08a27.55,27.55,0,0,1-.81,4.95c-.49,1.18-3.34,6-3.34,6s6.91,4.24,13.68,3.62c0,0,1.91-9.81,2.44-10.75s5.7-5.61,5.7-5.61l-2.51-4-4.32,2.4s-7.91-1.28-8.29-1.66S223,151.48,223,151.48Z"/><path class="cls-8" d="M231.92,144.15s-2.67-1.42-3.58.92a1.76,1.76,0,0,0-2,2.25s-2.41,1.21-.88,4.34c0,0-.67,2.94,2.77,3.12a1.87,1.87,0,0,0,2.08.8,3.71,3.71,0,0,0,2-.66s2.78.82,3.63-1.69c0,0,1.91-.46.63-2.92,0,0,1.67-3.18-1.28-4.14C235.27,146.17,234.93,142.92,231.92,144.15Z"/><path class="cls-3" d="M233,151c-.22.61-.06,1.22.35,1.36s.91-.22,1.13-.83.06-1.21-.35-1.36S233.22,150.44,233,151Z"/><path class="cls-3" d="M225.8,149.56c0,.64.29,1.18.73,1.2s.81-.49.84-1.13-.3-1.18-.73-1.2S225.83,148.91,225.8,149.56Z"/><path class="cls-3" d="M228.85,153.81s-.35,1.53-.53,2.32a.63.63,0,0,0,.35.72c.74.34,2.18.8,3.18-.1a.39.39,0,0,0,.13-.32l-.12-3.56Z"/><path class="cls-5" d="M228.66,154.65a2.87,2.87,0,0,0,2.85-.25c.14-.08.27-.17.4-.26l0-1.27-3,.94S228.77,154.19,228.66,154.65Z"/><path class="cls-3" d="M231,145.6a3.78,3.78,0,0,1,2.08,1.62c.78,1.28,1.2,5-1.56,6.6s-4.76-.89-4.71-3.26S227.91,145.16,231,145.6Z"/><path class="cls-17" d="M226.28,199.88c-.59-.08.43-2.11.75-2.44l4.32.58a15.41,15.41,0,0,1,2.57,1.46c.12.12.13.32-.38.4A44,44,0,0,1,226.28,199.88Z"/><path class="cls-17" d="M205.06,189.05c.51.31,1.43-1.67,1.48-2.13l-3.48-2.74s-2.69-.78-3.23-.23S203.91,188.36,205.06,189.05Z"/><path class="cls-17" d="M234.29,170.78c-2.78-2.79-2.23-11.34-1.72-14.95l1.19.17c-.43,3.06-1,11.52,1.38,13.92Z"/><path class="cls-17" d="M222.41,166l-.13-1.09a96.27,96.27,0,0,1,4.16-10.1l1.08.54S225.22,160.77,222.41,166Z"/><path class="cls-11" d="M180.94,155.64s-4.75-.63-6.48.26-2.68,11.56-2.68,11.56l1.54.47s-.22,7.38,1,7.9,9.43-1.08,11.32-3-1.66-17.62-1.66-17.62Z"/><path class="cls-3" d="M190.31,148.11a45.45,45.45,0,0,0,1.48-6.41,3,3,0,0,1-.19-1.8c.11-.78-.29-2.13.2-2s.37,1.5.7,1.3.76-3,1.21-2.9-.15,2.77.14,2.59.57-2.64,1.2-2.46-.6,2.87-.26,3,1.07-1.61,1.57-1.47-1.1,2.3-.93,2.19,1.37-.92,1.53-.7-2.65,2.67-2.74,3.38h0c0,1.81.1,5.09-.7,7.07-1,2.41-3.38,7.76-3.38,7.76l-3.76-1.34S189.65,149.58,190.31,148.11Z"/><path class="cls-5" d="M192.86,139.78a1.39,1.39,0,0,1,.45.42,1.48,1.48,0,0,1,.24,1.26A2.54,2.54,0,0,0,192.86,139.78Z"/><path class="cls-3" d="M166.25,156.6A2.73,2.73,0,0,0,166,155c-.26-.65-.23-1.91-.6-1.68s0,1.39-.29,1.28-1.31-2.45-1.65-2.24.74,2.37.46,2.28-1.06-2.17-1.54-1.87,1.13,2.36.87,2.51-1.24-1.16-1.63-.92,1.43,1.74,1.27,1.69-1.35-.5-1.43-.26,2.35,1.33,2.58,1.92,4,6.67,5.21,6.8,7.22-3,7.76-4.22.17-2.54-.62-2.79-6.4,2.92-6.65,2.84S166.25,156.6,166.25,156.6Z"/><path class="cls-5" d="M165.16,155a1.55,1.55,0,0,0-.3.53,1.5,1.5,0,0,0,.15,1.28A2.53,2.53,0,0,1,165.16,155Z"/><path class="cls-3" d="M171.33,184.91a8,8,0,0,1-1.81-1.4,50.58,50.58,0,0,0-4.58,4.75,1.27,1.27,0,0,0,1.07.17c.5-.22,2.76-1.24,3.82-.87.27.09,3.35,1.14,6.08,1.84.33-1-.59-2.93-.13-3.85A28.23,28.23,0,0,0,171.33,184.91Z"/><path class="cls-22" d="M170.59,184.45s-2.68,2.74-2.94,3.22-3.53,1.76-3.7,1.25,4-5.94,4.6-6.14S170.59,184.45,170.59,184.45Z"/><path class="cls-3" d="M187.92,192.86a7.65,7.65,0,0,1-1.43,1.75,50.82,50.82,0,0,0,5,4.37,1.15,1.15,0,0,0,.17-1c-.24-.48-1.44-3.42-1.08-4.44a24.52,24.52,0,0,1,1.46-3.37,26.46,26.46,0,0,1-3-1.22C188.57,190.33,188,192.65,187.92,192.86Z"/><path class="cls-21" d="M187.49,171.66s7,6.87,7.68,8.2c.53,1-2.69,11.18-2.69,11.18s-3-.23-4.28-1.45c0,0,1.6-7.11,1.27-7.43s-8.29-4.94-8.29-4.94l1-4.21Z"/><path class="cls-8" d="M186,171.48s-1.82,4.22-1.82,5.86c0,1.26.56,11.36-2.1,12.33-1.51.56-8.62-.26-8.62-.26l.64-4.57s3.39.5,3.68.22-2.71-7.91-2.08-10.52,5.85-4.2,5.85-4.2Z"/><path class="cls-7" d="M188.22,151.87s.84.25,3.46,3.8l-4.2,6.63-2.55-6.16Z"/><path class="cls-7" d="M182.1,156.2a21.82,21.82,0,0,0,3.15-.56c.83-.3,6.31,17.76,4.39,18.17-4,.86-14.38,3.14-14.38,3.14a6.56,6.56,0,0,1,.38-2.81c1-3.09,1.52-10.15,1.52-11.4,0-.73-3.79,1.81-3.79,1.81l-1.59-5.74a67.35,67.35,0,0,1,6.53-2.29C178.79,156.42,182.1,156.2,182.1,156.2Z"/><path class="cls-11" d="M189.31,167.8c-.6-3-5.79-11.8-5.83-11.88l1.06-.57c.19.35,4.38,7.83,5,10.94Z"/><path class="cls-22" d="M187.5,193.52s3,2.75,3.56,3,1.48,3.47.91,3.65-6.17-3.86-6.4-4.53S187.5,193.52,187.5,193.52Z"/><path class="cls-11" d="M175.6,171.67l-.55-.86s4.63-3,5.15-6.69-2.14-7.73-2.16-7.77l.84-.58c.12.18,2.91,4.32,2.33,8.49S175.8,171.54,175.6,171.67Z"/><path class="cls-19" d="M182.16,144.13a2.58,2.58,0,0,1,3,1.19c1.19,1.86.55,1.68,1.12,2.61s2.08.73,2.08,2.17-.67,1.67-.67,1.67a2.45,2.45,0,0,1-.06,2.27,4.29,4.29,0,0,1-3.75,2,6.47,6.47,0,0,1-4.22.61c-2.12-.54-1.38-.54-2.24-.54s-3.2-1.19-2.82-2.91c0,0-1.42-1.7,0-3.08s1.64-2.78,2.44-4.64S181.2,143.68,182.16,144.13Z"/><path class="cls-3" d="M183.39,154a11.52,11.52,0,0,0,.16,2.79.91.91,0,0,1,.22,1.24c-.35.61-1.88.22-2.59-.13a3.33,3.33,0,0,1-1.12-.95l.35-4Z"/><path class="cls-21" d="M182.37,155.06a3.54,3.54,0,0,1-2-1.58l0-.56,3,1.09s0,.62,0,1.28A3.28,3.28,0,0,1,182.37,155.06Z"/><path class="cls-3" d="M179.89,150s-.07-1.5-1-1.21-.22,2.55.54,2.48S179.89,150,179.89,150Z"/><path class="cls-3" d="M182.78,145.14a2.73,2.73,0,0,1,2.18,1.09c.73,1.12,1.53,4.32.32,6.53s-2.77,1.66-3.41,1.44a3.8,3.8,0,0,1-2.55-2.78C178.68,149.35,179.15,144.71,182.78,145.14Z"/><polygon class="cls-13" points="180.72 83.72 179.89 85.24 177.3 84.19 175.83 86.26 173.76 85.79 173.52 86.83 176.29 87.47 177.69 85.5 180.38 86.6 181.62 84.31 180.72 83.72"/><path class="cls-23" d="M232.12,127.62l-1.34,1.49.47,1.95a.2.2,0,0,1-.27.23l-1.84-.82-1.71,1.05a.19.19,0,0,1-.29-.18l.2-2-1.52-1.3a.19.19,0,0,1,.08-.34l2-.42.77-1.85a.2.2,0,0,1,.35,0l1,1.74,2,.15A.2.2,0,0,1,232.12,127.62Z"/><path class="cls-23" d="M186.1,124l-1.33,1.5.47,2a.19.19,0,0,1-.27.22l-1.84-.81-1.71,1a.19.19,0,0,1-.29-.19l.2-2-1.52-1.3a.19.19,0,0,1,.08-.34l2-.42.77-1.86a.2.2,0,0,1,.35,0l1,1.73,2,.16A.19.19,0,0,1,186.1,124Z"/><path class="cls-5" d="M79.2,59.28c0,.39-1.77.7-3.94.7s-3.94-.31-3.94-.7,1.76-.69,3.94-.69S79.2,58.9,79.2,59.28Z"/><path class="cls-8" d="M75.26,47A3.09,3.09,0,0,0,72,49.86c0,1.6,3.25,9.42,3.25,9.42s3.24-7.82,3.24-9.42A3.08,3.08,0,0,0,75.26,47Zm0,4.58a1.38,1.38,0,1,1,0-2.75,1.38,1.38,0,0,1,0,2.75Z"/><path class="cls-5" d="M138.13,145.45a3.93,3.93,0,0,1-.94-2.28c.15-.16.71,0,.89,0s.4.13.57.2a.38.38,0,0,0,.48-.22c.1-.22-.55-.65-.81-.75a30.93,30.93,0,0,0-3.33-.8c-.29-.06-3.56-4.05-4.79-5.32h0c-1.95-2.15-3.84-4.46-4-4.69l-5.34-11.22-4.87.36s5.75,12.53,6.11,13.13c.17.28,5.08,4.91,5.08,4.91,2.56,2.13,4.82,4,5.24,4.37a13.6,13.6,0,0,0,1,2.62C133.75,146.39,138,145.53,138.13,145.45Z"/><path class="cls-8" d="M118.47,111.71s3.76-.67,5.63,13l-6.39,1.78-2.66-7.22Z"/><path class="cls-21" d="M125.94,156.29v7.09a2.48,2.48,0,0,0,2.49,2.48H144a2.48,2.48,0,0,0,2.48-2.48v-7.09Z"/><path class="cls-5" d="M145.59,164.06l.85-.66v-.46l-1.14.89-1.22-1,1.21-.95,1.15.89v-.46l-.85-.67.85-.67v-.46l-1.15.91-1.22-1,1.22-.95,1.15.9V160l-.86-.67.86-.68v-.46l-1.15.91-1.22-.95,1.21-1,1.16.9v-.46l-.87-.67.85-.67h-.58l-.56.44-.56-.44h-.59l.86.67-1.22,1-1.22-1,.86-.67h-.58l-.57.45-.57-.45h-.59l.87.68-1.22.95-1.22-.95.87-.68h-.59l-.57.45-.58-.45h-.59l.88.68-1.22,1-1.22-1,.88-.69h-.59l-.58.46-.59-.46H135l.89.69-1.22,1-1.22-.95.89-.7h-.59l-.59.47-.6-.47H132l.9.7-1.22,1-1.22-1,.9-.7h-.59l-.6.48-.61-.48H129l.91.71-1.22.95-1.22-.95.9-.71h-.58l-.61.48-.62-.48H126l.92.71-.93.73v.92l.93.72-.93.74v.9l.94.73-.94.74v.89l.94.74-.62.49a3.13,3.13,0,0,0,.2.3l.72-.56,1.22.95-.62.49a2.67,2.67,0,0,0,.48.08l.43-.34.44.34h.59l-.74-.57,1.22-1,1.22.95-.74.58h.59l.44-.35.45.35h.59l-.75-.58,1.22-1,1.22,1-.75.58h.59l.45-.36.46.36h.59l-.76-.59,1.22-1,1.22,1-.76.59h.59l.46-.36.47.36h.59l-.77-.59,1.22-1,1.22.95-.76.6h.58l.47-.37.48.37h.59l-.78-.6,1.22-1,1.22.95-.77.61h.58l.48-.38.47.36a2.26,2.26,0,0,0,.45-.1l-.63-.49,1.22-1,.68.53a3.21,3.21,0,0,0,.19-.31ZM145,161.7l-1.21,1-1.22-1,1.21-1Zm-16-1.15,1.22-1,1.22,1-1.22.95Zm.93,1.18-1.22,1-1.22-.95,1.22-1Zm1.8-1,1.22,1-1.22,1-1.22-1Zm.29-.23,1.22-.95,1.22.95-1.22,1Zm2.73.23,1.22.95-1.22,1-1.22-1Zm.29-.23,1.22-1,1.22.95-1.22,1Zm2.73.22,1.22,1-1.22,1-1.22-.95Zm.29-.23,1.22-1,1.22,1-1.22,1Zm2.73.22,1.22.95-1.21,1-1.22-.95Zm.29-.23,1.22-1,1.22,1-1.22.95Zm2.72-2.14,1.22,1-1.21,1-1.22-1Zm-1.51-1.18,1.22,1-1.21.95-1.22-.95Zm-1.51,1.18,1.22,1-1.21.95-1.22-.95Zm-1.51-1.18,1.22,1-1.21,1-1.22-1Zm-1.51,1.19,1.22,1-1.21,1-1.22-1Zm-1.51-1.18,1.22.95-1.21,1-1.22-1Zm-1.51,1.19,1.22.95-1.21,1-1.22-.95Zm-1.51-1.18,1.22.95-1.21,1-1.22-.95Zm-1.51,1.19,1.22,1-1.21,1-1.22-1Zm-1.51-1.19,1.22,1-1.21.95-1.22-.95Zm-1.51,1.19,1.22,1-1.21,1-1.22-.95Zm-2.72-.22,1.21-1,1.22,1-1.21,1Zm0,2.37,1.22-1,1.22,1-1.22,1Zm1.23,3.32-1.22-.95,1.21-1,1.22.95Zm1.51,1.18-1.22-.95,1.22-1,1.21.95Zm1.51-1.19-1.22-1,1.21-1,1.22.95Zm1.51,1.18-1.22-1,1.22-1,1.22,1Zm1.51-1.19-1.22-1,1.21-1,1.22,1Zm1.51,1.19-1.22-1,1.22-1,1.22,1Zm1.51-1.19-1.22-1,1.21-1,1.22,1Zm1.51,1.18-1.22-.95,1.22-1,1.22,1Zm1.51-1.19L138,162.9l1.21-1,1.22.95Zm1.51,1.18-1.22-.95,1.22-1,1.22.95Zm1.51-1.19-1.22-1,1.21-1,1.22.95Zm1.51,1.18-1.22-1,1.22-1,1.22,1Z"/><rect class="cls-8" x="124.47" y="153.25" width="22.84" height="3.04" rx="0.51"/><polygon class="cls-9" points="131.75 153.25 136.45 158.16 140.26 153.25 131.75 153.25"/><path class="cls-21" d="M141.77,155.52h0a.78.78,0,0,1-.77-.77V151.3c0-3-2.17-6-5-6l-1.07,0c-2.82,0-4.72,3.06-4.72,6.06v3.45a.77.77,0,0,1-.77.77h0a.77.77,0,0,1-.76-.77V151.3a6.83,6.83,0,0,1,6.65-7h.54a6.84,6.84,0,0,1,6.66,7v3.45A.78.78,0,0,1,141.77,155.52Z"/><path class="cls-9" d="M142.23,154.77a.44.44,0,0,1-.43.44.44.44,0,0,1,0-.88A.44.44,0,0,1,142.23,154.77Z"/><path class="cls-9" d="M129.93,154.41a.44.44,0,0,1-.43.44.44.44,0,0,1,0-.88A.44.44,0,0,1,129.93,154.41Z"/><path class="cls-3" d="M133.16,144s-.39,2.5.79,2.78,3.89-.75,3.64-1.2-2.76-2.35-3.13-2S133.67,143.65,133.16,144Z"/><path class="cls-19" d="M122.51,100c-.72-4.72-5-8.11-9.46-5.82A10.41,10.41,0,0,0,110,96.6c-1.91,2.45-2.37,5.48-4.4,7.84-1.74,2-6.4,1.65-8.57,3.21a9.41,9.41,0,0,0-3.7,7.71c0,3.75.85,7.72,3.75,10.09a12,12,0,0,0,10.64,2,17.07,17.07,0,0,0,8.93-6.48,32.6,32.6,0,0,0,4.92-9.89A25.52,25.52,0,0,0,122.51,100Z"/><path class="cls-4" d="M120.89,113.61c-2.33-5.19-10.1-5.77-15-3a9,9,0,0,0-2.65,1.7c-2.42,2.42-6,27.16,1.43,28.72s13.64.85,16.07-3C122.32,135.55,124.48,121.6,120.89,113.61Z"/><path class="cls-3" d="M121.29,190.55a33.88,33.88,0,0,1,.13,5.44,5.44,5.44,0,0,1-.19.66c-.26.75.44,3,.44,3l9.35,0c.51,0,.17-.32-.25-.61a18,18,0,0,0-3.38-1.82c-.14-.06-.65-.38-.84-.49a6.61,6.61,0,0,1-1.35-1.16c-.68-.74-.79-4.36-.79-4.36Z"/><path class="cls-12" d="M126.55,196.8a8.55,8.55,0,0,1-5.32-.14c-.26.74-.74,3.28-.45,3.28,2.34,0,4.33.44,11,.33.24,0,.21-.83.06-1C131.44,198.76,126.73,196.91,126.55,196.8Z"/><path class="cls-19" d="M109.57,141.85s.13,5.86,1.81,9.61,9.45,12.66,11.53,17.92c-.64,3-2.41,7.13-2.28,10.42.15,3.72-.07,13.58-.07,13.58l4.2.13,5.5-25.43L122,140.63,118.2,134Z"/><path class="cls-3" d="M91.63,184.72a35.91,35.91,0,0,1-3.72,4.43c-.6.48-2.26,1.13-2.43,1.92s7.48,7.8,7.48,7.8c.41.36.36-.14.24-.66a19.46,19.46,0,0,0-1.43-3.83c-.07-.15-.25-.76-.32-1a7.05,7.05,0,0,1-.27-1.88c0-1.06,2.43-4,2.43-4Z"/><path class="cls-12" d="M91.45,193.4a9,9,0,0,1-4.16-3.85c-.72.42-2.68,1.31-2.51,1.56,1.35,2,2.76,4.41,8.2,9,.19.17,1-.79,1-1C94,198.4,91.52,193.62,91.45,193.4Z"/><path class="cls-6" d="M106.16,106.38s-5.48-9.79-6.81-11.87-4.82-10.35-4.94-10.68,2.39-4.24,1.83-4.37-1.18,2.06-1.78,1.8S92.11,75.71,91.77,76c-.64.49.94,3.28.6,3.46s-1.37-3.07-2-3,1.27,3,1.08,3.23-2.2-2.46-2.57-1.88c-.2.32,1.86,2.37,1.46,2.56s-2.22-1.13-2.41-.75,1.69.91,2.25,1.94,1.52,1.47,1.92,3.38,1,8.82,3,12.26,6.52,11.08,6.52,11.08Z"/><path class="cls-18" d="M109.86,138.1s-3.24,4.88-4,8.91.5,15.8-.81,21.3c-2.22,2.06-6.06,4.47-7.84,7.23-2,3.14-7.84,11.09-7.84,11.09l3.37,2.52,19.08-17.69,7.73-23.61,2.65-6.9Z"/><path class="cls-8" d="M112.49,110.36s-4.3-.27-6,1.58,3.77,16.48,4.08,18.83-2.53,7-2.53,7,11.82,5.53,14.71,3.62c0,0-.46-18.86-.77-20.54s-2.89-8.52-3.51-9.19S112.49,110.36,112.49,110.36Z"/><path class="cls-3" d="M113.92,104.63s0,.13-.06.34a32.18,32.18,0,0,1-1.43,5.39c-.6,1.14,2.06,4.76,4.63,4.32.76-.13-.65-3.33-.58-3.67.13-.65.3-1.53.48-2.44.11-.51.21-1,.3-1.52.28-1.38.5-2.52.5-2.52Z"/><path class="cls-8" d="M113.86,105c0-.21.06-.34.06-.34l3.84-.1s-.22,1.14-.5,2.52c-.09.49-.19,1-.29,1.51a3.54,3.54,0,0,1-1.84-.91,4.9,4.9,0,0,1-1.39-2.07C113.79,105.34,113.83,105.13,113.86,105Z"/><path class="cls-3" d="M116.51,95.91a3.46,3.46,0,0,0-3,1.26c-1.14,1.46-2.36,6,.46,8.46s5.61-.32,6-3.28S120.62,95.8,116.51,95.91Z"/><path class="cls-3" d="M120.88,102.3c-.34.66-.91,1-1.27.81s-.38-.9,0-1.56.9-1,1.26-.8S121.21,101.65,120.88,102.3Z"/><path class="cls-19" d="M116.71,95.43s-2.42,4.31-4.15,4.51-2,2.49-2,2.49.62-5.28,2.33-6.3A6.35,6.35,0,0,1,116.71,95.43Z"/><path class="cls-3" d="M113,101c.14.76-.14,1.47-.63,1.57s-1-.44-1.14-1.21.14-1.46.63-1.56S112.87,100.25,113,101Z"/><path class="cls-21" d="M104.65,103.2s6.06,6.52,7,9.14-.88,6.38-3.34,6.54-7.94-11.56-7.94-11.56Z"/><path class="cls-4" d="M111.72,109.23A16.57,16.57,0,0,1,113.81,124a22.53,22.53,0,0,1-3.19,6.43,10.79,10.79,0,0,1-3.46,3.31l-.59-1.16a8,8,0,0,0,1.76-1.4,17,17,0,0,0,3.72-6.06c3.48-8.85-1.41-14.47-1.49-14.68,0,0-.07-.2-.09-.23Z"/><path class="cls-4" d="M122.46,131.09a61.21,61.21,0,0,0-5.3-20l1.21-.1c0,.07,1.36.78,2.59,3.75a29.55,29.55,0,0,1,2.2,11.21C123.16,127,122.46,131.09,122.46,131.09Z"/><polygon class="cls-13" points="104.13 43.01 102.1 40.98 102.76 40.32 104.07 41.63 105.54 39.86 106.25 40.45 104.13 43.01"/><path class="cls-24" d="M152.48,77.26a9,9,0,1,1,12.64,1.63A9,9,0,0,1,152.48,77.26Zm15.28-11.8A10.3,10.3,0,1,0,158.3,82,10.29,10.29,0,0,0,167.76,65.46Z"/><path class="cls-25" d="M152.48,77.26a9,9,0,1,1,12.64,1.63A9,9,0,0,1,152.48,77.26Z"/><path class="cls-26" d="M159.6,65.69a3.08,3.08,0,0,0-3.11,3c0,1.65,3.17,5.15,3.17,5.15s3.2-3.62,3.17-5.27A3.08,3.08,0,0,0,159.6,65.69Zm.08,4.19a1.2,1.2,0,1,1,1.25-1.22A1.24,1.24,0,0,1,159.68,69.88Z"/><path class="cls-27" d="M157.23,76.35h.4l0,.21h0a.51.51,0,0,1,.88,0h0c.3-.42,1-.38,1,.38l0,.89h-.46V77c0-.22-.08-.35-.23-.34s-.24.1-.23.29v.88h-.46V77c0-.19-.07-.32-.22-.32a.26.26,0,0,0-.24.29l0,.89h-.46C157.25,76.9,157.26,76.81,157.23,76.35Z"/><path class="cls-28" d="M160.14,76.11a.24.24,0,1,1,0-.47A.24.24,0,1,1,160.14,76.11Zm-.21,1.71,0-1.52h.47l0,1.51Z"/><path class="cls-29" d="M160.74,76.29h.41l0,.21h0a.55.55,0,0,1,1,.39l0,.9h-.47l0-.84c0-.2-.07-.33-.24-.33a.27.27,0,0,0-.25.3v.87h-.47C160.76,76.84,160.77,76.75,160.74,76.29Z"/><path class="cls-30" d="M163.34,103.09a9,9,0,1,1,8.86,9.16A9,9,0,0,1,163.34,103.09Zm19.3.32a10.29,10.29,0,1,0-17.69,7A10.28,10.28,0,0,0,182.64,103.41Z"/><path class="cls-25" d="M163.34,103.09a9,9,0,1,1,8.86,9.16A9,9,0,0,1,163.34,103.09Z"/><path class="cls-31" d="M172.71,110.29h0a.43.43,0,0,1-.43-.43V96.63a.44.44,0,0,1,.43-.44h0a.44.44,0,0,1,.43.44v13.23A.43.43,0,0,1,172.71,110.29Z"/><path class="cls-32" d="M174.92,101.26h-6.44a.34.34,0,0,1-.17-.05l-1.83-1.38a.28.28,0,0,1,0-.44l1.84-1.54a.27.27,0,0,1,.17-.06h6.44a.27.27,0,0,1,.28.27V101A.27.27,0,0,1,174.92,101.26Z"/><path class="cls-10" d="M170.79,105.3h6.44a.27.27,0,0,0,.17-.06l1.83-1.38a.28.28,0,0,0,0-.43l-1.84-1.54a.24.24,0,0,0-.18-.07h-6.43a.27.27,0,0,0-.28.28V105A.28.28,0,0,0,170.79,105.3Z"/><polygon class="cls-33" points="170.97 104.83 170.97 102.28 177.16 102.28 178.76 103.63 177.17 104.83 170.97 104.83"/><path class="cls-34" d="M47.91,62.6a9,9,0,1,1,8.86,9.16A9,9,0,0,1,47.91,62.6Zm19.3.32a10.29,10.29,0,1,0-17.69,7A10.28,10.28,0,0,0,67.21,62.92Z"/><circle class="cls-25" cx="56.92" cy="62.75" r="9.01" transform="translate(-16.62 104.81) rotate(-77.56)"/><path class="cls-35" d="M54.27,68.81h0a.35.35,0,0,1-.35-.35V57.9a.35.35,0,0,1,.35-.35h0a.35.35,0,0,1,.34.35V68.46A.34.34,0,0,1,54.27,68.81Z"/><path class="cls-36" d="M59.77,68.81h0a.34.34,0,0,1-.34-.35V57.9a.35.35,0,0,1,.34-.35h0a.35.35,0,0,1,.35.35V68.46A.35.35,0,0,1,59.77,68.81Z"/><path class="cls-37" d="M56.11,59.5c0,1.44-.87,2.6-1.93,2.6s-1.93-1.16-1.93-2.6.87-2.59,1.93-2.59S56.11,58.07,56.11,59.5Z"/><path class="cls-38" d="M61.44,57.17H61a.15.15,0,0,0-.15.15v2.87a.15.15,0,0,1-.15.15h-.35a.15.15,0,0,1-.15-.15V57.32a.15.15,0,0,0-.15-.15h-.59a.15.15,0,0,0-.15.15v2.87a.15.15,0,0,1-.15.15h-.35a.15.15,0,0,1-.15-.15V57.32a.15.15,0,0,0-.15-.15H58a.15.15,0,0,0-.15.15v3.52a1.86,1.86,0,0,0,3.71,0V57.32A.15.15,0,0,0,61.44,57.17Z"/><path class="cls-39" d="M127.93,64a9,9,0,1,1,10.83-6.72A9,9,0,0,1,127.93,64Zm4.41-18.8A10.3,10.3,0,1,0,135.41,64,10.29,10.29,0,0,0,132.34,45.18Z"/><circle class="cls-25" cx="129.99" cy="55.21" r="9.01" transform="translate(-1.54 106.64) rotate(-44.37)"/><path class="cls-40" d="M127.26,59.56h0l-.43.22-.09-.4.6-.29h.44l0,2.29h-.52Z"/><path class="cls-41" d="M129.86,60.34h0c.12-.24.2-.34.45-.74H131l-.6.71.72,1h-.66l-.43-.7-.13.17v.54h-.54l0-2.5h.53Z"/><path class="cls-42" d="M131.24,59.59h.45l0,.23h0a.58.58,0,0,1,1,0h0a.65.65,0,0,1,.54-.3c.33,0,.59.22.6.74v1h-.52v-.94c0-.25-.09-.39-.26-.39a.29.29,0,0,0-.26.33v1h-.52v-1c0-.53-.53-.42-.52,0v1h-.52C131.26,60.21,131.27,60.11,131.24,59.59Z"/><path class="cls-43" d="M126.7,52.54h7.13a0,0,0,0,1,0,0v1.68a3.57,3.57,0,0,1-3.57,3.57h0a3.57,3.57,0,0,1-3.57-3.57V52.54A0,0,0,0,1,126.7,52.54Z"/><path class="cls-44" d="M134.11,55.93h-1.29a1.37,1.37,0,0,1,0-2.74h1.29a1.37,1.37,0,1,1,0,2.74Zm-1.29-2.26a.89.89,0,0,0,0,1.78h1.29a.89.89,0,1,0,0-1.78Z"/><path class="cls-45" d="M129.35,48c.19.74-.57,1-.51,1.5,0,.77.79.64.85,1.49a.79.79,0,0,1-.26.63,1.09,1.09,0,0,0,.07-.24.87.87,0,0,0-.18-.68c-.16-.19-.41-.29-.57-.48a1,1,0,0,1-.24-.88,1,1,0,0,1,.29-.52c.25-.26.42-.34.53-.69C129.34,48.12,129.34,48.08,129.35,48Z"/><path class="cls-46" d="M131.18,48c.18.74-.58,1-.52,1.5.05.77.8.64.85,1.49a.79.79,0,0,1-.26.63,1.13,1.13,0,0,0,.08-.24.87.87,0,0,0-.19-.68c-.16-.19-.4-.29-.56-.48a1,1,0,0,1-.25-.88,1,1,0,0,1,.29-.52c.25-.26.42-.34.53-.69Z"/><path class="cls-47" d="M100.92,60.88a9,9,0,1,1,2.27-12.54A9,9,0,0,1,100.92,60.88ZM89.91,45a10.3,10.3,0,1,0,16,10.28A10.29,10.29,0,0,0,89.91,45Z"/><circle class="cls-25" cx="95.78" cy="53.48" r="9.01" transform="translate(-8.19 18.5) rotate(-10.58)"/><path class="cls-48" d="M92.08,48.92a64.91,64.91,0,0,1-3.41,7.21h14.85s-3.28-5.6-3.53-7.21Z"/><path class="cls-25" d="M100,49c-.2.64-.43,1.26-.67,1.88-.12.31-.25.61-.37.92l-.4.91c-.27.6-.56,1.2-.88,1.78-.15.29-.31.58-.49.87l-.13.21-.14.2a3.9,3.9,0,0,1-.31.4l.12-.22.06-.11,0-.11.11-.22c0-.07.07-.15.11-.22l.21-.45c.06-.15.14-.3.2-.45l.82-1.81.41-.9c.14-.3.27-.6.42-.9C99.4,50.15,99.69,49.55,100,49Z"/><path class="cls-10" d="M88.55,56.12h.33a.19.19,0,0,0,0-.07l-.51-.83a.15.15,0,0,0-.21,0,.15.15,0,0,0,0,.2Z"/><path class="cls-10" d="M103.53,56.12h-.34a.19.19,0,0,1,0-.07l.52-.83a.15.15,0,0,1,.26.16Z"/><polygon class="cls-9" points="117.67 44.48 114.47 43.08 113.74 45.29 112.69 44.94 113.8 41.57 116.97 42.96 117.78 40.35 120.71 41.57 121.91 39 122.92 39.47 121.27 43.01 118.48 41.85 117.67 44.48"/><polygon class="cls-49" points="1299.89 70.95 1295.39 62.65 1298.26 62.65 1298.07 61.72 1298.07 61.72 1297.71 59.86 1305.62 59.86 1305.62 57.59 1303.25 54.04 1305.62 52.89 1309.62 52.89 1309.62 41.16 1311.09 41.16 1311.09 52.89 1315.11 52.89 1317.48 54.04 1315.11 57.59 1315.11 59.86 1323.28 59.86 1322.91 61.72 1322.91 61.72 1322.73 62.65 1325.65 62.65 1321.07 71.09 1321.07 71.09 1320.77 72.61 1320.77 72.61 1320.46 74.19 1313.16 74.19 1313.16 77.55 1313.16 135.13 1307.83 135.13 1307.83 77.55 1307.83 77.55 1307.83 74.19 1300.53 74.19 1300.21 72.61 1300.21 72.61 1299.89 70.95"/><rect class="cls-50" x="1206.95" y="91.79" width="83.09" height="43.23" transform="translate(2497 226.81) rotate(-180)"/><polygon class="cls-51" points="1207.09 91.79 1290.05 91.79 1290.05 135.02 1250.32 135.02 1207.09 91.79"/><rect class="cls-52" x="1269.21" y="103.47" width="17.57" height="9.84" transform="translate(2555.99 216.78) rotate(-180)"/><rect class="cls-53" x="1249.98" y="103.47" width="17.57" height="9.84" transform="translate(2517.53 216.78) rotate(-180)"/><rect class="cls-53" x="1229.82" y="103.47" width="17.57" height="9.84" transform="translate(2477.21 216.78) rotate(-180)"/><rect class="cls-53" x="1210.59" y="103.47" width="17.57" height="9.84" transform="translate(2438.76 216.78) rotate(-180)"/><path class="cls-52" d="M1396.32,135a14,14,0,0,0-21.84-3.08,17.69,17.69,0,0,0-18.7-5.53,19.88,19.88,0,0,0-30.84-5.68,21.22,21.22,0,0,0-27.49,6.1,21.24,21.24,0,0,0-24.16,8.19Z"/><path class="cls-54" d="M1185.75,148.52q-.07-.59-.12-1.17A11.6,11.6,0,0,0,1185.75,148.52Z"/><path class="cls-55" d="M1232.69,46h0c.55-1.41,5-1,6.52-.4l5.61,2.21,12.48-8.3,2.51,1.55-8.2,9.44c5,2,9.56,3.8,9.63,3.84l3.31-2.69,2.23.74-3.41,6.48v0a3,3,0,0,1-3.41.73l-25.41-9.91A2.92,2.92,0,0,1,1232.69,46Z"/><path class="cls-54" d="M1338.3,145.39h61.17a24.28,24.28,0,0,0,0-5.84c0-.32-.08-.64-.14-1-1.82-11.26-4.79-23.22-9.55-32.38a42.54,42.54,0,0,0-4.82-7.44h-32.27a37.12,37.12,0,0,0-11.21,1.74c-12.23,3.85-30.94,11.17-35.47,20.92a8.58,8.58,0,0,0-.43,1,9,9,0,0,0-.33,1.12,1.83,1.83,0,0,0-.06.25c0,.13-.06.27-.08.42C1302.42,140.7,1338.3,145.39,1338.3,145.39Z"/><path class="cls-56" d="M1338.3,145.39h61.17a24.28,24.28,0,0,0,0-5.84c0-.32-.08-.64-.14-1-.11-.71-.23-1.43-.36-2.14H1338.3s-26.7-3.51-32.3-15a10.52,10.52,0,0,0-.43,1,9,9,0,0,0-.33,1.12,1.83,1.83,0,0,0-.06.25c0,.13-.06.27-.08.42C1302.42,140.7,1338.3,145.39,1338.3,145.39Z"/><path class="cls-52" d="M1342.44,108.72l-20.73-.41a50.79,50.79,0,0,0-11.34,7.47c13.16-.66,19,5.39,19,5.39l13.06-4.28Z"/><rect class="cls-52" x="1380.62" y="109.65" width="8.16" height="9.1" rx="1.91" transform="translate(-0.37 4.52) rotate(-0.19)"/><rect class="cls-52" x="1365.73" y="109.8" width="8.16" height="9.1" rx="1.91" transform="translate(2739.99 224.23) rotate(179.81)"/><rect class="cls-52" x="1354.43" y="145.38" width="4.29" height="4.88" transform="translate(2713.16 295.64) rotate(-180)"/><circle class="cls-52" cx="1356.53" cy="153.74" r="5.54"/><path class="cls-54" d="M1354,153.74a2.57,2.57,0,1,1,2.57,2.57A2.57,2.57,0,0,1,1354,153.74Z"/><path class="cls-57" d="M1334.13,60.67a9.34,9.34,0,0,1,9.11-1.73,9.27,9.27,0,0,1,17.58-2.54,9.47,9.47,0,0,1,6.49-.11,9.26,9.26,0,0,1,17,4.38Z"/><path class="cls-57" d="M1264.94,44.65a7.33,7.33,0,0,1,4.81-1.78,7.45,7.45,0,0,1,2.42.41,7.36,7.36,0,0,1,14-2,7.48,7.48,0,0,1,2.69-.5,7.38,7.38,0,0,1,2.46.41,7.36,7.36,0,0,1,6.16-3.29,7.27,7.27,0,0,1,7.31,6.77Z"/><path class="cls-57" d="M1186.24,83.63a9.72,9.72,0,0,1,6.84-2.89,9.48,9.48,0,0,1,3.44.66c.65-5.76,5-10.22,10.32-10.22a10.44,10.44,0,0,1,9.51,6.94,9.37,9.37,0,0,1,3.83-.82,9.27,9.27,0,0,1,3.49.68,10.19,10.19,0,0,1,8.75-5.37c5.54,0,10.07,4.88,10.39,11Z"/><path class="cls-58" d="M1334.53,96.47s-1.85,3.22-6.8,2.54S1316.22,97,1316.22,97l-8.15,11.76-3.13-1.82s6.22-16.25,7.87-17.1c1.14-.59,10.39.71,10.39.71L1335,96.69"/><path class="cls-58" d="M1306.58,111.43l1.31-2.83-2.91-1.68c-1.11,0-4.54.06-5.22.43S1306.58,111.43,1306.58,111.43Z"/><path class="cls-58" d="M1313.31,133.46c.3.94,7.46,24.25,8.18,25.82s35.78,17.38,35.78,17.38l3.61-4.63c-4-5.85-28.93-18.21-28.93-18.21a29.31,29.31,0,0,1,.9-14.91,12.89,12.89,0,0,0,.16-6.66Z"/><path class="cls-59" d="M1302.31,189.39l6.39-.33c2.82-6.43,6-31.82,6-31.82s3.67-4.51,11.56-9.09c6.44-3.73,7.7-12.78,8-16l-21,1.3c-2.54,6.14-7.59,18.34-8,19.63C1304.68,154.83,1302.31,189.39,1302.31,189.39Z"/><path class="cls-60" d="M1327.83,98.28c4.19,5.86,1.51,9.75,3.31,19.77.83,4.64,4.33,8.54,3.87,14.07l-22.09,1.37s-.29-20,3.67-34.67a2.39,2.39,0,0,1,1.31-1.37l5.83-2.13C1325,94.85,1327,97.16,1327.83,98.28Z"/><path class="cls-61" d="M1325,122.77a5.24,5.24,0,0,0,4.13-4.62,21.66,21.66,0,0,1,.66-3.49,14.59,14.59,0,0,0,1.17,7.64c1.17,2.23.47,7.11-.12,10.08l4.2-.26c.45-5.54-3-9.43-3.88-14.07a59.25,59.25,0,0,1-.75-11c-.48,2.51-1.28,5.13-1.28,5.13l-2.68,2.66-1-.89Z"/><path class="cls-59" d="M1306.75,72.3l3.18,1.84.64.37a.83.83,0,0,0,1.13-.31l4.88-8.46a.82.82,0,0,0-.3-1.12l-.64-.37-3.18-1.84a.83.83,0,0,0-1.13.3l-4.88,8.46A.82.82,0,0,0,1306.75,72.3Z"/><path class="cls-25" d="M1306.75,72.3l3.18,1.84,5.71-9.89-3.18-1.84a.83.83,0,0,0-1.13.3l-4.88,8.46A.82.82,0,0,0,1306.75,72.3Z"/><path class="cls-62" d="M1328,84.25s-6.86-1.54-8.09-3.14-6.43-10.36-6.43-10.36-2.16-2.41-1.46-2.43a4.31,4.31,0,0,1,2.86,1.56c.62.91,5.56,7.38,5.56,7.38l7.74,1.71Z"/><path class="cls-63" d="M1323.21,83.51s8.37,1.9,8.73-2.58c.3-3.74-8.32-3.89-8.32-3.89Z"/><path class="cls-59" d="M1311.27,83.63v0c.24.52,2.09.69,3.39.75.73,0,2.17.6,2.2,1.32l.33,3.71,1.2-.43a1.9,1.9,0,0,1,0-.25,1.62,1.62,0,1,1,3.24-.11,1.72,1.72,0,0,1-.57,1.35,20.69,20.69,0,0,0,2.66.86h0c4-5.81-.65-16.54-11.24-13C1306.81,79.64,1309.09,82.49,1311.27,83.63Z"/><path class="cls-58" d="M1312.46,77.77c10.59-3.51,15.26,7.22,11.24,13h0c1.48-5.47,1.17-9.23-4.72-11.78-5.29-2.29-10,1.81-10,1.81l0-.06C1308.9,79.74,1309.81,78.65,1312.46,77.77Z"/><path class="cls-62" d="M1311.27,83.6c.24.52,2.09.69,3.39.75.74,0,2.17.59,2.19,1.33l.34,3.7,1.2-.43a1.9,1.9,0,0,1,0-.25,1.62,1.62,0,1,1,3.24-.11A1.76,1.76,0,0,1,1321,90a21.59,21.59,0,0,0,2.66.85l.14,4.4-5.8,2.23-.09-2.65a5.24,5.24,0,0,1-1.69.34c-4.38.22-5.12-3.36-5.26-7.44Z"/><path class="cls-62" d="M1325.73,76.28a6.79,6.79,0,0,0,1.71-.28l.09,2.34,4.47-.54,0-2h0c-1,.34-3.1-1.57-3.1-1.57s1.06-1.7.34-3c-.56-1-1.45.06-1.45.06a5.09,5.09,0,0,1-5.62-1.53l-.17,1.16C1321.82,74.44,1322.2,76.18,1325.73,76.28Z"/><path class="cls-62" d="M1330.44,72.4a1.32,1.32,0,1,0-1.37,1.41A1.39,1.39,0,0,0,1330.44,72.4Z"/><path class="cls-59" d="M1327.77,71.32s.88-1.1,1.46-.07c.72,1.29-.35,3-.35,3s2,1.91,3.1,1.57c0,0,3-6.23.62-8.38s-1.94-2.72-4.5-2.89-2.72-.29-4.23.32-2.86,3.49-1.76,4.87A5.12,5.12,0,0,0,1327.77,71.32Z"/><path class="cls-58" d="M1323.87,64.86c1.51-.61,1.67-.5,4.23-.32s2.1.75,4.5,2.89c2,1.76.29,6.26-.38,7.83.6-2-.54-6.25-1.12-6.9s-.93-1.25-1.86-2.5S1326,65,1324,65.72s-1.86,3.86-1.86,3.86l-.09,0C1321.08,68.21,1322.34,65.47,1323.87,64.86Z"/><path class="cls-58" d="M1360.22,171.22l5,3.13s-7,11.28-8.22,12.23-2.38-1.59-.14-4.68a5.75,5.75,0,0,0,.55-6Z"/><path class="cls-58" d="M1308.32,188.94v5.91s-13.3,0-14.73-.49.09-2.87,3.9-2.6a5.74,5.74,0,0,0,5.41-2.73Z"/><path class="cls-59" d="M1333.29,97.49s-1,3.58-6,4.14-11.67.84-11.67.84l-5,13.4-3.48-1s2-17.28,3.41-18.52c1-.85,10.24-1.87,10.24-1.87l13,3.08"/><path class="cls-59" d="M1309.88,118.88l.58-3.06-3.24-.92c-1.07.28-4.38,1.18-5,1.71S1309.88,118.88,1309.88,118.88Z"/><path class="cls-62" d="M1311.7,104.38s-2.57-3.38-2.9-2.49a4.77,4.77,0,0,0,.81,4.42Z"/><path class="cls-62" d="M1311.67,104.37l9.45,10.14a44.82,44.82,0,0,1-.62-5,21.53,21.53,0,0,0,8.61,2.73,29.9,29.9,0,0,1-2.84,9.42c-.27.53-.7,1.21-1.29,1.14-4.61-.55-15.36-16.49-15.36-16.49Z"/><path class="cls-64" d="M1331.88,77.53s3.38,2.23,2.58,8.69a108.79,108.79,0,0,0-.41,13.06s-7.92-.5-13.22-4.78c0,0,3.86-7.94,4.36-10.93S1326.48,76.62,1331.88,77.53Z"/><path class="cls-62" d="M1331.92,87.5s-1.33,6.76-2.93,7.87-10.51,5.84-10.51,5.84-2.54,2.27-2.53,1.59a5,5,0,0,1,1.76-3c.91-.56,7.38-6.26,7.38-6.26l1.74-6.48Z"/><path class="cls-63" d="M1332.63,88.72s2.89-9-2-9.85c-4.08-.69-5.08,8.78-5.08,8.78Z"/><path class="cls-65" d="M1313.15,156.67c1.29-2.15,4.15-5.58,11.87-10.44s5.8-13.85,5.8-13.85l3.39-.18c-.25,3.23-1.52,12.23-7.94,16-7.89,4.57-11.56,9.09-11.56,9.09s-3,23.43-5.68,31l-.71.72S1311.87,158.81,1313.15,156.67Z"/><path class="cls-61" d="M1318.17,108.77a9.78,9.78,0,0,0,1.72,1.39l1.19,4.32-.61-5a15.15,15.15,0,0,1-1.3-1.24c-.1-.17.06-3.9.15-5.93l-.3,0C1318.51,104.37,1317.65,108.22,1318.17,108.77Z"/><path class="cls-59" d="M1231.31,118.3l3.18,1.84.64.37a.82.82,0,0,0,1.12-.3l4.89-8.46a.82.82,0,0,0-.31-1.13l-.63-.37-3.19-1.84a.82.82,0,0,0-1.12.31l-4.89,8.46A.82.82,0,0,0,1231.31,118.3Z"/><path class="cls-25" d="M1231.31,118.3l3.18,1.84,5.71-9.89-3.19-1.84a.82.82,0,0,0-1.12.31l-4.89,8.46A.82.82,0,0,0,1231.31,118.3Z"/><path class="cls-58" d="M1270.77,149.29s8.81,13.42,11.78,16.65,28,19,28,19l1.61-4.37c-1.74-3.6-21-19.48-21-19.48s-3.55-6.74-3-18.56a9.75,9.75,0,0,0-1.64-6.15c-3.91,1.64-10.19,4.06-14.92,4.82Z"/><path class="cls-58" d="M1312,180.38l2.53,1a2.09,2.09,0,0,1,1.2,2.7l-3.41,8.84a.78.78,0,0,1-1.5-.22v0c0-1.28-.46-7.81-.46-7.81Z"/><path class="cls-66" d="M1272.66,107c.39.35-2.26-3.35-6.22.33-3.27,3.06-10.51,13.57-10.51,13.57l-15.38-6.08-1.88,3.19s15.68,10.46,18.17,10.69S1279.44,114.43,1272.66,107Z"/><path class="cls-59" d="M1251.36,190.11l4.73-.07c2.72-2.94,10.53-27,10.53-27s5-5.76,16.17-9.6c9.56-3.29,6.9-14.76,5.93-18-3.77,1.67-14.15,6-19.78,6-2.56,3.67-8.5,12.29-10,15.37C1257,160.75,1251.36,190.11,1251.36,190.11Z"/><path class="cls-65" d="M1265.75,161.74c1.43-3,8.84-7.32,16.71-10.18s4.41-15.35,4.41-15.37l1.85-.8c1,3.25,3.63,14.72-5.93,18-11.19,3.84-16.17,9.6-16.17,9.6s-7.81,24.08-10.52,27C1256.19,189.76,1264.33,164.73,1265.75,161.74Z"/><path class="cls-66" d="M1276.23,103.22a5.94,5.94,0,0,1,.72.53c1.31,1.1,3.94,4,4,9.41.11,7.24,6.1,19.67,9.15,21.59,0,0-14.46,6.78-21.36,6.67,0,0,.51-18.93-3.27-20.8-4.58-2.26.18-10.38,3.12-14.66Z"/><path class="cls-66" d="M1274.52,106.29c-6.19,5.54,4.2,9.2,14.86,16.75,8,5.65,18.59,14.13,18.59,14.13l3.09-2.54S1281.73,99.84,1274.52,106.29Z"/><path class="cls-59" d="M1263.72,94.74s0,0,0,0l0,0c1.67.74,2.93.16,4,1a12.45,12.45,0,0,0,3.13,1.51c1.7-.74,1.93,1.87.77,3.84s.76,3.56.76,3.56l-.06,0c.63.85,4.24,5.44,6.76,3.45,2.78-2.2,3.49,2.64,6.71,1.67s4.39,5.93,9.87,2.51,5.42-14-.39-13.73-5.35.46-8.51-3-6.9.26-8.84-.58-1.22-6.45-6.45-6.19S1263,90.77,1263.72,94.74Z"/><path class="cls-62" d="M1263.74,94.74s-4.09,9.89,3.58,9.6l1.32,1.58,3.72-1.27s-1.91-1.6-.75-3.56.93-4.58-.77-3.84a12.08,12.08,0,0,1-3.13-1.51C1266.68,94.9,1265.42,95.48,1263.74,94.74Z"/><path class="cls-62" d="M1240.44,115s-3.69-1.87-4.26-.11,2.74,2.89,2.74,2.89Z"/><path class="cls-58" d="M1338.82,189.94h0a1,1,0,0,1-1.36-.41l-26.35-48.83a1,1,0,0,1,.4-1.36h0a1,1,0,0,1,1.36.41l26.35,48.84A1,1,0,0,1,1338.82,189.94Z"/><rect class="cls-67" x="1327.86" y="142.76" width="14.67" height="45.83" rx="2.62" transform="translate(81.52 654.03) rotate(-28.36)"/><path class="cls-68" d="M1319.72,148a.3.3,0,0,0,0,.1L1339,183.86a2.62,2.62,0,0,0,3.55,1.06l8.29-4.48a2.28,2.28,0,0,0,.44-.3,2.62,2.62,0,0,1-1.1,3.46l-8.29,4.47a2.62,2.62,0,0,1-3.56-1.06L1319.1,151.3A2.63,2.63,0,0,1,1319.72,148Z"/><path class="cls-58" d="M1344,186a6,6,0,1,1-8.13-2.43A6,6,0,0,1,1344,186Z"/><path class="cls-25" d="M1340.79,187.74a2.34,2.34,0,1,1-3.16-1A2.34,2.34,0,0,1,1340.79,187.74Z"/><path class="cls-62" d="M1308,137.17s3.44,3.94,5,2.15-1.86-4.69-1.86-4.69Z"/><path class="cls-69" d="M1273.81,107c-3.38,3.8,1.16,6.8,7.88,11,1.69,6.94,6,15.2,8.44,16.74,0,0-1.28.6-3.27,1.44a51,51,0,0,1-5.39-11.91,16.37,16.37,0,0,0-7.22-10.09c-4.42-2.92-.48-7.22-.48-7.22Z"/><path class="cls-69" d="M1263.85,121.17c.59.37.7,1.68.66,2.88.74-.61,1.5-1.26,2.24-1.94a3.13,3.13,0,0,0-1.25-1.49c-4.54-2.23.1-10.22,3-14.53h0c-.73,1-5.94,7.78-6,10C1262.35,118.43,1262.66,120.42,1263.85,121.17Z"/><path class="cls-58" d="M1256.09,190v2.72a2.09,2.09,0,0,1-2.09,2.09h-9.47a.78.78,0,0,1-.34-1.48l0,0c1.18-.49,7.12-3.24,7.12-3.24Z"/><path class="cls-58" d="M1263.81,92.46c.72-2.35,3.57-3.42,7.65-3.62,5.23-.26,4.52,5.35,6.45,6.19s5.68-2.84,8.84.58,2.71,3.22,8.51,3c3.76-.16,5.11,4.21,4.11,8.24-1.24-3.62-5.73-5.23-9.43-4.82-5.15.57-3.24-1.24-4.1-4.1s-1.71-2.67-6-.28-4.3-3.46-7.34-6.58C1269.21,87.66,1264.93,91.38,1263.81,92.46Z"/></g></g></svg>