<svg id="Layer_1" data-name="Layer 1" xmlns="http://www.w3.org/2000/svg" xmlns:xlink="http://www.w3.org/1999/xlink" viewBox="0 0 1400 200"><defs><style>.cls-1{fill:#f3feff;}.cls-2{fill:#d9e7ff;}.cls-3{fill:#98bcff;}.cls-3,.cls-37{opacity:0.7;}.cls-4{fill:#dceaff;}.cls-5{fill:#bfdcff;}.cls-27,.cls-33,.cls-5{opacity:0.5;}.cls-6{fill:#97c0f8;}.cls-7{fill:url(#linear-gradient);}.cls-8{fill:url(#linear-gradient-2);}.cls-9{fill:#0b3563;}.cls-10{fill:url(#linear-gradient-3);}.cls-11{fill:#10477b;}.cls-12{fill:#8ab46c;}.cls-13{fill:#ffae73;}.cls-14{fill:#fc9f38;}.cls-15{fill:#e65f00;}.cls-16{fill:#6b98f6;}.cls-17{fill:#4681e1;}.cls-18{fill:#083057;}.cls-19{fill:#0d458e;}.cls-20{fill:#1e3865;}.cls-21{fill:#f48f4e;}.cls-22{fill:url(#linear-gradient-4);}.cls-23{fill:#25468f;}.cls-24{fill:#f28018;}.cls-25{fill:#d4e1ff;}.cls-26{fill:url(#linear-gradient-5);}.cls-27{fill:#f07100;}.cls-28{fill:#2c5cb4;}.cls-29{fill:#e7efff;}.cls-30{fill:#ff9223;}.cls-31{fill:url(#linear-gradient-6);}.cls-32{fill:#007cff;}.cls-34{fill:#c0fff7;}.cls-35{fill:#1a2e35;}.cls-36,.cls-40,.cls-42,.cls-45,.cls-57{fill:#fff;}.cls-36{opacity:0.8;}.cls-38{fill:url(#linear-gradient-7);}.cls-39,.cls-57{opacity:0.9;}.cls-41,.cls-51{opacity:0.6;}.cls-42,.cls-47,.cls-50{opacity:0.2;}.cls-43{fill:url(#linear-gradient-8);}.cls-44{fill:url(#linear-gradient-9);}.cls-45{opacity:0.3;}.cls-46{fill:#fcc1bb;}.cls-48{fill:url(#linear-gradient-10);}.cls-49{opacity:0.1;}.cls-50{isolation:isolate;}.cls-52{fill:url(#linear-gradient-11);}.cls-53{fill:url(#linear-gradient-12);}.cls-54{fill:url(#linear-gradient-13);}.cls-55{opacity:0.4;}.cls-56{fill:url(#linear-gradient-14);}</style><linearGradient id="linear-gradient" x1="1332.11" y1="96.56" x2="1348.33" y2="96.56" gradientUnits="userSpaceOnUse"><stop offset="0" stop-color="#186d37"/><stop offset="1" stop-color="#429340"/></linearGradient><linearGradient id="linear-gradient-2" x1="1304.41" y1="65.83" x2="1319.99" y2="65.83" xlink:href="#linear-gradient"/><linearGradient id="linear-gradient-3" x1="1329.5" y1="176.46" x2="1356.89" y2="176.46" xlink:href="#linear-gradient"/><linearGradient id="linear-gradient-4" x1="1312.93" y1="63.1" x2="1340.43" y2="63.1" xlink:href="#linear-gradient"/><linearGradient id="linear-gradient-5" x1="1256.13" y1="101.1" x2="1298.85" y2="101.1" xlink:href="#linear-gradient"/><linearGradient id="linear-gradient-6" x1="158.73" y1="132.84" x2="176.39" y2="132.84" xlink:href="#linear-gradient"/><linearGradient id="linear-gradient-7" x1="91.65" y1="69.37" x2="149.52" y2="69.37" xlink:href="#linear-gradient"/><linearGradient id="linear-gradient-8" x1="41.08" y1="173.3" x2="52.99" y2="173.3" xlink:href="#linear-gradient"/><linearGradient id="linear-gradient-9" x1="22.19" y1="173.3" x2="47.34" y2="173.3" xlink:href="#linear-gradient"/><linearGradient id="linear-gradient-10" x1="73.01" y1="99.82" x2="90.78" y2="99.82" xlink:href="#linear-gradient"/><linearGradient id="linear-gradient-11" x1="50.36" y1="104.61" x2="67.92" y2="104.61" xlink:href="#linear-gradient"/><linearGradient id="linear-gradient-12" x1="66.61" y1="104.55" x2="77.44" y2="104.55" xlink:href="#linear-gradient"/><linearGradient id="linear-gradient-13" x1="42.98" y1="103.26" x2="54.66" y2="103.26" xlink:href="#linear-gradient"/><linearGradient id="linear-gradient-14" x1="146.28" y1="84.59" x2="197.55" y2="84.59" xlink:href="#linear-gradient"/></defs><rect class="cls-1" width="1400" height="200"/><path class="cls-1" d="M1171.17,199.74s-29.65-30.41-10.77-66.17,44.23-17.77,43-59.4,58.3-45.19,77.24-33.11,18.82,26.62,57.93,21.82,46.57,35.3,36.39,55.74c-14.45,29,40.06,24.22,5.7,81.2Z"/><path class="cls-2" d="M1354.83,99a48.74,48.74,0,0,1-.78,8.68,48.17,48.17,0,0,1-91.42,10.82,47.05,47.05,0,0,1-2.45-6.93,48.52,48.52,0,0,1-.57-22.81l0-.12a48.08,48.08,0,0,1,13-23.66,47,47,0,0,1,5.83-5q1.48-1.08,3.06-2a47.86,47.86,0,0,1,25.18-7.11c1.23,0,2.44,0,3.64.14a47.57,47.57,0,0,1,23.85,8.47h0a48.2,48.2,0,0,1,9.29,8.46,45.79,45.79,0,0,1,3.92,5.34c.74,1.16,1.43,2.36,2.07,3.59A48,48,0,0,1,1354.83,99Z"/><path class="cls-3" d="M1290.31,77.44c-1.92,3,.81,8.33-5,6.89s-9.29-2.09-9.61,1.11,4.33,3.21,4.33,6.57-2.08,4.48-5.29,2.88-4.12-3.92-7.84-2.48-5.89.48-6.73-2.4a4,4,0,0,0-.6-1.26l0-.12a48.08,48.08,0,0,1,13-23.66,47,47,0,0,1,5.83-5q1.48-1.08,3.06-2a6.31,6.31,0,0,1,4.82,2.51c3.37,4.17,5.61,2.09,4.81,6.89s.48,5.45,3.2,5.29,5.92-.17,6.24,1.92S1292.24,74.4,1290.31,77.44Z"/><path class="cls-3" d="M1310.25,106.26s-4.24,1.36-5.36-1.6.16-3.6-3.61-4.48-4.08-3.45-6.48-3.13-1.2,1.29-4,3.37-5.37,1.12-5.29,5,4.24,4.45,5.09,7-.61,3.6,1.2,5.52,5.16,1.08,3.6,3.72-4,4.69-2.76,8.77.36,4.33,2.4,7.21,6,3.84,6.6,1.92-2.76-4.44-1.68-6.37,2.89-.6,3.61-3.48,3.64-2.88,3.88-4.88-3.52-5.05-2.08-6.33,4.32,2.32,6.56-.88.72-5.76,3-8.81S1311.85,104.5,1310.25,106.26Z"/><path class="cls-3" d="M1354.83,99a48.74,48.74,0,0,1-.78,8.68,48,48,0,0,1-7.6,18.47,5.49,5.49,0,0,1-3.85-.1c-6-2.4-1.56-8.89.84-12.13s-3.72-1.8-8.17-4.81.48-11-4.08-9.72-10.09,3-12.73-1.45,2.4-5.16.12-8.88,1.32-5.89,5.88-6.25,4-3.6,9.61-4.08,5.53,6.72,11.77,6.24,6,1,6,1a2.86,2.86,0,0,1,1.31.27A48.15,48.15,0,0,1,1354.83,99Z"/><path class="cls-3" d="M1349.44,76.84c-5.19,2.52-7.28-4.35-11.72-2.28s-3.69-1.92-7.21-4.49-10.57,2.08-10.25-1.92,5.6-2.88,6.73-6.08,6.24-2.41,6.24-2.41a3.5,3.5,0,0,1,.93-.21h0a48.2,48.2,0,0,1,9.29,8.46,45.79,45.79,0,0,1,3.92,5.34C1348.11,74.41,1348.8,75.61,1349.44,76.84Z"/><path class="cls-3" d="M1305.69,63s2.72-3.93-1.6-5.09-4.25.36-7.61,0-4.68,2.24-2.16,5.09,4.56,8.29,6.84,5.39S1303,63.31,1305.69,63Z"/><path class="cls-4" d="M1386.25,177.12c1.91-6.11-7.91-10.09-7.91-10.09s-11.78,5.3-13.65,4.41,9.19-6.5,9.19-6.5c-3.16-2.47-14.35-3.82-14.35-3.82s-6.25,11-7.84,9.65,6-9.44,6-9.44c-3.88-1.1-9.34.76-9.34.76-7.74,3.75-4.76,17.26-9.74,20h0a14.58,14.58,0,0,0-2.38,1.45l.89.56a8.32,8.32,0,0,1,.68-.53h0l.62-.41h0c.61-.36,1-.63,1.34-.84h0a27.21,27.21,0,0,1,5.51-2.53c-.56,4.23,6.68,9.62,11.46,11.45s3.7-.54,2.66-3.93-6.13-5.92-7.06-7.58,1.62-1.11,4.3.91,2.29,5.74,6.57,9.08,13.22-3,13.22-3c-3.77-1-8.3-6.37-7.83-7.59s8.76,4.22,10.27,4.73S1384.34,183.22,1386.25,177.12Z"/><path class="cls-4" d="M1347.83,116.2c8.16.92,7.75,14.51,7.75,14.51s-12.32,11.08-12.25,13.74,12.39-7.42,12.39-7.42c1.27,5-3,18.82-3,18.82s-16.11,1.65-15.38,4.21,14.19-2.19,14.19-2.19c-.71,5.12-5.72,10.57-5.72,10.57-8.42,7.14-22.72-3.34-28.56,1.06h0a18.38,18.38,0,0,1-2.93,2.05l-.2-1.34a10.12,10.12,0,0,0,1-.52h0l.79-.52h0c.73-.53,1.28-.9,1.68-1.14h0c2.32-1.6,6-5.08,5.81-5.15-5.24-1.53-7.82-12.82-7.49-19.38s2.54-4.07,6-1.09,3.78,10.27,5.25,12.22,2.13-1.33,1.15-5.52-5.54-5.66-7.25-12.41,10.37-14,10.37-14c-.74,5,3.18,13,4.86,13.11s-.42-12.46-.23-14.49S1339.68,115.29,1347.83,116.2Z"/><path class="cls-5" d="M1349.65,161.48s3.52-12.55,11.26-19.17a1.45,1.45,0,0,1,2.36,1.36v.07C1362.82,146,1354,154.49,1349.65,161.48Z"/><path class="cls-5" d="M1348.28,165s9-15,21.28-20.31a1.55,1.55,0,0,1,2,.71,2.43,2.43,0,0,1-.24,2.18C1370,150.27,1356.08,157.8,1348.28,165Z"/><path class="cls-5" d="M1352.29,155.53s15-9,20.31-21.28a1.53,1.53,0,0,0-.71-2,2.43,2.43,0,0,0-2.18.24C1367,133.81,1359.51,147.73,1352.29,155.53Z"/><path class="cls-6" d="M1257.67,64.61a16.42,16.42,0,0,0-9.59-.91s6.18-.42,9.85,3.51c0,0,2.57-3.94,6.81-4.84C1264.74,62.37,1261.58,62,1257.67,64.61Z"/><path class="cls-6" d="M1245.87,62.71a12.73,12.73,0,0,0-7.42-.74s4.79-.3,7.61,2.75a9.43,9.43,0,0,1,5.29-3.71A8.89,8.89,0,0,0,1245.87,62.71Z"/><path class="cls-6" d="M1235.46,61.28a11.6,11.6,0,0,0-6.78-.4s4.34-.45,7,2.22a8.55,8.55,0,0,1,4.66-3.58A8,8,0,0,0,1235.46,61.28Z"/><path class="cls-6" d="M1229.62,58.26a7.85,7.85,0,0,0-4.6.17,6.51,6.51,0,0,1,4.88,1,5.82,5.82,0,0,1,2.92-2.71A5.46,5.46,0,0,0,1229.62,58.26Z"/><path class="cls-6" d="M1250.52,50.86a7.74,7.74,0,0,0-4.59-.08,6.48,6.48,0,0,1,4.81,1.3,5.86,5.86,0,0,1,3.06-2.55A5.45,5.45,0,0,0,1250.52,50.86Z"/><path class="cls-6" d="M1260.7,58a11.44,11.44,0,0,0-6.65-.76s4.3-.21,6.8,2.57a8.45,8.45,0,0,1,4.79-3.27A8,8,0,0,0,1260.7,58Z"/><path class="cls-6" d="M1256.68,53.48a10.56,10.56,0,0,0-6.17-.47s4-.34,6.37,2.14a7.83,7.83,0,0,1,4.31-3.19A7.37,7.37,0,0,0,1256.68,53.48Z"/><path class="cls-7" d="M1332.11,94.67c0,4.81,8.11,12.51,8.11,12.51s8.11-7.7,8.11-12.51-3.64-8.72-8.11-8.72S1332.11,89.85,1332.11,94.67Zm3.33-.51a4.78,4.78,0,1,1,4.78,4.77A4.78,4.78,0,0,1,1335.44,94.16Z"/><path class="cls-8" d="M1304.41,64c0,4.63,7.79,12,7.79,12s7.79-7.39,7.79-12-3.49-8.37-7.79-8.37S1304.41,59.39,1304.41,64Zm3.2-.49a4.59,4.59,0,1,1,4.59,4.59A4.6,4.6,0,0,1,1307.61,63.52Z"/><path class="cls-9" d="M1330.38,192.83H1356a0,0,0,0,1,0,0v.69a3.09,3.09,0,0,1-3.09,3.09h-19.22a3.34,3.34,0,0,1-3.34-3.34v-.44A0,0,0,0,1,1330.38,192.83Z"/><path class="cls-10" d="M1356.89,161.16v30.6a4.68,4.68,0,0,1-.12,1.07h-3.59a2.81,2.81,0,0,0-1.51.44,2.93,2.93,0,0,0-.71.65,2.8,2.8,0,0,0-.59,1.73v.95h-14.06v-.95a2.8,2.8,0,0,0-1.27-2.35,2.52,2.52,0,0,0-.7-.34,3,3,0,0,0-.85-.13h-3.88a5.32,5.32,0,0,1-.11-1.07v-30.6a4.84,4.84,0,0,1,4.84-4.85h17.71A4.84,4.84,0,0,1,1356.89,161.16Z"/><path class="cls-9" d="M1348.35,156.3c-6.34-2.5-10.77,0-10.81,0l-.23-.4a10.57,10.57,0,0,1,3.13-1,15.17,15.17,0,0,1,8.08,1Z"/><rect class="cls-9" x="1332.11" y="195.19" width="1.86" height="2.53"/><path class="cls-11" d="M1331.71,198.1a1.32,1.32,0,1,1,1.32,1.32A1.33,1.33,0,0,1,1331.71,198.1Z"/><path class="cls-9" d="M1332.23,198.1a.81.81,0,0,1,1.61,0,.81.81,0,0,1-1.61,0Z"/><rect class="cls-9" x="1351.19" y="195.19" width="1.86" height="2.53"/><path class="cls-11" d="M1350.8,198.1a1.32,1.32,0,1,1,1.32,1.32A1.32,1.32,0,0,1,1350.8,198.1Z"/><path class="cls-9" d="M1351.32,198.1a.8.8,0,1,1,.8.8A.8.8,0,0,1,1351.32,198.1Z"/><path class="cls-12" d="M1335,156.31v37a2.52,2.52,0,0,0-.7-.34V156.31Z"/><rect class="cls-12" x="1339.99" y="156.31" width="0.71" height="40.29"/><rect class="cls-12" x="1345.26" y="156.31" width="0.71" height="40.29"/><path class="cls-12" d="M1351.67,156.31v37a2.93,2.93,0,0,0-.71.65V156.31Z"/><path class="cls-13" d="M1314.19,140.47c0-.05.77-1.65.53-1.77s-.69-.1-.74.17A10,10,0,0,0,1314.19,140.47Z"/><path class="cls-13" d="M1314.48,141.43a9.51,9.51,0,0,0-.58-3c-.4-.47-1.23-1.15-1.49-1.13a2.54,2.54,0,0,0-1,2.4,8.42,8.42,0,0,0,1.59,2.43Z"/><rect class="cls-14" x="1312.76" y="134.01" width="2.75" height="4.97" rx="0.15" transform="translate(16.14 383.04) rotate(-16.68)"/><rect class="cls-15" x="1312.26" y="134.16" width="2.75" height="4.97" rx="0.26" transform="translate(16.08 382.92) rotate(-16.69)"/><path class="cls-13" d="M1312.17,137.44s1-1.5,1.22-1.42-.89,2-.89,2,.91-1.43,1-1.32c.33.25-.19,1.14-.7,1.83,0,0,.92-.84,1-.69.1.53-1,1.81-1,1.81l-.62-1.41Z"/><path class="cls-13" d="M1311.44,138.84a30.83,30.83,0,0,1,.39-3.44c.1.34.34,2.23.34,2.23Z"/><path class="cls-16" d="M1327.05,137.85a26.94,26.94,0,0,1-1.23,7.06c-.89,2.49-2.42,4.51-5,3.77l-.78-.25h0a12,12,0,0,1-7-6.11,2.72,2.72,0,0,1,1.54-.89c1.08,0,5.79,2.06,6.09,2.12,1.1.22,2-5.78,2.69-7.86s3.61-3,3.61-3Z"/><path class="cls-17" d="M1325.92,142.1l-.1,2.81c-.89,2.49-2.42,4.51-5,3.77l-.78-.25c.09,0,1.69.23,2.37-.44s.61-3,1.89-4.51S1325.92,142.1,1325.92,142.1Z"/><path class="cls-18" d="M1326.07,193.59s1.31,1.2,1,2-1.44,1.41-1.6,2.45-.8,1.61-1.37,1.61h-2.75s-.42-.73.6-.95,1.41-1.44,1.35-2.58a19.27,19.27,0,0,1,.09-2.64l2.18-.51Z"/><path class="cls-9" d="M1311.61,199.48h8.09a.57.57,0,0,0,.58-.57,4,4,0,0,0-.28-1.74c-.44-1-.71-1.12,1.11-3.91-.54.57-2,.31-3.27.14a38,38,0,0,1-3,4.19C1314.3,198,1311.79,197.85,1311.61,199.48Z"/><path class="cls-9" d="M1324.21,154.65s-5.86,11.06-7.45,17.15c-1.24,4.73,6.31,23,6.31,23a6,6,0,0,0,1.62-.44,2.61,2.61,0,0,0,1.36-1.43s-.45-13.07-2-19.4c-.35-1.42,1.66-6,5-8.51s4.79-10.58,2.78-11.13S1324.21,154.65,1324.21,154.65Z"/><path class="cls-19" d="M1329.23,151.51s-6.16,22.59-8,27.66-4.84,15.84-4.84,15.84a7.81,7.81,0,0,0,4.28.46s9-13.2,9.4-19c.18-2.7,9.24-13.39,8.23-20.36Z"/><path class="cls-16" d="M1338.26,158.56a10.81,10.81,0,0,1-3.63.86h0a20,20,0,0,1-11.47-2.87s-1.35-1.11.31-5.84c1.25-3.59,1.86-11.14,3.4-18,0,0,5-1.56,9-.21,3.05,1,2.74,5.71,3.31,10.58,0,.45.11.91.18,1.36C1340.15,149.75,1338.26,158.56,1338.26,158.56Z"/><path class="cls-20" d="M1325.11,122.5s3.4-5.53,6-2.68c0,0,1.71.44,2.7,3.11s-.56,5.14-1.61,4.75c-.67-.25-1,.91-1,.91Z"/><path class="cls-20" d="M1330.62,119.38s.23-2.29,3.57-2.06c0,0-1.58,0-1.92.68a2.58,2.58,0,0,1,2-.38c.84.36,1.19,1.93,1.15,2.43s-.69,2.06-1.26,2.14a2.66,2.66,0,0,1-1.3-.31Z"/><path class="cls-13" d="M1332.3,132.34a15.42,15.42,0,0,1-1.16-4.39l-.2.07-3.37,1.19s.23,1.08.39,2.11c.06.42.1,1.17.13,1.83s.69.73,1.36.7C1331.23,133.77,1332.22,133.1,1332.3,132.34Z"/><path class="cls-21" d="M1327.57,129.21s.23,1.08.39,2.11c1.93-.34,2.7-2.26,3-3.3Z"/><path class="cls-20" d="M1331.25,127.59a10.41,10.41,0,0,0,.83-3.17c0-1-1-4.57-4.58-3.52a5.1,5.1,0,0,0-2,1.08c-.71.65-1.69,2,0,5l.48,1Z"/><path class="cls-13" d="M1327.06,130.28s4.61-.59,4.2-3.45-.09-4.87-3-4.62-3.38,1.43-3.47,2.42S1325.85,130.36,1327.06,130.28Z"/><path class="cls-20" d="M1326.1,122.44s1.75,3.18,3.75,3.4a3.85,3.85,0,0,0,2.77-.42,5.54,5.54,0,0,1-2.26-3S1326.82,120.71,1326.1,122.44Z"/><path class="cls-20" d="M1326.46,122.67a4.08,4.08,0,0,0-1,1.65c-.12.76,0,2.28-.46,2.29,0,0-1.27-2.15-.39-3.59S1326.46,122.67,1326.46,122.67Z"/><path class="cls-20" d="M1326.3,122.81s1.4,3.39,4,4.16c0,0-2.75-1.81-3.29-4.1S1326.3,122.81,1326.3,122.81Z"/><path class="cls-17" d="M1338.26,158.56a10.81,10.81,0,0,1-3.63.86h0a4.06,4.06,0,0,1,.22-5.07c2.12-2.67-.17-7.61,1.47-10.3,1.14-1.87,2.25-1.43,2.82-1,0,.45.11.91.18,1.36C1340.15,149.75,1338.26,158.56,1338.26,158.56Z"/><path class="cls-13" d="M1346.62,154.59s.28.66.68.7a8.77,8.77,0,0,1,2.06.73c.52.31.49,1.7,0,1.83s-.79-1-2.42-1.35c-.55-.1-1.36.28-1.69-1.05Z"/><path class="cls-16" d="M1335.83,132.48c4.74,1.74,4.92,10.15,7,13.85a97.29,97.29,0,0,1,4.31,8.84s0,.15-.85.39a3.45,3.45,0,0,1-1.17.09,72.92,72.92,0,0,1-5.7-5.65c-1.22-1.6-4.09-9-4.09-9S1333.94,131.78,1335.83,132.48Z"/><path class="cls-13" d="M1345.34,155.78a1.8,1.8,0,0,0,.82,1c.7.46,1.26.92,1.33.63s-.39-.58-.5-1.11S1345.34,155.78,1345.34,155.78Z"/><path class="cls-22" d="M1340.22,84a.21.21,0,0,1-.22-.2l-.11-1.06a.23.23,0,0,1,.19-.24.22.22,0,0,1,.24.2c.08.68.11,1.06.11,1.06a.22.22,0,0,1-.19.24Zm-.23-2.12a.22.22,0,0,1-.22-.19q0-.48-.12-1.05a.22.22,0,0,1,.19-.24.23.23,0,0,1,.25.19q.06.57.12,1a.22.22,0,0,1-.19.24Zm-.25-2.1a.22.22,0,0,1-.22-.19c0-.33-.08-.68-.13-1a.22.22,0,1,1,.43-.06c0,.36.09.71.14,1a.22.22,0,0,1-.19.24Zm-.28-2.09a.21.21,0,0,1-.21-.19l-.15-1a.22.22,0,0,1,.19-.25.21.21,0,0,1,.24.18q.08.54.15,1.05a.22.22,0,0,1-.19.25Zm-.3-2.09a.21.21,0,0,1-.21-.19c0-.34-.11-.69-.16-1a.22.22,0,1,1,.43-.07c.06.36.11.71.16,1a.22.22,0,0,1-.18.25Zm-.32-2.09a.21.21,0,0,1-.21-.18c-.06-.34-.12-.69-.17-1a.22.22,0,0,1,.18-.25.22.22,0,0,1,.25.18c0,.35.11.7.17,1a.22.22,0,0,1-.18.25Zm-.35-2.08a.22.22,0,0,1-.21-.18l-.18-1a.22.22,0,0,1,.17-.25.22.22,0,0,1,.26.17l.18,1a.23.23,0,0,1-.18.26Zm-.37-2.08a.21.21,0,0,1-.21-.18c-.07-.34-.13-.68-.2-1a.23.23,0,0,1,.18-.26.22.22,0,0,1,.25.18c.07.34.13.69.2,1a.23.23,0,0,1-.18.26Zm-.4-2.07a.21.21,0,0,1-.21-.18l-.21-1a.22.22,0,0,1,.17-.26.23.23,0,0,1,.26.17l.21,1a.23.23,0,0,1-.17.26Zm-.43-2.07a.21.21,0,0,1-.21-.17c-.07-.34-.15-.68-.22-1a.22.22,0,1,1,.42-.1c.08.34.15.69.23,1a.22.22,0,0,1-.17.26Zm-.46-2.05a.21.21,0,0,1-.21-.17l-.24-1a.21.21,0,0,1,.16-.26.21.21,0,0,1,.26.16c.08.34.17.69.25,1a.22.22,0,0,1-.17.26Zm-.5-2.06a.22.22,0,0,1-.21-.16c-.08-.34-.17-.68-.26-1a.22.22,0,1,1,.42-.11l.27,1a.23.23,0,0,1-.16.27Zm-.54-2a.22.22,0,0,1-.21-.16c-.09-.33-.19-.67-.28-1a.22.22,0,0,1,.15-.27.23.23,0,0,1,.27.15c.09.34.19.68.28,1a.22.22,0,0,1-.15.27Zm-.58-2a.21.21,0,0,1-.21-.16c-.11-.33-.21-.67-.32-1a.22.22,0,0,1,.14-.27.22.22,0,0,1,.28.14c.11.33.21.67.31,1a.22.22,0,0,1-.14.27Zm-.65-2a.24.24,0,0,1-.21-.15c-.11-.33-.22-.67-.34-1a.22.22,0,1,1,.41-.15c.12.33.23.67.35,1a.22.22,0,0,1-.14.28Zm-21.41-.7-.08,0a.22.22,0,0,1-.13-.28c.08-.19.16-.38.23-.57a.22.22,0,1,1,.41.17c-.08.18-.15.37-.23.56A.2.2,0,0,1,1313.15,54.32Zm20.7-1.29a.2.2,0,0,1-.2-.14c-.13-.33-.26-.66-.39-1a.23.23,0,0,1,.12-.29.23.23,0,0,1,.29.12c.13.32.26.65.38,1a.21.21,0,0,1-.12.28Zm-20.07-.25-.09,0a.21.21,0,0,1-.11-.28c.14-.33.28-.66.43-1a.22.22,0,0,1,.29-.11.22.22,0,0,1,.1.29q-.21.47-.42,1A.23.23,0,0,1,1313.78,52.78Zm19.27-1.7a.23.23,0,0,1-.2-.13c-.14-.33-.28-.65-.43-1a.23.23,0,0,1,.11-.29.22.22,0,0,1,.29.11c.14.31.29.63.43,1a.22.22,0,0,1-.11.29Zm-18.39-.21a.17.17,0,0,1-.1,0,.22.22,0,0,1-.1-.29c.16-.32.32-.64.48-.94a.22.22,0,0,1,.3-.09.22.22,0,0,1,.09.29l-.48.93A.22.22,0,0,1,1314.66,50.87Zm17.49-1.7a.22.22,0,0,1-.19-.12l-.49-.92a.2.2,0,0,1,.08-.29.22.22,0,0,1,.3.08l.5.93a.23.23,0,0,1-.1.3ZM1315.64,49a.19.19,0,0,1-.1,0,.22.22,0,0,1-.08-.3c.18-.31.36-.62.54-.91a.24.24,0,0,1,.31-.07.21.21,0,0,1,.06.3l-.54.9A.21.21,0,0,1,1315.64,49Zm15.48-1.67a.23.23,0,0,1-.19-.11c-.19-.3-.38-.59-.57-.86a.22.22,0,0,1,.05-.31.21.21,0,0,1,.3.06c.2.28.4.57.59.88a.2.2,0,0,1-.07.3A.15.15,0,0,1,1331.12,47.34Zm-14.35-.11a.19.19,0,0,1-.12,0,.21.21,0,0,1-.06-.3c.21-.3.43-.59.64-.86a.22.22,0,0,1,.31,0,.21.21,0,0,1,0,.3l-.62.84A.21.21,0,0,1,1316.77,47.23Zm13.13-1.61a.19.19,0,0,1-.17-.08c-.23-.27-.46-.53-.69-.76a.22.22,0,0,1,0-.31.21.21,0,0,1,.31,0,9.38,9.38,0,0,1,.71.8.2.2,0,0,1,0,.3A.18.18,0,0,1,1329.9,45.62Zm-11.82,0a.2.2,0,0,1-.14-.06.22.22,0,0,1,0-.31c.25-.27.51-.53.76-.76a.23.23,0,0,1,.31,0,.22.22,0,0,1,0,.31c-.24.23-.48.47-.72.73A.25.25,0,0,1,1318.08,45.59Zm1.56-1.42a.21.21,0,0,1-.18-.09.23.23,0,0,1,0-.31,9.24,9.24,0,0,1,.9-.59.22.22,0,0,1,.3.08.21.21,0,0,1-.08.3,7.32,7.32,0,0,0-.85.56A.24.24,0,0,1,1319.64,44.17Zm8.78,0a.23.23,0,0,1-.14,0,6.23,6.23,0,0,0-.83-.58.23.23,0,0,1-.08-.3.22.22,0,0,1,.3-.08,7.15,7.15,0,0,1,.89.62.22.22,0,0,1,0,.3A.2.2,0,0,1,1328.42,44.13Zm-7-1a.2.2,0,0,1-.2-.14.21.21,0,0,1,.12-.28,7.79,7.79,0,0,1,1-.32.22.22,0,0,1,.26.16.22.22,0,0,1-.17.26,7.27,7.27,0,0,0-1,.31Zm5.16,0h-.08a4,4,0,0,0-.49-.15,4.85,4.85,0,0,0-.49-.11.22.22,0,0,1-.17-.26.2.2,0,0,1,.25-.17l.52.11a4.68,4.68,0,0,1,.53.17.22.22,0,0,1-.07.42Zm-2.06-.41h0a8.68,8.68,0,0,0-1,0,.22.22,0,0,1,0-.44,7.8,7.8,0,0,1,1.08,0,.21.21,0,0,1,.2.23A.21.21,0,0,1,1324.56,42.68Z"/><path class="cls-16" d="M1300.26,84.65l-4,13.69h-.12l-13.51-1.64s6.25-1.31,6.9-2.06,7.11-9.1,9-10a.56.56,0,0,1,.3-.08Z"/><path class="cls-23" d="M1296.19,98.33l-13.51-1.64s6.25-1.31,6.9-2.06,7.11-9.1,9-10c-1.68,2.44-5.58,8.31-5.41,10S1295.24,97.71,1296.19,98.33Z"/><path class="cls-24" d="M1297.64,102.45c-.46.16-1.83.59-3.72,1.14-5.44,1.58-15.11,4.12-19.38,3.81-3.82-.28-24.07-1.83-38.07-3.06a25.77,25.77,0,0,1,11.48-11c16.31,1.34,37.65,3.15,40.36,3.67,4.47.86,10.39,1.57,10.39,1.57s0,.18.08.46C1298.91,99.94,1299,102,1297.64,102.45Z"/><path class="cls-25" d="M1298.85,100v.1a2.86,2.86,0,0,1-.69,2.05l-.06,0a.48.48,0,0,1-.11.09h0l-.07,0-.06,0h0l-.07,0-.07,0-.07,0h-.29l-.07,0h-.1l-.34.11-.07,0-1.18.36-.15,0-.24.07-.06,0-.07,0-.08,0-.08,0-.08,0-.08,0-.08,0-.08,0h0l-.08,0h-.09l-.08,0-.43.13-.26.08-.23.06-.17,0-.69.2-.14,0-.25.07-.23.06-.25.07c-2.83.79-6.25,1.67-9.43,2.3l-.33.07-.17,0-.33.07-1,.17-.32.06-.16,0-.31,0-.31,0-.31,0-.3,0-.3,0-.3,0H1278l-.57.07h-.14l-.27,0-.53,0-.38,0h-.61c-.15,0-.31,0-.45,0h-.67l-.2,0H1273l-.23,0-.72-.05h-.29l-.29,0h-.13l-.29,0h-.31l-.22,0h-.41L1269,107l-.17,0h-.25l-.6,0h0l-.53-.05h0l-3.47-.27h-.18l-.75-.06-.48,0h0l-.55,0h-.07l-1-.08-.25,0h-.08l-.88-.07-.39,0-.26,0-.52,0-.8-.07h-.07l-.32,0h0l-1-.08h-.13l-.58,0-.44,0-.28,0-1.14-.09h0l-1.93-.16-.26,0h0l-.85-.07-.26,0-.73-.06-1.48-.12-.94-.08-.59,0-1.4-.11h-.06l-.88-.07-1.24-.1-.49,0h-.15l-1-.08h-.15l-.67-.06-2.79-.24-.33,0-.2,0-.27,0-.53,0c-3.39-.29-6.42-.57-8.76-.81l-.69-.07-1.52-.17c-1.3-.14-2.18-.27-2.53-.35a26.5,26.5,0,0,1-7-3c-1.16-.78-1.89-1.59-1.62-2.25a3.53,3.53,0,0,1,1.84-1.73c.66-.32,1.33-.55,1.77-.8l.08-.05.21-.15,0,0c.18-.16.46-.42.87-.73a10.41,10.41,0,0,1,1-.65h0a15,15,0,0,1,8.83-1.72s8.44.66,19,1.53h0l3.2.26h0l1.09.09,1.65.13h0l2.77.23.56,0,1.12.09,2.23.19,1.12.1,3.94.33h0c3.76.32,7.35.64,10.54.93h0l.5,0,5.12.48,2,.2c2.28.24,3.86.42,4.48.54,1.61.31,3.41.6,5,.85l.4.06h0l.6.09h0l.67.09.91.13.36,0,2.36.3a.31.31,0,0,1,0,.07h0v0s0,.07,0,.11,0,.11,0,.18h0v0a1.11,1.11,0,0,1,0,.19l0,.14v.08a.28.28,0,0,1,0,.09v.19a.31.31,0,0,0,0,.1V100Z"/><path class="cls-26" d="M1298.85,100v.1a2.86,2.86,0,0,1-.69,2.05l-.06,0a.48.48,0,0,1-.11.09h0l-.07,0-.06,0h0l-.07,0-.07,0-.07,0h-.29l-.07,0h-.1l-.34.11-.07,0-1.18.36-.15,0-.24.07-.06,0-.07,0-.08,0-.08,0-.08,0-.08,0-.08,0-.08,0h0l-.08,0h-.09l-.08,0-.43.13-.26.08-.23.06-.17,0-.69.2-.14,0-.25.07-.23.06-.25.07c-2.83.79-6.25,1.67-9.43,2.3l-.33.07-.17,0-.33.07-1,.17-.32.06-.16,0-.31,0-.31,0-.31,0-.3,0-.3,0-.3,0H1278l-.57.07h-.14l-.27,0-.53,0-.38,0h-.61c-.15,0-.31,0-.45,0h-.67l-.2,0H1273l-.23,0-.72-.05h-.29l-.29,0h-.13l-.29,0h-.31l-.22,0h-.41L1269,107l-.17,0h-.25l-.6,0h0l-.53-.05h0l-3.47-.27h-.18l-.75-.06-.48,0h0l-.55,0h-.07l-1-.08-.25,0h-.08l-.88-.07-.39,0-.26,0-.52,0-.8-.07h-.07l-.32,0h0l-1-.08h-.13a21,21,0,0,0,9.5-11.19h0c3.76.32,7.35.64,10.54.93h0l.5,0,5.12.48,2,.2c2.28.24,3.86.42,4.48.54,1.61.31,3.41.6,5,.85l.4.06h0l.6.09h0l.67.09.91.13.36,0,2.36.3a.31.31,0,0,1,0,.07h0v0s0,.07,0,.11,0,.11,0,.18h0v0a1.11,1.11,0,0,1,0,.19l0,.14v.08a.28.28,0,0,1,0,.09v.19a.31.31,0,0,0,0,.1V100Z"/><path class="cls-27" d="M1297.64,102.45c-.46.16-1.83.59-3.72,1.14a6,6,0,0,0-2.67-3.74l7.53-.85C1298.91,99.94,1299,102,1297.64,102.45Z"/><path class="cls-23" d="M1257.38,99h0a.48.48,0,0,1-.4-.54l0-.53a.49.49,0,0,1,.49-.46h0a.47.47,0,0,1,.4.54l0,.53A.48.48,0,0,1,1257.38,99Z"/><path class="cls-23" d="M1255.08,98.76h0a.47.47,0,0,1-.4-.54l0-.53a.49.49,0,0,1,.5-.46h0a.49.49,0,0,1,.4.54l0,.53A.48.48,0,0,1,1255.08,98.76Z"/><path class="cls-23" d="M1252.77,98.56h0a.47.47,0,0,1-.4-.54l.05-.53a.48.48,0,0,1,.49-.46h0a.47.47,0,0,1,.4.54l0,.53A.46.46,0,0,1,1252.77,98.56Z"/><path class="cls-23" d="M1250.46,98.37h0a.49.49,0,0,1-.4-.54l0-.53a.49.49,0,0,1,.49-.47h0a.49.49,0,0,1,.41.54l0,.53A.49.49,0,0,1,1250.46,98.37Z"/><path class="cls-23" d="M1248.16,98.17h0a.48.48,0,0,1-.4-.54l0-.53a.49.49,0,0,1,.5-.47h0a.49.49,0,0,1,.4.54l0,.53A.48.48,0,0,1,1248.16,98.17Z"/><path class="cls-23" d="M1245.85,98h0a.49.49,0,0,1-.4-.54l0-.53a.48.48,0,0,1,.49-.47h0a.48.48,0,0,1,.4.54l-.05.53A.48.48,0,0,1,1245.85,98Z"/><path class="cls-23" d="M1243.55,97.77h0a.49.49,0,0,1-.41-.54l0-.53a.48.48,0,0,1,.49-.46h0a.48.48,0,0,1,.41.53l0,.54A.49.49,0,0,1,1243.55,97.77Z"/><path class="cls-23" d="M1241.24,97.57h0a.47.47,0,0,1-.4-.54l.05-.53a.46.46,0,0,1,.49-.46h0a.48.48,0,0,1,.4.54l0,.53A.48.48,0,0,1,1241.24,97.57Z"/><path class="cls-23" d="M1238.93,97.37h0a.48.48,0,0,1-.4-.54l0-.53a.48.48,0,0,1,.49-.46h0a.47.47,0,0,1,.4.54l0,.53A.49.49,0,0,1,1238.93,97.37Z"/><path class="cls-23" d="M1236.67,97.17h0a.48.48,0,0,1-.4-.54l0-.53a.48.48,0,0,1,.49-.46h0a.47.47,0,0,1,.4.54l0,.53A.48.48,0,0,1,1236.67,97.17Z"/><path class="cls-23" d="M1234.37,97h0a.49.49,0,0,1-.41-.54l0-.53a.49.49,0,0,1,.5-.47h0a.49.49,0,0,1,.4.54l-.05.53A.49.49,0,0,1,1234.37,97Z"/><path class="cls-23" d="M1232.06,96.78h0a.48.48,0,0,1-.4-.54l0-.53a.48.48,0,0,1,.49-.47h0a.48.48,0,0,1,.4.54l0,.53A.48.48,0,0,1,1232.06,96.78Z"/><path class="cls-23" d="M1229.2,96.5h0a.48.48,0,0,1-.4-.54l0-.53a.48.48,0,0,1,.49-.46h0a.47.47,0,0,1,.4.54l0,.53A.48.48,0,0,1,1229.2,96.5Z"/><path class="cls-23" d="M1282.55,101.4h0a.46.46,0,0,1-.4-.53l0-.54a.49.49,0,0,1,.5-.46h0a.49.49,0,0,1,.4.54l0,.53A.47.47,0,0,1,1282.55,101.4Z"/><path class="cls-23" d="M1280.24,101.21h0a.49.49,0,0,1-.4-.54l.05-.53a.48.48,0,0,1,.49-.47h0a.47.47,0,0,1,.4.54l0,.53A.48.48,0,0,1,1280.24,101.21Z"/><path class="cls-23" d="M1277.94,101h0a.49.49,0,0,1-.41-.54l0-.53a.49.49,0,0,1,.49-.47h0a.49.49,0,0,1,.41.54l0,.53A.49.49,0,0,1,1277.94,101Z"/><path class="cls-23" d="M1220.57,93.53,1219,95l-.94.06.21-.15,0,0c.18-.16.46-.42.87-.73a10.41,10.41,0,0,1,1-.65h0Z"/><polygon class="cls-23" points="1220.91 93.58 1219.38 95.08 1221.12 95.45 1221.67 93.74 1220.91 93.58"/><polygon class="cls-23" points="1221.84 93.8 1221.43 95.4 1222.72 95.03 1222.81 93.92 1221.84 93.8"/><path class="cls-23" d="M1253.29,106.1a1.26,1.26,0,0,0,.29-1.95,3.82,3.82,0,0,0-2.19-1.07c-1.77-.13-1.05,3.48-.46,3.55A6.81,6.81,0,0,0,1253.29,106.1Z"/><path class="cls-28" d="M1291.1,99.13c.07-.1,6.67-2.27,11-1.33l-4.15,2.62-6.68-.57A.44.44,0,0,1,1291.1,99.13Z"/><path class="cls-25" d="M1287.91,83.9s-4.42,9.76-5.26,11.24a7.3,7.3,0,0,1-2.68,2.43h0l-11.71,4.75s-14.6-1.15-17.78-1.5h0l-.56-.07c-1-.21-1.42-.66-1.23-1s22.64-3,25.12-3.32h.07c2.42-.29,2.65-1.11,2.65-1.11l9.26-10.61a1.22,1.22,0,0,1,.54-.46A4.3,4.3,0,0,1,1287.91,83.9Z"/><path class="cls-16" d="M1286.32,84.24c-2.5,3-9.39,11.37-10,11.94s-20.85,3.85-25.8,4.65h0l-.56-.07c-1-.21-1.42-.66-1.23-1s22.64-3,25.12-3.32,2.72-1.12,2.72-1.12l9.26-10.61A1.22,1.22,0,0,1,1286.32,84.24Z"/><path class="cls-25" d="M1287.91,83.9s-4.42,9.76-5.26,11.24a7.3,7.3,0,0,1-2.68,2.43h0a19.72,19.72,0,0,1-6.09-1.16c2.42-.29,2.65-1.11,2.65-1.11l9.26-10.61a1.22,1.22,0,0,1,.54-.46A4.3,4.3,0,0,1,1287.91,83.9Z"/><path class="cls-29" d="M1251.79,102.22l-.44,4.93a13.31,13.31,0,0,1-4.82.52,10.61,10.61,0,0,1-3.67-.78,5.07,5.07,0,0,1-.62-.33l.47-5.16a1.59,1.59,0,0,1,.68-.32c2.32-.6,8,1,8,1Z"/><path class="cls-30" d="M1243.39,101.08l-.53,5.81a5.07,5.07,0,0,1-.62-.33l.47-5.16A1.59,1.59,0,0,1,1243.39,101.08Z"/><path class="cls-31" d="M173.74,138.83l1.4-1.29-2.9-7.2c1.5-1.34,3.42-3.16,3.42-3.16a2.09,2.09,0,0,0,.62-2.21.58.58,0,0,0-.13-.25.67.67,0,0,0-.24-.16,2.07,2.07,0,0,0-2.24.43s-2,1.77-3.44,3.14l-6.89-3.52-1.4,1.28,6.2,4.31c-1.59,1.62-3.66,3.76-5,5.13l-3.61-1.64-.82.76,3.13,3.05.36.39,2.74,3.4.83-.76-1.3-3.75c1.47-1.2,3.78-3.08,5.52-4.53Z"/><path class="cls-32" d="M174.68,143.93H159.4a3.53,3.53,0,0,1-3.57-3.91l1.34-15.28a4.34,4.34,0,0,1,4.25-3.91H176.7a3.53,3.53,0,0,1,3.57,3.91L178.93,140A4.35,4.35,0,0,1,174.68,143.93ZM161.32,122a3.07,3.07,0,0,0-3,2.75L157,140a2.48,2.48,0,0,0,2.51,2.75h15.28a3.06,3.06,0,0,0,3-2.75l1.34-15.28A2.48,2.48,0,0,0,176.6,122Z"/><g class="cls-33"><path class="cls-34" d="M174.68,143.93H159.4a3.53,3.53,0,0,1-3.57-3.91l1.34-15.28a4.34,4.34,0,0,1,4.25-3.91H176.7a3.53,3.53,0,0,1,3.57,3.91L178.93,140A4.35,4.35,0,0,1,174.68,143.93ZM161.32,122a3.07,3.07,0,0,0-3,2.75L157,140a2.48,2.48,0,0,0,2.51,2.75h15.28a3.06,3.06,0,0,0,3-2.75l1.34-15.28A2.48,2.48,0,0,0,176.6,122Z"/></g><path class="cls-34" d="M138.16,178.72H89.66a8.91,8.91,0,0,1-9-9.88L90.78,52.91A11,11,0,0,1,101.53,43H150a8.92,8.92,0,0,1,9,9.88L148.9,168.84A11,11,0,0,1,138.16,178.72Z"/><path class="cls-35" d="M135.64,178.72H87.14a8.91,8.91,0,0,1-9-9.88L88.27,52.91A11,11,0,0,1,99,43h48.5a8.91,8.91,0,0,1,9,9.88L146.39,168.84A11,11,0,0,1,135.64,178.72Z"/><path class="cls-32" d="M147.31,45.3h-12.6A1.81,1.81,0,0,0,133,46.73l-.09.4a4.47,4.47,0,0,1-4.28,3.5h-12a3.6,3.6,0,0,1-3.66-3.5l0-.4a1.47,1.47,0,0,0-1.5-1.43H98.81a8.48,8.48,0,0,0-8.28,7.61L80.39,168.84a6.86,6.86,0,0,0,7,7.61h48.5a8.48,8.48,0,0,0,8.28-7.61L154.26,52.91A6.86,6.86,0,0,0,147.31,45.3Z"/><path class="cls-36" d="M147.31,45.3h-12.6A1.81,1.81,0,0,0,133,46.73l-.09.4a4.47,4.47,0,0,1-4.28,3.5h-12a3.6,3.6,0,0,1-3.66-3.5l0-.4a1.47,1.47,0,0,0-1.5-1.43H98.81a8.48,8.48,0,0,0-8.28,7.61L80.39,168.84a6.86,6.86,0,0,0,7,7.61h48.5a8.48,8.48,0,0,0,8.28-7.61L154.26,52.91A6.86,6.86,0,0,0,147.31,45.3Z"/><g class="cls-37"><path d="M120,46.58a1.08,1.08,0,0,1-1,1,.87.87,0,0,1-.88-1,1.08,1.08,0,0,1,1-1A.87.87,0,0,1,120,46.58Z"/><path d="M126.93,45.62h-3.3a1.08,1.08,0,0,0-1,1,.87.87,0,0,0,.88,1h3.3a1.07,1.07,0,0,0,1-1A.87.87,0,0,0,126.93,45.62Z"/></g><polygon class="cls-32" points="96.01 50.61 97.03 50.61 97.12 49.59 96.1 49.59 96.01 50.61"/><polygon class="cls-32" points="98.14 49.59 98.05 50.61 99.07 50.61 99.16 49.59 99.25 48.57 98.23 48.57 98.14 49.59"/><polygon class="cls-32" points="100.36 47.55 100.27 48.57 100.18 49.59 100.09 50.61 101.11 50.61 101.2 49.59 101.29 48.57 101.38 47.55 100.36 47.55"/><path class="cls-32" d="M144.22,47.61l-.07.75h-.5l-.13,1.5h.5l-.06.75h4.49l.26-3Zm1.8,2.25h-1.5l.13-1.5h1.5Z"/><path class="cls-38" d="M144.39,77.53h-49a3.65,3.65,0,0,1-3.69-4l.72-8.22a4.5,4.5,0,0,1,4.4-4.05h49a3.65,3.65,0,0,1,3.7,4.05l-.72,8.22A4.51,4.51,0,0,1,144.39,77.53Z"/><g class="cls-39"><path class="cls-40" d="M100.73,67.13a1.85,1.85,0,0,1,.87.78,2.08,2.08,0,0,1,.22,1.21,2.39,2.39,0,0,1-.43,1.21,2.34,2.34,0,0,1-1,.78,3.69,3.69,0,0,1-1.46.27H97.48l-.16,1.84H96.14l.55-6.36h2.62A3.39,3.39,0,0,1,100.73,67.13Zm-.58,2.93a1.23,1.23,0,0,0,.48-.94,1,1,0,0,0-.32-.93,1.67,1.67,0,0,0-1.14-.33H97.79l-.22,2.53H99A1.94,1.94,0,0,0,100.15,70.06Z"/><path class="cls-40" d="M106.58,71.75H103.4l-.76,1.47h-1.21l3.42-6.36H106l2.32,6.36h-1.24Zm-.31-.93-1-2.78-1.44,2.78Z"/><path class="cls-40" d="M109.69,73.1a2.63,2.63,0,0,1-1-.55l.49-.92a2.72,2.72,0,0,0,.91.5,3.12,3.12,0,0,0,1.12.2,2.07,2.07,0,0,0,1.08-.23.78.78,0,0,0,.41-.6.56.56,0,0,0-.16-.45,1.14,1.14,0,0,0-.47-.27,7.83,7.83,0,0,0-.8-.23,9.09,9.09,0,0,1-1.15-.35,1.6,1.6,0,0,1-.72-.54,1.34,1.34,0,0,1-.24-1,1.9,1.9,0,0,1,.37-1,2.23,2.23,0,0,1,.93-.69,3.62,3.62,0,0,1,1.43-.25,4.66,4.66,0,0,1,1.13.14,3,3,0,0,1,.94.42l-.45.92a3.47,3.47,0,0,0-.84-.37,3,3,0,0,0-.87-.13,1.91,1.91,0,0,0-1.06.24.76.76,0,0,0-.4.62.53.53,0,0,0,.16.45,1.32,1.32,0,0,0,.47.27c.19.07.46.14.8.23a7.86,7.86,0,0,1,1.13.34,1.79,1.79,0,0,1,.73.54,1.37,1.37,0,0,1,.24,1,1.83,1.83,0,0,1-.37,1,2.23,2.23,0,0,1-.93.69,3.67,3.67,0,0,1-1.44.25A4.72,4.72,0,0,1,109.69,73.1Z"/><path class="cls-40" d="M115.41,73.1a2.75,2.75,0,0,1-1-.55l.49-.92a2.88,2.88,0,0,0,.92.5,3.08,3.08,0,0,0,1.12.2A2.12,2.12,0,0,0,118,72.1a.75.75,0,0,0,.4-.6.52.52,0,0,0-.15-.45,1.12,1.12,0,0,0-.48-.27,7.53,7.53,0,0,0-.79-.23,8.61,8.61,0,0,1-1.15-.35,1.69,1.69,0,0,1-.73-.54,1.34,1.34,0,0,1-.23-1,1.81,1.81,0,0,1,.37-1,2.19,2.19,0,0,1,.92-.69,3.67,3.67,0,0,1,1.44-.25,4.73,4.73,0,0,1,1.13.14,3,3,0,0,1,.94.42l-.46.92a3.16,3.16,0,0,0-.84-.37,2.91,2.91,0,0,0-.87-.13,1.93,1.93,0,0,0-1.06.24.78.78,0,0,0-.39.62.52.52,0,0,0,.15.45,1.42,1.42,0,0,0,.47.27c.2.07.46.14.8.23a8,8,0,0,1,1.14.34,1.86,1.86,0,0,1,.73.54,1.33,1.33,0,0,1,.23,1,1.75,1.75,0,0,1-.37,1,2.13,2.13,0,0,1-.92.69,3.76,3.76,0,0,1-1.45.25A4.65,4.65,0,0,1,115.41,73.1Z"/><path class="cls-40" d="M125.16,67.13a1.85,1.85,0,0,1,.87.78,2.08,2.08,0,0,1,.22,1.21,2.27,2.27,0,0,1-1.44,2,3.69,3.69,0,0,1-1.46.27h-1.44l-.16,1.84h-1.18l.55-6.36h2.62A3.39,3.39,0,0,1,125.16,67.13Zm-.58,2.93a1.26,1.26,0,0,0,.48-.94,1,1,0,0,0-.32-.93,1.67,1.67,0,0,0-1.14-.33h-1.38L122,70.39h1.38A1.94,1.94,0,0,0,124.58,70.06Z"/><path class="cls-40" d="M128.41,72.89a2.75,2.75,0,0,1-1.12-1.17A3,3,0,0,1,127,70a3.43,3.43,0,0,1,.59-1.68,3.57,3.57,0,0,1,1.33-1.17,3.87,3.87,0,0,1,1.79-.42,3.45,3.45,0,0,1,1.72.42,2.69,2.69,0,0,1,1.12,1.17,3,3,0,0,1,.3,1.68,3.43,3.43,0,0,1-.59,1.68,3.5,3.5,0,0,1-1.33,1.17,3.87,3.87,0,0,1-1.79.42A3.45,3.45,0,0,1,128.41,72.89Zm3-.9a2.31,2.31,0,0,0,.87-.8,2.54,2.54,0,0,0,.39-1.15,2.1,2.1,0,0,0-.19-1.15,1.82,1.82,0,0,0-.73-.8,2.15,2.15,0,0,0-1.12-.29,2.47,2.47,0,0,0-1.17.29,2.38,2.38,0,0,0-.87.8,2.54,2.54,0,0,0-.39,1.15,2.19,2.19,0,0,0,.19,1.15,1.82,1.82,0,0,0,.73.8,2.17,2.17,0,0,0,1.12.29A2.47,2.47,0,0,0,131.39,72Z"/><path class="cls-40" d="M139,73.22l-1.14-1.86h-1.68L136,73.22h-1.18l.55-6.36H138a3.39,3.39,0,0,1,1.42.27,1.85,1.85,0,0,1,.87.78,2.08,2.08,0,0,1,.22,1.21,2.28,2.28,0,0,1-.46,1.24,2.37,2.37,0,0,1-1.07.77l1.28,2.09Zm0-5a1.67,1.67,0,0,0-1.14-.33h-1.38l-.22,2.53h1.38a1.94,1.94,0,0,0,1.2-.33,1.23,1.23,0,0,0,.48-.94A1,1,0,0,0,139,68.19Z"/><path class="cls-40" d="M143.13,67.86H141l.09-1h5.4l-.09,1h-2.11l-.47,5.36h-1.18Z"/></g><polygon class="cls-35" points="114.53 130.3 114.53 130.3 114.53 130.3 114.53 130.3"/><polygon class="cls-35" points="118.17 119.52 118.17 119.52 118.17 119.52 118.17 119.52 118.17 119.52"/><polygon class="cls-35" points="126.66 130.3 126.66 130.3 126.66 130.3 126.66 130.3 126.66 130.3"/><polygon class="cls-35" points="110.89 141.08 110.89 141.08 110.89 141.08 110.89 141.08"/><path class="cls-35" d="M125.43,129h-1.34c0-.44.07-.88.11-1.34h-1.35l.12-1.36h-2.68l.11-1.34h1.34c.08-.91.16-1.8.23-2.69h-1.35c.08-.92.16-1.81.24-2.7h-2.69l-.12,1.33H116.7l.12-1.33h-1.36c-.15,1.81-.31,3.6-.47,5.38h-2.67c.08-.9.15-1.79.23-2.69h1.33l.12-1.35h-1.34c0-.46.07-.89.11-1.33h-9.43l-.12,1.33h-2.7l.12-1.33H99.31c-.08.9-.16,1.78-.24,2.69h1.33l-.12,1.35H99c-.24,2.7-.47,5.39-.71,8.07h1.34c.08-.9.16-1.79.23-2.67h1.35c-.07.89-.15,1.78-.23,2.67h1.35c.08-.9.16-1.79.23-2.68h1.35l-.12,1.35h1.35l-.12,1.33h2.7c0-.46.07-.9.11-1.34h1.35c-.24,2.69-.48,5.38-.71,8.09h2.7c-.08.91-.16,1.8-.24,2.69h1.36c0-.46.07-.9.11-1.35h1.35c.08-.91.16-1.79.24-2.69h1.33l.12-1.34h1.34c-.08.9-.15,1.79-.23,2.69h-1.33c0,.46-.08.89-.12,1.35h1.35l-.12,1.33h1.35l.12-1.34h4l.12-1.34h1.35l.12-1.36h2.69c.2-2.25.39-4.49.59-6.73h-1.35Zm-2.68,0h1.33c0,.44-.08.88-.12,1.34h-1.33Zm-1.26-1.33-.11,1.33H120l.12-1.33Zm-14.21-6.74H110c-.08.88-.15,1.77-.23,2.68h-1.34c0-.44.08-.88.12-1.34h-1.34C107.2,121.76,107.24,121.33,107.28,120.88Zm-5.51,1.34h1.34l.12-1.35h1.33c-.08.89-.16,1.78-.23,2.68h-2.68ZM100,127.6c0-.44.08-.88.12-1.34h1.33l.12-1.34h2.69c0,.44-.08.88-.12,1.34h1.36l-.12,1.34Zm5.27,1.34c0-.45.07-.89.11-1.33h1.35l-.12,1.33Zm1.35,0h1.34c0,.46-.08.9-.12,1.35h-1.34C106.49,129.84,106.53,129.4,106.57,129Zm2.91-2.7h-1.34L108,127.6h-1.34l.12-1.35h-1.35c.08-.89.16-1.78.24-2.69H107l-.12,1.35h2.69Zm1,4.05h-1.34l.24-2.68h1.33C110.63,128.5,110.55,129.39,110.48,130.3Zm-.33,4c0-.44.07-.88.11-1.33h2.68c0,.44-.07.89-.11,1.33Zm1.11,2.69c0-.44.07-.88.11-1.34h1.34l-.12,1.34Zm8.3-2.69h-4l-.12,1.36h-2.69l.12-1.34h1.34l.12-1.35H117l.11-1.34h2.69C119.71,132.55,119.64,133.44,119.56,134.34Zm-5-4c0,.44-.07.89-.11,1.34h-2.69c.15-1.79.31-3.57.47-5.38h4c.08-.9.16-1.79.23-2.69h1.35l-.12,1.33H119c-.12,1.35-.24,2.69-.36,4.06H120c0,.44-.08.88-.12,1.34Zm4.81,6.75H122c0,.45-.07.89-.11,1.33h-2.68Zm5.49-1.37h-4c.12-1.33.24-2.67.35-4h4Z"/><path class="cls-35" d="M109.67,108.74h-9.42c-.27,3.15-.55,6.29-.82,9.42h9.41C109.12,115,109.39,111.88,109.67,108.74Zm-2.12,8H101c.19-2.19.38-4.38.58-6.59h6.58C107.94,112.36,107.75,114.55,107.55,116.75Z"/><path class="cls-35" d="M124.52,108.75c-.28,3.14-.55,6.28-.83,9.41h9.42c.27-3.14.54-6.27.82-9.41Zm7.29,8h-6.58c.19-2.19.38-4.38.58-6.59h6.58C132.2,112.36,132,114.55,131.81,116.75Z"/><path class="cls-35" d="M97.3,142.42h9.42c.27-3.15.55-6.28.82-9.41H98.13C97.85,136.15,97.58,139.28,97.3,142.42Zm2.12-8H106l-.57,6.58H98.84C99,138.8,99.23,136.62,99.42,134.42Z"/><path class="cls-35" d="M128.83,120.85h-1.35l.12-1.32h-1.35l-.12,1.34h-1.34c0,.45-.08.89-.12,1.35h-1.34l-.12,1.33h1.34c0,.47-.08.92-.12,1.36h1.35c.08-.9.16-1.79.23-2.69h1.35l-.24,2.68h4.06l-.12,1.35h1.33l.36-4h-1.34l.12-1.35h1.34l.11-1.33h-4Zm-.1,1.36h2.68l-.12,1.34h-2.68Z"/><polygon class="cls-35" points="123.33 122.22 123.33 122.21 123.32 122.21 123.32 122.22 123.33 122.22"/><path class="cls-35" d="M129.6,127.59h-2.7l.12-1.32h-1.35l-.24,2.68h1.35l-.12,1.35H128c-.08.91-.15,1.8-.23,2.69h2.69l.24-2.69H132l.24-2.7h-1.34c0-.46.08-.9.11-1.34h-1.34C129.67,126.71,129.64,127.15,129.6,127.59Zm-.12,1.37h1.34l-.12,1.34h-1.33C129.41,129.85,129.45,129.41,129.48,129Z"/><polygon class="cls-35" points="131.06 126.26 131.06 126.26 131.06 126.25 131.06 126.25 131.06 126.26"/><polygon class="cls-35" points="130.47 132.99 130.47 132.99 130.47 133 130.47 132.99"/><polygon class="cls-35" points="125.43 128.95 125.43 128.95 125.43 128.95 125.43 128.95 125.43 128.95"/><polygon class="cls-35" points="125.72 141.08 125.71 141.09 125.72 141.09 125.72 141.08 125.72 141.08"/><path class="cls-35" d="M128.64,138.39h-4c0,.46-.08.9-.12,1.35h-1.33l-.12,1.34h2.68l.12-1.33h1.35c0,.44-.07.89-.11,1.33h2.7c0,.46-.08.9-.12,1.34H131c.16-1.8.31-3.58.47-5.37h-2.69Z"/><path class="cls-35" d="M114.71,112.77h1.34l.12-1.34h-1.34c0-.46.08-.9.12-1.34h-2.7l.11-1.35H111l-.36,4H112c0-.45.07-.89.11-1.33h1.35l-.24,2.68h1.34Q114.65,113.46,114.71,112.77Z"/><polygon class="cls-35" points="114.95 110.08 114.95 110.09 114.95 110.09 114.95 110.08"/><polygon class="cls-35" points="117.29 114.12 117.29 114.13 117.29 114.13 117.29 114.12"/><polygon class="cls-35" points="111.67 116.82 111.67 116.82 111.66 116.82 111.67 116.82"/><polygon class="cls-35" points="113.25 114.13 113.25 114.13 113.25 114.12 113.25 114.12 113.25 114.13 113.25 114.13 113.25 114.13"/><path class="cls-35" d="M117.17,115.47l.12-1.34H114.6l-.12,1.33h-1.35l.12-1.33h-2.69c0,.45-.07.89-.11,1.35h1.34c0,.46-.08.9-.12,1.34H113c0,.46-.08.9-.12,1.34h1.35l.12-1.34h1.34c0-.44.07-.88.11-1.35Z"/><polygon class="cls-35" points="114.6 114.13 114.6 114.12 114.59 114.12 114.59 114.13 114.6 114.13"/><polygon class="cls-35" points="115.71 116.82 115.71 116.82 115.71 116.82 115.71 116.82 115.71 116.82"/><path class="cls-35" d="M129,134.35l-.12,1.33h2.68c.08-.9.16-1.79.23-2.68h-1.33l-.12,1.35Z"/><polygon class="cls-35" points="130.47 132.99 130.47 133 130.47 133 130.47 132.99"/><path class="cls-35" d="M118.67,113.81c.06-.8.13-1.59.2-2.38h-1.34c-.08.92-.16,1.8-.24,2.69h1.35Z"/><polygon class="cls-35" points="117.29 114.12 117.29 114.13 117.3 114.12 117.29 114.12"/><path class="cls-35" d="M108.09,142.42h2.68l.12-1.34h-2.68Z"/><polygon class="cls-35" points="110.89 141.08 110.89 141.08 110.89 141.08 110.89 141.08"/><path class="cls-35" d="M118.87,142.42h2.68c0-.45.07-.89.11-1.33H119Z"/><polygon class="cls-35" points="121.98 122.21 121.97 122.21 121.97 122.22 121.98 122.22 121.98 122.21"/><path class="cls-35" d="M123.56,119.53h-1.35c-.08.9-.15,1.79-.23,2.68h1.34Z"/><path class="cls-35" d="M113.48,142.42h1.33l.11-1.33H113.6Z"/><path class="cls-35" d="M116.4,108.75h-1.33l-.12,1.33h1.34C116.33,109.62,116.37,109.18,116.4,108.75Z"/><polygon class="cls-35" points="114.95 110.08 114.95 110.09 114.95 110.08 114.95 110.08"/><polygon class="cls-35" points="119 110.07 119 110.08 119 110.07 119 110.07"/><path class="cls-35" d="M117.77,108.75l-.11,1.32H119c0-.44.08-.88.11-1.32Z"/><polygon class="cls-35" points="120.23 111.43 120.22 111.43 120.22 111.43 120.23 111.43"/><polygon class="cls-35" points="119 110.08 119 110.08 119 110.07 119 110.08"/><polygon class="cls-35" points="118.87 111.42 118.87 111.42 118.87 111.42 118.87 111.42 118.87 111.43 118.87 111.43 118.87 111.42"/><path class="cls-35" d="M120.34,110.08H119c0,.45-.08.89-.13,1.34h1.35Z"/><path class="cls-35" d="M123,110.09H121.7l-.12,1.34h1.33C123,111,123,110.53,123,110.09Z"/><polygon class="cls-35" points="127.06 141.09 127.07 141.09 127.07 141.08 127.06 141.08 127.06 141.09"/><path class="cls-35" d="M125.6,142.42H127c0-.45.07-.89.11-1.34h-1.34Z"/><polygon class="cls-35" points="111.67 116.82 111.66 116.82 111.66 116.82 111.67 116.82"/><path class="cls-35" d="M110.21,118.16h1.34l.11-1.34h-1.33C110.29,117.28,110.25,117.72,110.21,118.16Z"/><path class="cls-35" d="M121.45,112.78c0-.17,0-.34,0-.51,0,.17,0,.34,0,.51h0c-.12,1.35-.24,2.69-.35,4h1.33c.16-1.8.32-3.59.47-5.37h-2.67l-.12,1.35Z"/><polygon class="cls-35" points="120.23 111.43 120.22 111.43 120.23 111.43 120.23 111.43"/><polygon class="cls-35" points="121.58 111.44 121.58 111.44 121.58 111.43 121.58 111.43 121.58 111.44 121.58 111.44 121.58 111.44"/><polygon class="cls-35" points="117.05 116.82 117.06 116.82 117.06 116.82 117.06 116.82 117.05 116.82"/><polygon class="cls-35" points="116.94 118.17 116.94 118.17 116.94 118.17 116.94 118.17 116.94 118.17"/><path class="cls-35" d="M115.71,116.82c0,.45-.08.89-.12,1.35h1.35c0-.45.07-.9.11-1.35Z"/><polygon class="cls-35" points="117.18 115.48 117.18 115.47 117.17 115.47 117.17 115.48 117.18 115.48"/><path class="cls-35" d="M118.4,116.82l.12-1.34h-1.34l-.12,1.34Z"/><path class="cls-35" d="M118.28,118.17h-1.34l-.12,1.35h1.35C118.21,119.07,118.24,118.62,118.28,118.17Z"/><polygon class="cls-35" points="118.28 118.17 118.29 118.17 118.29 118.17 118.28 118.17 118.28 118.17"/><polygon class="cls-35" points="116.82 119.52 116.82 119.52 116.82 119.52 116.82 119.52 116.82 119.52"/><polygon class="cls-35" points="118.41 116.82 118.41 116.82 118.4 116.82 118.4 116.82 118.41 116.82"/><path class="cls-35" d="M119.62,118.17c0-.46.08-.9.12-1.35h-1.33l-.12,1.35Z"/><polygon class="cls-35" points="114.53 130.3 114.53 130.3 114.53 130.3 114.53 130.3"/><path class="cls-35" d="M117.34,128.94c0-.45.07-.88.11-1.33h-4l-.24,2.69h1.34l.12-1.36Z"/><path class="cls-35" d="M125.67,126.26H127c0-.47.08-.91.11-1.35h-1.35Z"/><path class="cls-35" d="M123.71,133h-1.32l-.12,1.33h1.33C123.64,133.88,123.68,133.44,123.71,133Z"/><path class="cls-35" d="M106.74,111.44h-4c-.11,1.35-.23,2.69-.35,4h4C106.5,114.12,106.62,112.79,106.74,111.44Z"/><path class="cls-35" d="M131,111.44h-4c-.12,1.34-.23,2.68-.35,4h4C130.76,114.11,130.88,112.77,131,111.44Z"/><path class="cls-35" d="M100.23,139.72h4c.12-1.35.23-2.68.35-4h-4Z"/><path class="cls-35" d="M97.05,115.58h-.34a.38.38,0,0,1-.38-.43l.63-7.21a2.85,2.85,0,0,1,2.78-2.56H107a.38.38,0,0,1,.38.42l0,.34a.47.47,0,0,1-.46.43H99.64a1.52,1.52,0,0,0-1.49,1.37l-.63,7.21A.48.48,0,0,1,97.05,115.58Z"/><path class="cls-35" d="M123.89,145.36l0-.34a.47.47,0,0,1,.46-.42h7.22a1.53,1.53,0,0,0,1.49-1.37l.63-7.22a.47.47,0,0,1,.46-.42h.34a.39.39,0,0,1,.39.42l-.64,7.22a2.85,2.85,0,0,1-2.78,2.56h-7.21A.39.39,0,0,1,123.89,145.36Z"/><path class="cls-35" d="M136.27,115.58h-.34a.38.38,0,0,1-.38-.43l.62-7.16a1.35,1.35,0,0,0-.16-.82,1.24,1.24,0,0,0-1.08-.6h-7.22a.39.39,0,0,1-.39-.42l0-.35a.47.47,0,0,1,.46-.42h7.12a2.48,2.48,0,0,1,1.68.59,2.33,2.33,0,0,1,.75,2l-.63,7.21A.47.47,0,0,1,136.27,115.58Z"/><path class="cls-35" d="M96.2,145.79a2.3,2.3,0,0,1-1.88-.92,2.5,2.5,0,0,1-.44-1.74L94.5,136a.47.47,0,0,1,.46-.42h.34a.38.38,0,0,1,.39.42l-.63,7.17a1.36,1.36,0,0,0,.17.82,1.24,1.24,0,0,0,1.08.6h7.21a.38.38,0,0,1,.39.42l0,.34a.47.47,0,0,1-.46.43Z"/><path class="cls-35" d="M49.17,164H48l1.81-34.43a2.87,2.87,0,0,0-2.89-3.05H42.72a3.26,3.26,0,0,0-3.21,3.05L37.71,164H36.52l1.81-34.43a4.51,4.51,0,0,1,4.45-4.23H47a4,4,0,0,1,4,4.23Z"/><g class="cls-41"><path class="cls-40" d="M49.17,164H48l1.81-34.43a2.87,2.87,0,0,0-2.89-3.05H42.72a3.26,3.26,0,0,0-3.21,3.05L37.71,164H36.52l1.81-34.43a4.51,4.51,0,0,1,4.45-4.23H47a4,4,0,0,1,4,4.23Z"/></g><path class="cls-35" d="M39.51,135.3l.3-5.78a2.93,2.93,0,0,1,2.89-2.75h4.19a2.58,2.58,0,0,1,2.6,2.75l-.3,5.78a.58.58,0,0,0,.58.62h.55a.66.66,0,0,0,.65-.62l.3-5.78A4.26,4.26,0,0,0,47,125H42.79A4.82,4.82,0,0,0,38,129.52l-.3,5.78a.58.58,0,0,0,.58.62h.54A.67.67,0,0,0,39.51,135.3Z"/><path class="cls-42" d="M39.51,135.3l.3-5.78a2.93,2.93,0,0,1,2.89-2.75h4.19a2.58,2.58,0,0,1,2.6,2.75l-.3,5.78a.58.58,0,0,0,.58.62h.55a.66.66,0,0,0,.65-.62l.3-5.78A4.26,4.26,0,0,0,47,125H42.79A4.82,4.82,0,0,0,38,129.52l-.3,5.78a.58.58,0,0,0,.58.62h.54A.67.67,0,0,0,39.51,135.3Z"/><path class="cls-32" d="M49.35,153.94H43.11l-2,38.73h6.24a4.1,4.1,0,0,0,4-3.84L53,157.77A3.6,3.6,0,0,0,49.35,153.94Z"/><path class="cls-43" d="M49.35,153.94H43.11l-2,38.73h6.24a4.1,4.1,0,0,0,4-3.84L53,157.77A3.6,3.6,0,0,0,49.35,153.94Z"/><path class="cls-44" d="M41.67,192.67H25.83a3.61,3.61,0,0,1-3.64-3.84l1.63-31.06a4.09,4.09,0,0,1,4-3.83H43.7a3.59,3.59,0,0,1,3.63,3.83l-1.62,31.06A4.09,4.09,0,0,1,41.67,192.67Z"/><path class="cls-35" d="M44.44,196.22h-.59a.64.64,0,0,1-.65-.68l.16-3.07h3l-1.2,3.27A.73.73,0,0,1,44.44,196.22Z"/><path class="cls-35" d="M29,196.22h-.6a.64.64,0,0,1-.64-.68l.16-3.07h3l-1.2,3.27A.73.73,0,0,1,29,196.22Z"/><path class="cls-42" d="M44.44,196.22h-.59a.64.64,0,0,1-.65-.68l.16-3.07h3l-1.2,3.27A.73.73,0,0,1,44.44,196.22Z"/><path class="cls-42" d="M29,196.22h-.6a.64.64,0,0,1-.64-.68l.16-3.07h3l-1.2,3.27A.73.73,0,0,1,29,196.22Z"/><path class="cls-35" d="M27.91,196.25A1.86,1.86,0,0,1,26.08,198a1.64,1.64,0,0,1-1.66-1.75,1.86,1.86,0,0,1,1.84-1.74A1.64,1.64,0,0,1,27.91,196.25Z"/><path class="cls-32" d="M27.13,196.25a1,1,0,0,1-1,1,.91.91,0,0,1-.92-1,1,1,0,0,1,1-1A.9.9,0,0,1,27.13,196.25Z"/><path class="cls-35" d="M43.26,196.25A1.86,1.86,0,0,1,41.42,198a1.64,1.64,0,0,1-1.65-1.75,1.86,1.86,0,0,1,1.84-1.74A1.64,1.64,0,0,1,43.26,196.25Z"/><path class="cls-32" d="M42.48,196.25a1,1,0,0,1-1,1,.9.9,0,0,1-.91-1,1,1,0,0,1,1-1A.9.9,0,0,1,42.48,196.25Z"/><polygon class="cls-45" points="27.63 169.1 41.69 169.1 41.72 168.5 27.66 168.5 27.63 169.1"/><polygon class="cls-45" points="26.21 185.61 42.08 185.61 42.12 184.94 26.25 184.94 26.21 185.61"/><polygon class="cls-46" points="76.41 188.76 76.49 192.79 72.67 192.79 72.25 188.76 76.41 188.76"/><path class="cls-35" d="M76,192.17l-3.79.08a.37.37,0,0,0-.34.29l-.72,3.57a.59.59,0,0,0,.45.69h.12c1.58-.05,3-.17,4.94-.2,2.32,0,1.74.25,4.46.24,1.64,0,1.9-1.88,1.21-2A7.74,7.74,0,0,1,77,192.47,1.42,1.42,0,0,0,76,192.17Z"/><path class="cls-35" d="M75.36,115.14l1.89,76.19H71.71S69.4,173.16,69.32,164v-.56a48.8,48.8,0,0,0-.5-7.25l0-.14c-1-7-3.09-19.66-4.9-21.47-2.52-2.52-5.92-6.39-3.65-18Z"/><path class="cls-45" d="M75.36,115.14l1.89,76.19H71.71S69.4,173.16,69.32,164v-.56a48.8,48.8,0,0,0-.5-7.25l0-.14c-1-7-3.09-19.66-4.9-21.47-2.52-2.52-5.92-6.39-3.65-18Z"/><path class="cls-47" d="M63.55,134.18l1.69-4.85,1-4.87h1.09a110.08,110.08,0,0,1-.59,19.35c-.9-4.47-1.91-8.34-2.85-9.28Z"/><polygon class="cls-46" points="57.85 189.12 57.28 193.11 53.51 193 53.74 188.45 57.85 189.12"/><path class="cls-35" d="M68.91,116.65,58.24,191.33,53,190.82s.69-20.1,2-28.74c0-.22.06-.42.09-.62a36.62,36.62,0,0,0,.45-7.39V154c-.22-5.08-.55-13.2-.66-19-.09-4.53-.79-7.12,1.38-18.08Z"/><path class="cls-45" d="M68.91,116.65,58.24,191.33,53,190.82s.69-20.1,2-28.74c0-.22.06-.42.09-.62a36.62,36.62,0,0,0,.45-7.39V154c-.22-5.08-.55-13.2-.66-19-.09-4.53-.79-7.12,1.38-18.08Z"/><path class="cls-35" d="M57.1,192.17l-3.79.08a.37.37,0,0,0-.34.29l-.72,3.57a.58.58,0,0,0,.45.69h.12c1.58-.05,3-.17,4.94-.2,2.32,0,1.73.25,4.46.24,1.64,0,1.9-1.88,1.21-2a7.74,7.74,0,0,1-5.38-2.42A1.42,1.42,0,0,0,57.1,192.17Z"/><path class="cls-46" d="M89,109.85l4.53,1.43,2.61-.17a1.43,1.43,0,0,1,1.13.49l0,0a1.63,1.63,0,0,1,0,2.11l-.83.92a1.35,1.35,0,0,1-1.67.29l-2.27-1.24L87.73,112Z"/><polygon class="cls-32" points="89.99 109.85 92.1 110.27 90.94 113.72 88.98 112.79 89.99 109.85"/><polygon class="cls-36" points="89.99 109.85 92.1 110.27 90.94 113.72 88.98 112.79 89.99 109.85"/><path class="cls-48" d="M73.5,85.93s5.48,15.76,8.69,18.12,8.59,5.55,8.59,5.55l-1.25,4.12S82.09,111,79.3,109.1c-3.26-2.18-5.25-6.75-5.8-9.53C72.84,96.23,72.85,88.45,73.5,85.93Z"/><path class="cls-49" d="M75.42,91.09C75.92,95.33,76.9,103,78,108a17.3,17.3,0,0,1-4.49-8.46c-.66-3.34-.65-11.12,0-13.64C73.5,85.93,74.28,88.17,75.42,91.09Z"/><path class="cls-46" d="M60.72,73.64c.32,2.29.56,6.24-.68,8.25a1.2,1.2,0,0,0,.18,1.5A8.24,8.24,0,0,0,65.56,86c2.62.24,2.87-1.16,2.42-2.29a1.13,1.13,0,0,0-.67-.65c-2.43-.93-2.49-3.12-1.91-5Z"/><path class="cls-50" d="M62.63,75.46l2.77,2.61a8.58,8.58,0,0,0-.28,1.41,4,4,0,0,1-2.81-2.43C62.07,76.3,62.34,75.53,62.63,75.46Z"/><path class="cls-35" d="M66.59,71.33c-2.14-1.94-2.88-5.2-2.55-5.83s3.39-2,3.86-1.66c2.34,1.84,1,6.13,1,6.13l.67,1.37Z"/><path class="cls-51" d="M66.59,71.33c-2.14-1.94-2.88-5.2-2.55-5.83s3.39-2,3.86-1.66c2.34,1.84,1,6.13,1,6.13l.67,1.37Z"/><path class="cls-46" d="M60,69.88c.26,3.48.24,5.53,2,7.29a4.64,4.64,0,0,0,7.74-2.5c.7-3.16.14-8.31-3.29-9.64A4.75,4.75,0,0,0,60,69.88Z"/><path class="cls-35" d="M59.3,72.2C57.36,70.07,56.62,66.53,57,66c1.12-1.49,3.67-1.63,5.29-.4,2.39,1.79-.6,5.52-.6,5.52l.54,1.45Z"/><path class="cls-35" d="M67.89,61.63a.21.21,0,0,1-.1.4,3.68,3.68,0,0,0-2.11.62,3.85,3.85,0,0,1,4.23,1.73.21.21,0,0,1-.31.27,3.64,3.64,0,0,0-2.67-.4c1.54.92,1.23,2,1.23,2a4.57,4.57,0,0,0-2.43-1,2.85,2.85,0,0,1,1,1.52.33.33,0,0,1-.53.35,2.57,2.57,0,0,0-3.84,0L58,65.67C61.61,59.73,65.92,60.73,67.89,61.63Z"/><path class="cls-46" d="M58.31,73.16a3.37,3.37,0,0,0,2.08,1.43c1.14.23,1.63-.81,1.24-1.84s-1.35-2.17-2.46-1.94A1.49,1.49,0,0,0,58.31,73.16Z"/><path class="cls-46" d="M46.94,118.79l-1.21,4.45,1,1.65a.94.94,0,0,1,.08.83l-.3.8a1,1,0,0,1-1,.61l-1.67-.22a1,1,0,0,1-.8-1.21l.74-2.54.42-5Z"/><polygon class="cls-32" points="47.11 119.76 46.9 122.07 43.17 121.27 43.54 119.17 47.11 119.76"/><polygon class="cls-36" points="47.11 119.76 46.9 122.07 43.17 121.27 43.54 119.17 47.11 119.76"/><path class="cls-35" d="M73,85.59s-5.37-4.7-10.92-4.2a19.07,19.07,0,0,0-9.73,4.2s2.85,21.66,3.19,32.57l20.31-.5A145.72,145.72,0,0,0,73,85.59Z"/><path class="cls-35" d="M66.61,82.4a6.7,6.7,0,0,1,0-1.76l0-.06a.68.68,0,0,0-.6-.91A25.84,25.84,0,0,1,60.86,79a.68.68,0,0,0-.84.57c-.05.4-.11.86-.14,1.09a9.32,9.32,0,0,1-.74,1.78S64.84,82.61,66.61,82.4Z"/><path class="cls-52" d="M59,81.52s8.19,6.74,8.82,20.78A76.93,76.93,0,0,1,65,126.13a2.18,2.18,0,0,1-2.38,1.55L50.36,126s4.32-10.67,3.71-20-2-20.42-2-20.42S53.57,83.6,59,81.52Z"/><path class="cls-47" d="M62.71,116.4l-6.17-1.26-.14.41a1.1,1.1,0,0,0,.83,1.41l4,.83a1.09,1.09,0,0,0,1.27-.74Z"/><path class="cls-53" d="M66.61,81.69s5.1,12.76,5.85,22.39a205.56,205.56,0,0,1,.13,21.07,2.17,2.17,0,0,0,2.57,2.22l2.28-.43s-.88-7.87-1.13-18.77a133.91,133.91,0,0,0-2.77-22.24S72.4,84.3,66.61,81.69Z"/><path class="cls-32" d="M77,116l-2.58.46s.19,1.49,3.08.83Z"/><path class="cls-47" d="M77,116l-2.58.46s.19,1.49,3.08.83Z"/><path class="cls-47" d="M59.94,90.65,62.2,87.5H58.05l-.34-5.44c.42-.18.86-.36,1.33-.54,0,0,7.35,6,8.66,18.64Z"/><path class="cls-47" d="M68.37,82.53l2.9,3.4-1.39.9L72,89a60.3,60.3,0,0,1-.13,10.8,108.31,108.31,0,0,0-5.28-18.08C67.26,82,67.84,82.26,68.37,82.53Z"/><path class="cls-49" d="M53,93.17l1.57-2.78s1.62,5.7-.6,13.67C53.66,100.3,53.29,96.4,53,93.17Z"/><path class="cls-54" d="M52.12,85.59s-5.16,11.29-7,20A90.12,90.12,0,0,0,43,120.05l4.16.88a144.34,144.34,0,0,1,6.32-23.26C54.4,95.05,56.15,89.79,52.12,85.59Z"/><path class="cls-51" d="M66.67,82.76s-.88,1.22-5.18-.06a.11.11,0,0,0-.1.2C63.06,84,67.15,86.19,66.67,82.76Z"/><path class="cls-32" d="M185.55,115.51H148.73l5.41-61.84H191a8.89,8.89,0,0,1,9,9.86l-3.68,42.12A11,11,0,0,1,185.55,115.51Z"/><path class="cls-55" d="M185.55,115.51H148.73l5.41-61.84H191a8.89,8.89,0,0,1,9,9.86l-3.68,42.12A11,11,0,0,1,185.55,115.51Z"/><path class="cls-32" d="M184.62,115.2H148.27L153.62,54H190a8.89,8.89,0,0,1,9,9.86l-3.63,41.5A11,11,0,0,1,184.62,115.2Z"/><path class="cls-36" d="M184.62,115.2H148.27L153.62,54H190a8.89,8.89,0,0,1,9,9.86l-3.63,41.5A11,11,0,0,1,184.62,115.2Z"/><path class="cls-32" d="M183.1,115.51H146.28l5.41-61.84h36.82a8.89,8.89,0,0,1,9,9.86l-3.68,42.12A11,11,0,0,1,183.1,115.51Z"/><path class="cls-56" d="M183.1,115.51H146.28l5.41-61.84h36.82a8.89,8.89,0,0,1,9,9.86l-3.68,42.12A11,11,0,0,1,183.1,115.51Z"/><g class="cls-39"><g class="cls-39"><path class="cls-40" d="M159,105.15a1,1,0,0,1,.47.42,1.14,1.14,0,0,1,.12.65,1.27,1.27,0,0,1-.23.65,1.19,1.19,0,0,1-.54.42,2,2,0,0,1-.79.15h-.78l-.08,1h-.64l.3-3.43h1.41A1.75,1.75,0,0,1,159,105.15Zm-.31,1.58a.67.67,0,0,0,.26-.51.56.56,0,0,0-.17-.5.9.9,0,0,0-.62-.18h-.74l-.12,1.36H158A1.09,1.09,0,0,0,158.66,106.73Z"/><path class="cls-40" d="M162.13,107.64h-1.72l-.4.79h-.66l1.84-3.43h.63l1.25,3.43h-.67Zm-.17-.5-.52-1.5-.77,1.5Z"/><path class="cls-40" d="M163.8,108.37a1.64,1.64,0,0,1-.56-.3l.27-.5a1.54,1.54,0,0,0,.49.28,1.81,1.81,0,0,0,.61.1,1.17,1.17,0,0,0,.58-.12.41.41,0,0,0,.21-.32.32.32,0,0,0-.08-.25.87.87,0,0,0-.25-.15l-.43-.12a4.47,4.47,0,0,1-.62-.18.89.89,0,0,1-.39-.3.7.7,0,0,1-.13-.53,1,1,0,0,1,.2-.52,1.21,1.21,0,0,1,.5-.37A2,2,0,0,1,165,105a2.49,2.49,0,0,1,.61.08,1.55,1.55,0,0,1,.5.23l-.24.49a1.82,1.82,0,0,0-.45-.2,2,2,0,0,0-.47-.07,1.09,1.09,0,0,0-.57.13.48.48,0,0,0-.22.34.29.29,0,0,0,.09.24.61.61,0,0,0,.25.14l.43.13a4.71,4.71,0,0,1,.61.18,1,1,0,0,1,.4.29.74.74,0,0,1,.12.53.93.93,0,0,1-.2.52,1.16,1.16,0,0,1-.49.36,2.05,2.05,0,0,1-.78.14A2.68,2.68,0,0,1,163.8,108.37Z"/><path class="cls-40" d="M166.88,108.37a1.64,1.64,0,0,1-.56-.3l.27-.5a1.54,1.54,0,0,0,.49.28,1.81,1.81,0,0,0,.61.1,1.17,1.17,0,0,0,.58-.12.41.41,0,0,0,.21-.32.32.32,0,0,0-.08-.25.87.87,0,0,0-.25-.15l-.43-.12a4.47,4.47,0,0,1-.62-.18.89.89,0,0,1-.39-.3.7.7,0,0,1-.13-.53,1,1,0,0,1,.2-.52,1.21,1.21,0,0,1,.5-.37,2,2,0,0,1,.77-.14,2.49,2.49,0,0,1,.61.08,1.55,1.55,0,0,1,.5.23l-.24.49a1.82,1.82,0,0,0-.45-.2,2,2,0,0,0-.47-.07,1.09,1.09,0,0,0-.57.13.48.48,0,0,0-.22.34.29.29,0,0,0,.09.24.61.61,0,0,0,.25.14l.43.13a4.71,4.71,0,0,1,.61.18,1,1,0,0,1,.4.29.74.74,0,0,1,.12.53.93.93,0,0,1-.2.52,1.14,1.14,0,0,1-.5.36,2,2,0,0,1-.77.14A2.68,2.68,0,0,1,166.88,108.37Z"/><path class="cls-40" d="M172.13,105.15a1,1,0,0,1,.47.42,1.14,1.14,0,0,1,.12.65,1.27,1.27,0,0,1-.23.65,1.19,1.19,0,0,1-.54.42,2,2,0,0,1-.79.15h-.78l-.08,1h-.64L170,105h1.41A1.75,1.75,0,0,1,172.13,105.15Zm-.31,1.58a.67.67,0,0,0,.26-.51.56.56,0,0,0-.17-.5.9.9,0,0,0-.62-.18h-.74l-.12,1.36h.74A1.09,1.09,0,0,0,171.82,106.73Z"/><path class="cls-40" d="M173.89,108.25a1.48,1.48,0,0,1-.61-.63,1.6,1.6,0,0,1-.16-.9,1.91,1.91,0,0,1,.32-.91,1.88,1.88,0,0,1,.71-.63,2.13,2.13,0,0,1,1-.23,1.82,1.82,0,0,1,.92.23,1.48,1.48,0,0,1,.61.63,1.62,1.62,0,0,1,.16.91,1.78,1.78,0,0,1-.32.9,1.88,1.88,0,0,1-.71.63,2.13,2.13,0,0,1-1,.23A1.82,1.82,0,0,1,173.89,108.25Zm1.6-.48a1.39,1.39,0,0,0,.47-.43,1.35,1.35,0,0,0,.21-.62,1.15,1.15,0,0,0-.1-.62.93.93,0,0,0-.4-.43,1.08,1.08,0,0,0-.6-.16,1.23,1.23,0,0,0-.63.16,1.21,1.21,0,0,0-.47.43,1.31,1.31,0,0,0-.21.62,1.27,1.27,0,0,0,.1.62,1,1,0,0,0,.4.43,1.16,1.16,0,0,0,.6.15A1.33,1.33,0,0,0,175.49,107.77Z"/><path class="cls-40" d="M179.58,108.43l-.61-1h-.91l-.09,1h-.63l.3-3.43h1.41a1.78,1.78,0,0,1,.76.15,1,1,0,0,1,.47.42,1.14,1.14,0,0,1,.12.65,1.22,1.22,0,0,1-.82,1.08l.68,1.13Zm0-2.71a.92.92,0,0,0-.62-.18h-.74l-.12,1.37h.74a1,1,0,0,0,.65-.18.71.71,0,0,0,.26-.51A.56.56,0,0,0,179.59,105.72Z"/><path class="cls-40" d="M181.82,105.54h-1.14l0-.54h2.9l0,.54h-1.14l-.25,2.89h-.64Z"/></g></g><path class="cls-57" d="M173.05,72.47a11.75,11.75,0,0,0-11.6,10.69,9.5,9.5,0,0,0,9.73,10.63,11.89,11.89,0,0,0,11.63-10.63A9.66,9.66,0,0,0,173.05,72.47Zm-9.55,7.29A9.52,9.52,0,0,1,166,76.39a9.75,9.75,0,0,1,3.29-2.06l.51-.21-.35.43a12.08,12.08,0,0,0-2.09,4.23l0,.09-.1,0A18,18,0,0,0,163.68,80l-.34.15Zm-.72,6.31,0-.15a9,9,0,0,1-.19-2.76c.14-1.59.4-2.52,4.25-3.14l.2,0,0,.2a25.24,25.24,0,0,0-.43,2.87,16.17,16.17,0,0,0-.1,1.94v.15l-.15,0a12.58,12.58,0,0,0-3.35.84Zm5.12,6a8.17,8.17,0,0,1-4.76-4.86l0-.11.1-.07a10,10,0,0,1,3.14-.92l.15,0v.15a11.32,11.32,0,0,0,1.58,5.6l.28.4Zm2.89.61h-.15a1.55,1.55,0,0,1-.8-.4l-.17-.12c-1.15-1.14-2-3.44-2.24-6l0-.16h.17c1.24-.11,2.44-.18,3.66-.21h.15Zm.69-7.88h-.15c-1.31,0-2.55.11-3.79.22h-.15v-.15c0-.61.07-1.16.12-1.79a20.14,20.14,0,0,1,.5-3.17l0-.1.1,0a29.63,29.63,0,0,1,3.65-.32h.15Zm.54-6.28h-.14c-1.1,0-2.22.11-3.32.21l-.22,0,.08-.21c.5-1.34,1.85-4.92,3.88-4.92h.15Zm4.56-4.16a7.7,7.7,0,0,1,2.9,2.06,8.46,8.46,0,0,1,2,3.51l.12.38-.35-.19a13.53,13.53,0,0,0-3.42-1.17l-.09,0v-.09a10.3,10.3,0,0,0-1.32-4.26l-.27-.43Zm-3.07-.73h.15c.92,0,1.74.88,2.24,2.41a8.32,8.32,0,0,1,.75,2.52l0,.2-.2,0c-1-.1-2.14-.17-3.25-.21h-.15ZM173,79.44h.15a23.58,23.58,0,0,1,3.59.36l.11,0v.1a22.11,22.11,0,0,1,0,3.13c0,.32-.07.61-.1.91s-.07.59-.1.91V85l-.17,0c-1.06-.12-2.29-.21-3.74-.25h-.14Zm-.88,13.2h-.27l.6-6.93h.15c1.24,0,2.44.1,3.59.21h.16l0,.16C175.43,89.48,173.83,92,172.12,92.64Zm8.29-5.42a9.35,9.35,0,0,1-2.11,2.65A11,11,0,0,1,174.84,92l-.18-.21a14.08,14.08,0,0,0,2.6-5.54l0-.16.15,0,1.56.42c.84.21,1.16.29,1.38.51l.08.07Zm.59-1.11-.14-.06a15.51,15.51,0,0,0-3.25-.89l-.13,0,0-.14c.13-.7.21-1.27.27-1.94a18,18,0,0,0,0-2.83l0-.21.21,0c2.6.48,3.5,1.41,3.71,1.69l0,0v0a7.67,7.67,0,0,1,0,1.34,10.86,10.86,0,0,1-.64,2.79Z"/></svg>