<svg xmlns="http://www.w3.org/2000/svg" version="1.1" xmlns:xlink="http://www.w3.org/1999/xlink" xmlns:svgjs="http://svgjs.com/svgjs" width="512" height="512" x="0" y="0" viewBox="0 0 512 512" style="enable-background:new 0 0 512 512" xml:space="preserve" class=""><g><g xmlns="http://www.w3.org/2000/svg"><path d="m509.68 173.777c-2.945-8.091-8.601-15.037-15.928-19.56-31.838-19.653-70.263-23.585-105.42-10.789l-57.786 21.032-117.58-61.865c-3.745-1.971-8.149-2.269-12.126-.822l-45.74 16.648c-5.084 1.85-8.779 6.292-9.672 11.628-.894 5.335 1.151 10.74 5.354 14.146l72.968 59.137-122.333 44.526-39.53-34.887c-4.122-3.637-9.903-4.732-15.07-2.851l-36.934 13.441c-7.792 2.836-11.81 11.452-8.974 19.244l23.088 63.434c15.102 41.491 61.142 62.96 102.633 47.859l114.25-41.583-15.15 80.839c-.993 5.3.932 10.726 5.045 14.215 4.112 3.488 9.78 4.503 14.847 2.659l45.74-16.648c3.991-1.453 7.179-4.527 8.776-8.461l44.859-110.5 141.711-51.578c19.915-7.25 30.22-29.349 22.972-49.264zm-314.588 103.014-14.095 5.13c-7.785 2.833-16.392-1.18-19.226-8.965s1.18-16.392 8.965-19.226l14.095-5.13c7.785-2.833 16.392 1.18 19.226 8.965s-1.18 16.392-8.965 19.226zm70.477-25.652-14.095 5.13c-7.785 2.833-16.392-1.18-19.226-8.965-2.833-7.785 1.18-16.392 8.965-19.226l14.095-5.13c7.785-2.833 16.392 1.18 19.226 8.965s-1.18 16.393-8.965 19.226zm70.477-25.651-14.095 5.13c-7.785 2.833-16.392-1.18-19.226-8.965-2.833-7.785 1.18-16.392 8.965-19.226l14.095-5.13c7.785-2.833 16.392 1.18 19.226 8.965 2.834 7.785-1.18 16.392-8.965 19.226zm70.477-25.652-14.095 5.13c-7.785 2.833-16.392-1.18-19.226-8.965s1.18-16.392 8.965-19.226l14.095-5.13c7.785-2.833 16.392 1.18 19.226 8.965 2.834 7.785-1.18 16.393-8.965 19.226z" fill="#11703b" data-original="#000000" class=""></path></g></g></svg>